<svg xmlns="http://www.w3.org/2000/svg" width="141" height="46" viewBox="0 0 141 46" fill="none">
  <g clip-path="url(#clip0_646_6406)">
    <path fill-rule="evenodd" clip-rule="evenodd" d="M35.2136 3.43281C37.8834 2.93192 47.8702 1.05955 48.3157 4.25059C48.7713 7.51829 44.6556 12.0246 40.3497 14.0503C40.1227 14.1568 39.9216 14.3033 39.7197 14.4507C39.552 14.5733 39.3843 14.696 39.2008 14.7957C38.5233 15.1662 38.1195 16.0905 38.2188 16.9244V28.5999C34.8231 26.2011 29.8322 24.7087 24.1755 24.7087C18.5188 24.7087 13.5279 26.2011 10.1323 28.5999V16.9244C10.2315 16.0905 9.8269 15.1662 9.14944 14.7957C8.96992 14.6925 8.79713 14.5775 8.63216 14.4515C8.43025 14.3041 8.22835 14.1568 8.00058 14.0503C3.69465 12.0246 -0.42021 7.51829 0.0344942 4.25059C0.480021 1.05955 10.4693 2.93192 13.1375 3.43281C13.3494 3.472 13.5154 3.50351 13.6272 3.52226C13.704 3.53588 13.7766 3.46944 13.7607 3.39192C13.6072 2.62014 13.4962 0.533107 14.9688 0.081626C15.9099 -0.208004 16.5307 0.325256 16.8986 0.863626C17.0638 1.10555 17.5577 2.14907 17.8639 2.874C18.0291 3.265 18.4146 3.83659 18.8367 3.82637C20.5658 3.27885 22.3652 2.99833 24.1755 2.99411C25.9576 2.99411 27.7397 3.27181 29.5135 3.82637C29.9365 3.83659 30.3211 3.26414 30.4872 2.87314C30.7934 2.14907 31.2873 1.10555 31.4516 0.863626C31.8204 0.325256 32.4411 -0.208004 33.3822 0.081626C34.854 0.533107 34.743 2.62014 34.5895 3.39192C34.5745 3.46859 34.6462 3.53588 34.723 3.52226C34.8348 3.50351 35.0017 3.472 35.2136 3.43196V3.43281ZM22.0547 16.3571C22.1047 16.0615 21.6309 15.3127 20.1541 14.2956C19.1114 13.5883 17.9692 13.0474 16.7668 12.6916C16.4855 12.6022 16.192 12.5591 15.8974 12.5638C15.3609 12.5843 14.8462 12.7683 14.3956 13.0937C13.7941 13.5128 13.3778 14.0733 13.2518 14.7974C13.1225 15.5214 13.3235 16.1918 13.7465 16.7933C14.0586 17.2533 14.4791 17.6034 14.9763 17.807C15.2491 17.9177 15.5437 17.9671 15.8373 17.9858C17.088 18.0634 18.3511 17.9492 19.5667 17.6426C21.3005 17.1936 22.0005 16.6518 22.0547 16.3571ZM33.3739 17.807C33.8732 17.6006 34.3014 17.2479 34.6045 16.7933C35.0267 16.1918 35.2278 15.5223 35.0993 14.7982C34.9741 14.0741 34.557 13.5128 33.9546 13.0937C33.5156 12.7707 32.9934 12.5865 32.4528 12.5638C32.1582 12.5591 31.8648 12.6022 31.5835 12.6916C30.3811 13.047 29.2388 13.5876 28.1961 14.2948C26.7194 15.3127 26.2471 16.0615 26.2955 16.3571C26.3506 16.6518 27.0498 17.1936 28.7843 17.6426C29.9991 17.9492 31.2622 18.0634 32.5137 17.9858C32.8066 17.9671 33.1019 17.9177 33.3739 17.807Z" fill="#152943"/>
    <path fill-rule="evenodd" clip-rule="evenodd" d="M7.44531 36.3268C7.44531 30.984 14.935 26.6523 24.1751 26.6523C33.4143 26.6523 40.9049 30.984 40.9049 36.3268C40.9049 41.6696 33.4152 46.0013 24.1751 46.0013C14.935 46.0013 7.44531 41.6705 7.44531 36.3268ZM13.2355 35.7246C13.4916 37.3158 14.8249 38.0169 16.2557 37.3158C16.9372 36.9976 17.5206 36.4954 17.9429 35.8633C18.3652 35.2313 18.6103 34.4935 18.6519 33.7295C18.6452 32.9092 18.213 33.2244 17.6791 33.6128C16.9657 34.1325 16.0705 34.785 15.7685 33.0327C15.2429 29.9695 12.956 34.0209 13.2363 35.7246H13.2355ZM32.0928 37.3158C33.5245 38.0169 34.8577 37.3158 35.113 35.7246C35.3933 34.0209 33.1065 29.9695 32.58 33.0327C32.2797 34.785 31.3836 34.1325 30.6694 33.612C30.1363 33.2235 29.7041 32.9092 29.6983 33.7295C29.7394 34.4934 29.9842 35.2312 30.4062 35.8632C30.8283 36.4953 31.4115 36.9976 32.0928 37.3158Z" fill="#152943"/>
    <path d="M58.9816 10.1514C59.5223 9.68116 60.4484 9.44605 61.7608 9.44605H73.1576C73.4696 9.44661 73.7786 9.3844 74.0671 9.26299C74.3555 9.14157 74.6177 8.96332 74.8387 8.73843C75.0596 8.51353 75.235 8.24639 75.3549 7.95226C75.4747 7.65814 75.5366 7.34279 75.537 7.02423C75.5366 6.70564 75.4747 6.39025 75.3549 6.09607C75.2351 5.8019 75.0597 5.5347 74.8387 5.30974C74.6178 5.08477 74.3556 4.90644 74.0671 4.78493C73.7787 4.66343 73.4696 4.60112 73.1576 4.60156H61.956C55.7278 4.60156 52.6141 7.17842 52.6141 12.3313V12.5076C52.6141 15.0325 53.3733 16.9372 54.8951 18.2218C56.4161 19.5064 58.7697 20.1487 61.956 20.1487H73.1584C73.4704 20.1493 73.7795 20.0871 74.0679 19.9657C74.3564 19.8442 74.6185 19.666 74.8395 19.4411C75.0605 19.2162 75.2359 18.9491 75.3557 18.6549C75.4755 18.3608 75.5374 18.0455 75.5379 17.7269C75.5374 17.4083 75.4755 17.0929 75.3557 16.7987C75.2359 16.5046 75.0605 16.2374 74.8396 16.0124C74.6186 15.7874 74.3564 15.6091 74.068 15.4876C73.7795 15.3661 73.4704 15.3038 73.1584 15.3042H61.7616C60.4642 15.3042 59.5415 15.0691 58.9933 14.5997C58.4452 14.1295 58.1715 13.425 58.1715 12.4855V12.3091C58.1715 11.3397 58.4418 10.6208 58.9825 10.1514H58.9816ZM96.5219 4.66716L93.812 9.44605H95.1728C96.4843 9.44605 97.4112 9.68201 97.9519 10.1514C98.4925 10.6216 98.7628 11.3406 98.7628 12.3091V12.4855C98.7628 13.425 98.4883 14.1295 97.941 14.5997C97.3929 15.07 96.4701 15.3042 95.1728 15.3042H90.4906L87.744 20.1496H94.9784C98.1638 20.1496 100.517 19.5073 102.039 18.2218C103.56 16.9372 104.321 15.0325 104.321 12.5076V12.3313C104.321 7.62564 101.715 5.07605 96.5219 4.66716ZM91.6786 9.44605L94.426 4.60156H87.4319C81.2037 4.60156 78.0892 7.17842 78.0892 12.3313V12.5076C78.0892 15.0325 78.8493 16.9372 80.3711 18.2218C81.5925 19.2543 83.3613 19.8642 85.6573 20.0669L88.358 15.3042H87.2375C85.9402 15.3042 85.0166 15.0691 84.4693 14.5997C83.9211 14.1295 83.6475 13.425 83.6475 12.4855V12.3091C83.6475 11.3397 83.9178 10.6208 84.4584 10.1514C84.9991 9.68116 85.9252 9.44605 87.2375 9.44605M137.733 4.60156C136.825 4.60156 135.976 5.06157 135.469 5.82823L132.78 9.89497C131.754 11.4453 129.548 11.5442 128.394 10.0909L125.524 6.47734C125.267 6.15514 124.944 5.89538 124.577 5.71695C124.21 5.53853 123.808 5.44595 123.402 5.44595C122.995 5.44595 122.594 5.53853 122.226 5.71695C121.859 5.89538 121.536 6.15514 121.279 6.47734L118.409 10.0909C117.255 11.5442 115.049 11.4453 114.023 9.89497L111.334 5.82823C111.084 5.45024 110.747 5.14074 110.352 4.92687C109.957 4.713 109.517 4.6013 109.07 4.60156C106.875 4.60156 105.578 7.10601 106.818 8.95027L113.534 18.9399C114.569 20.4784 116.769 20.5636 117.915 19.1086L121.273 14.8485C121.529 14.5239 121.853 14.262 122.222 14.082C122.59 13.9021 122.993 13.8087 123.402 13.8087C123.81 13.8087 124.213 13.9021 124.581 14.082C124.95 14.262 125.274 14.5239 125.53 14.8485L128.888 19.1095C130.034 20.5636 132.234 20.4784 133.269 18.9391L139.985 8.95027C141.225 7.10601 139.928 4.60156 137.733 4.60156ZM57.8995 41.5379C60.4767 41.5379 62.8888 40.0497 62.8888 37.2403C62.8888 34.3891 60.7746 33.677 58.2691 32.6812C56.4011 31.9469 55.0662 31.4332 55.077 29.9663C55.087 28.5403 56.3394 27.754 57.7252 27.754C58.8548 27.754 60.1689 28.2473 61.3595 29.2431L62.4583 27.7966C61.0416 26.6432 59.388 26.0043 57.736 26.0146C55.1797 26.0248 53.1773 27.7651 53.1773 30.0498C53.1773 32.6812 55.4258 33.6557 57.6325 34.4939C59.6249 35.2597 60.9798 35.7206 60.9798 37.4396C60.9798 38.8963 59.7475 39.7669 57.9204 39.7669C57.126 39.761 56.3427 39.5767 55.6259 39.2271C54.9092 38.8774 54.2765 38.371 53.773 37.7437L52.6133 39.1799C53.287 39.9246 54.1045 40.5186 55.0144 40.9245C55.9243 41.3303 56.9066 41.5392 57.8995 41.5379ZM77.3542 30.9621L74.7461 38.771H74.7052L72.3441 30.9621H70.8665L68.5363 38.76H68.4946L65.8881 30.9621H64.1528L67.7036 41.4016H69.2746L71.5849 33.792H71.6258L73.9251 41.4016H75.537L79.0887 30.9621H77.3534H77.3542ZM88.595 30.9621V32.5031H88.5541C87.7023 31.4128 86.4391 30.836 85.0433 30.836C82.1482 30.836 80.0332 33.1633 80.0332 36.2453C80.0332 39.4525 82.2308 41.5379 85.0533 41.5379C86.5626 41.5379 87.8149 40.8675 88.6467 39.7456H88.6676V41.4016H90.2995V30.951L88.595 30.9621ZM85.2177 39.9449C83.1335 39.9449 81.7686 38.3622 81.7686 36.2555C81.7686 33.9283 83.287 32.4188 85.2385 32.4188C87.1992 32.4188 88.6567 34.1063 88.6567 36.2555C88.6567 38.4669 87.0557 39.944 85.2177 39.944V39.9449ZM98.6869 30.836C97.3011 30.836 96.0588 31.4128 95.207 32.5023H95.1652V30.9621H93.4616V45.6472H95.1552V39.8597H95.1961C96.0179 40.9186 97.2294 41.5472 98.6769 41.5472C101.499 41.5472 103.697 39.4517 103.697 36.2547C103.697 33.1625 101.582 30.8352 98.6869 30.8352V30.836ZM98.5125 39.9551C96.7054 39.9551 95.1043 38.4772 95.1043 36.2658C95.1043 34.1165 96.5619 32.429 98.4917 32.429C100.432 32.429 101.952 33.9385 101.952 36.2658C101.952 38.3724 100.586 39.9551 98.5017 39.9551H98.5125Z" fill="#152943"/>
  </g>
  <defs>
    <clipPath id="clip0_646_6406">
      <rect width="141" height="46" fill="white"/>
    </clipPath>
  </defs>
</svg>