<svg width="142" height="34" viewBox="0 0 142 34" fill="none" xmlns="http://www.w3.org/2000/svg">
<g clip-path="url(#clip0_646_6384)">
<path d="M35.6108 20.0083L29.3447 26.4683C28.8174 27.0208 28.8174 27.9027 29.3447 28.4552L34.1322 33.3852C34.949 34.2139 36.2829 34.2139 37.0998 33.3852L51.7723 18.4995C52.5892 17.6708 52.5892 16.3214 51.7723 15.4927L37.0998 0.617656C36.2829 -0.211094 34.949 -0.211094 34.1322 0.617656L29.3447 5.54766C28.8174 6.08953 28.8174 6.98203 29.3447 7.53453L35.6108 13.9945C37.2445 15.652 37.2445 18.3508 35.6108 20.0083Z" fill="#0A6E5C"/>
<path d="M16.7703 20.0083L23.0363 26.4683C23.5637 27.0208 23.5637 27.9027 23.0363 28.4552L18.2489 33.3852C17.432 34.2139 16.0981 34.2139 15.2813 33.3852L0.608742 18.4995C-0.208122 17.6708 -0.208122 16.3214 0.608742 15.4927L15.2813 0.617656C16.0981 -0.211094 17.432 -0.211094 18.2489 0.617656L23.0363 5.54766C23.5637 6.08953 23.5637 6.98203 23.0363 7.53453L16.7703 13.9945C15.1365 15.652 15.1365 18.3508 16.7703 20.0083Z" fill="#21BF73"/>
<path d="M18.4143 18.2336C17.7525 17.5536 17.7525 16.4592 18.4143 15.7792L24.9906 9.02172C25.6523 8.34172 26.7174 8.34172 27.3791 9.02172L33.9554 15.7792C34.6172 16.4592 34.6172 17.5536 33.9554 18.2336L27.3791 24.9911C26.7174 25.6711 25.6523 25.6711 24.9906 24.9911L18.4143 18.2336Z" fill="#21BF73"/>
<path d="M80.4572 27.2H75.7835L73.2089 20.2725C73.0021 19.7306 72.6815 19.3481 72.2472 19.1356C71.8336 18.9231 71.3063 18.8169 70.6652 18.8169H67.801V27.2106H63.4375V6.375H72.423C74.7702 6.375 76.5384 6.90625 77.7481 7.95812C78.9579 9.01 79.5577 10.5188 79.5577 12.495C79.5577 13.8763 79.1957 15.0662 78.4823 16.065C77.7792 17.0638 76.7762 17.7756 75.4526 18.2006C76.6418 18.4556 77.5 19.3056 78.0273 20.7506L80.4676 27.2106L80.4572 27.2ZM71.7612 15.3212C73.0227 15.3212 73.9533 15.1088 74.5427 14.6731C75.1321 14.2269 75.4216 13.5362 75.4216 12.6012C75.4216 11.6662 75.1321 10.9863 74.5427 10.5506C73.9533 10.1044 73.0331 9.88125 71.7612 9.88125H67.739V15.3212H71.7612Z" fill="#22272F"/>
<path d="M97.599 12.3669V27.1994H93.3803V25.0106C92.946 25.7756 92.3359 26.3706 91.5397 26.7956C90.7436 27.2206 89.844 27.4438 88.8513 27.4438C87.6002 27.4438 86.5041 27.1356 85.5322 26.5088C84.5912 25.8819 83.8364 25 83.2884 23.8419C82.761 22.6731 82.4922 21.3237 82.4922 19.8044C82.4922 18.285 82.761 16.925 83.2884 15.735C83.8364 14.545 84.5912 13.6313 85.5528 12.9831C86.5145 12.3244 87.6105 11.9844 88.841 11.9844C89.844 11.9844 90.7436 12.2075 91.5294 12.6538C92.3152 13.1 92.9356 13.7056 93.3699 14.4706V12.3669H97.5887H97.599ZM90.0921 24.065C91.1468 24.065 91.9637 23.6931 92.5324 22.9494C93.1011 22.2056 93.3803 21.1325 93.3803 19.73C93.3803 18.3275 93.1011 17.2544 92.5324 16.5106C91.9637 15.7456 91.1572 15.3738 90.0921 15.3738C89.0271 15.3738 88.2102 15.7669 87.6312 16.5425C87.0418 17.3181 86.7523 18.4019 86.7523 19.7937C86.7523 21.1856 87.0315 22.2375 87.6002 22.9812C88.1896 23.7037 89.0168 24.065 90.0921 24.065Z" fill="#22272F"/>
<path d="M118.622 11.995C120.266 11.995 121.486 12.5156 122.282 13.5463C123.099 14.5556 123.502 16.1175 123.502 18.2213V27.1994H119.222V18.37C119.222 17.3394 119.056 16.5956 118.736 16.1494C118.415 15.6819 117.888 15.4481 117.143 15.4481C116.275 15.4481 115.603 15.7563 115.127 16.3831C114.651 17.01 114.424 17.8812 114.424 19.0181V27.21H110.143V18.3806C110.143 17.3712 109.978 16.6275 109.636 16.16C109.316 15.6925 108.799 15.4588 108.075 15.4588C107.207 15.4588 106.524 15.7669 106.038 16.3938C105.562 17.0206 105.325 17.8919 105.325 19.0287V27.2206H101.044V16.6063C101.044 15.0231 100.972 13.61 100.816 12.3669H104.839L105.097 14.5875C105.531 13.7481 106.131 13.1106 106.907 12.6538C107.703 12.2075 108.602 11.9844 109.626 11.9844C111.767 11.9844 113.183 12.8981 113.876 14.7363C114.352 13.8969 115.003 13.2381 115.83 12.7494C116.678 12.2394 117.609 11.9844 118.612 11.9844L118.622 11.995Z" fill="#22272F"/>
<path d="M135.651 11.995C136.881 11.995 137.977 12.3244 138.939 12.9937C139.9 13.6419 140.645 14.5556 141.183 15.7456C141.731 16.9356 142 18.285 142 19.815C142 21.345 141.741 22.6838 141.203 23.8525C140.676 25 139.931 25.8925 138.97 26.5194C138.008 27.1462 136.902 27.4544 135.651 27.4544C134.648 27.4544 133.748 27.2419 132.962 26.8062C132.166 26.3812 131.566 25.7862 131.153 25.0212V34.01H126.872V16.6063C126.872 15.0231 126.8 13.61 126.645 12.3669H130.667L130.946 14.8212C131.329 13.9394 131.928 13.2488 132.756 12.7494C133.603 12.2394 134.565 11.9844 135.64 11.9844L135.651 11.995ZM134.431 24.0756C135.485 24.0756 136.302 23.7144 136.871 22.9919C137.44 22.2481 137.719 21.1856 137.719 19.8044C137.719 18.4231 137.429 17.3394 136.84 16.5531C136.271 15.7775 135.475 15.3844 134.431 15.3844C133.386 15.3844 132.549 15.7669 131.959 16.5213C131.391 17.265 131.111 18.3381 131.111 19.7406C131.111 21.1431 131.391 22.2163 131.959 22.96C132.549 23.7038 133.366 24.0756 134.431 24.0756Z" fill="#22272F"/>
</g>
<defs>
<clipPath id="clip0_646_6384">
<rect width="142" height="34" fill="white"/>
</clipPath>
</defs>
</svg>
