<svg width="32" height="32" viewBox="0 0 32 32" fill="none" xmlns="http://www.w3.org/2000/svg">
<ellipse cx="15.6918" cy="16.279" rx="15.6918" ry="15.693" fill="#000050"/>
<path d="M21.7633 23.5622V25.3086H10.8138V23.7805L16.2943 17.6796C16.9683 16.929 17.4892 16.2932 17.8568 15.7724C18.2322 15.2438 18.4926 14.7728 18.6381 14.3592C18.7913 13.9379 18.8679 13.5089 18.8679 13.0723C18.8679 12.5209 18.753 12.023 18.5232 11.5787C18.3011 11.1268 17.9717 10.7668 17.5351 10.4987C17.0985 10.2306 16.57 10.0966 15.9496 10.0966C15.2066 10.0966 14.5862 10.2421 14.0883 10.5332C13.5981 10.8166 13.2304 11.2149 12.9853 11.7281C12.7402 12.2413 12.6177 12.8311 12.6177 13.4975H10.4921C10.4921 12.5553 10.6989 11.6936 11.1125 10.9123C11.5262 10.1311 12.1389 9.51062 12.9509 9.05104C13.7628 8.58381 14.7624 8.35019 15.9496 8.35019C17.0066 8.35019 17.9105 8.53785 18.6611 8.91317C19.4117 9.28083 19.9862 9.80169 20.3845 10.4757C20.7905 11.1421 20.9935 11.9234 20.9935 12.8196C20.9935 13.3098 20.9092 13.8077 20.7407 14.3132C20.5798 14.8111 20.3539 15.309 20.0628 15.8068C19.7794 16.3047 19.4462 16.7949 19.0632 17.2775C18.6879 17.76 18.2858 18.2349 17.8568 18.7022L13.376 23.5622H21.7633Z" fill="white"/>
</svg>
