<svg width="33" height="32" viewBox="0 0 33 32" fill="none" xmlns="http://www.w3.org/2000/svg">
<ellipse cx="16.5043" cy="15.8629" rx="15.6918" ry="15.693" fill="#000050"/>
<path d="M14.717 15.4827H16.2336C16.9766 15.4827 17.5893 15.3602 18.0719 15.1151C18.5621 14.8623 18.9259 14.5214 19.1634 14.0925C19.4085 13.6559 19.5311 13.1657 19.5311 12.6219C19.5311 11.9785 19.4238 11.4385 19.2093 11.0019C18.9949 10.5653 18.6732 10.2359 18.2442 10.0138C17.8153 9.79163 17.2715 9.68057 16.6127 9.68057C16.0153 9.68057 15.4868 9.79929 15.0272 10.0367C14.5753 10.2665 14.2191 10.5959 13.9587 11.0248C13.7059 11.4538 13.5795 11.9593 13.5795 12.5414H11.454C11.454 11.6912 11.6684 10.9176 12.0974 10.2206C12.5263 9.52355 13.1276 8.96822 13.9012 8.5546C14.6825 8.14098 15.5863 7.93417 16.6127 7.93417C17.6238 7.93417 18.5085 8.11417 19.2668 8.47418C20.0251 8.82652 20.6149 9.35503 21.0362 10.0597C21.4574 10.7567 21.6681 11.6261 21.6681 12.6678C21.6681 13.0891 21.5685 13.541 21.3694 14.0236C21.1779 14.4985 20.8753 14.9427 20.4617 15.3563C20.0557 15.77 19.5272 16.1108 18.8762 16.3789C18.2251 16.6393 17.4438 16.7695 16.5323 16.7695H14.717V15.4827ZM14.717 17.2291V15.9538H16.5323C17.597 15.9538 18.4779 16.0802 19.1749 16.3329C19.8719 16.5857 20.4196 16.9227 20.8179 17.344C21.2238 17.7653 21.5072 18.2287 21.6681 18.7342C21.8366 19.2321 21.9209 19.73 21.9209 20.2279C21.9209 21.0091 21.7868 21.7023 21.5187 22.3075C21.2583 22.9126 20.8868 23.4258 20.4042 23.847C19.9294 24.2683 19.3702 24.5862 18.7268 24.8007C18.0834 25.0151 17.3825 25.1224 16.6242 25.1224C15.8966 25.1224 15.211 25.019 14.5676 24.8122C13.9319 24.6053 13.3689 24.3066 12.8787 23.916C12.3885 23.5177 12.0055 23.0313 11.7297 22.4568C11.454 21.8747 11.3161 21.2121 11.3161 20.4691H13.4417C13.4417 21.0513 13.568 21.5606 13.8208 21.9972C14.0812 22.4338 14.4489 22.7747 14.9238 23.0198C15.4063 23.2572 15.9732 23.376 16.6242 23.376C17.2753 23.376 17.8344 23.2649 18.3017 23.0428C18.7766 22.813 19.1404 22.4683 19.3932 22.0087C19.6536 21.5492 19.7838 20.9709 19.7838 20.2738C19.7838 19.5768 19.6383 19.0062 19.3472 18.5619C19.0562 18.11 18.6425 17.7768 18.1064 17.5623C17.5778 17.3402 16.9536 17.2291 16.2336 17.2291H14.717Z" fill="white"/>
</svg>
