<?xml version="1.0" encoding="utf-8"?>
<!-- Generator: Adobe Illustrator 26.3.1, SVG Export Plug-In . SVG Version: 6.00 Build 0)  -->
<svg version="1.1" id="Ebene_1" xmlns="http://www.w3.org/2000/svg" xmlns:xlink="http://www.w3.org/1999/xlink" x="0px" y="0px"
	 viewBox="0 0 237.3 222.3" style="enable-background:new 0 0 237.3 222.3;" xml:space="preserve">
<style type="text/css">
	.st0{fill:none;stroke:#000050;stroke-width:6;stroke-linecap:round;stroke-linejoin:round;}
	.st1{fill:none;stroke:#000050;stroke-width:6;stroke-miterlimit:10;}
	.st2{fill:#000050;}
	.st3{fill-rule:evenodd;clip-rule:evenodd;fill:#000050;}
	.st4{clip-path:url(#SVGID_00000021824617975150375560000002895027410687134635_);}
	.st5{clip-path:url(#SVGID_00000005981303348181248180000008812165981934489788_);}
	.st6{clip-path:url(#SVGID_00000127008628105828604380000001799068682646113202_);}
	.st7{clip-path:url(#SVGID_00000101796107272119908080000003858252650191284670_);}
</style>
<g id="a">
</g>
<g id="b">
	<g id="c">
		<circle class="st0" cx="43" cy="139.1" r="6.1"/>
		
			<ellipse transform="matrix(0.7071 -0.7071 0.7071 0.7071 -6.5888 100.9365)" class="st1" cx="118.5" cy="58.4" rx="33.7" ry="33.8"/>
		
			<ellipse transform="matrix(0.7071 -0.7071 0.7071 0.7071 -6.5888 100.9365)" class="st0" cx="118.5" cy="58.4" rx="33.7" ry="33.8"/>
		<polygon class="st0" points="233.5,3.8 221.8,3.8 191.1,105.9 202.8,105.9 		"/>
		<polygon class="st0" points="15.5,3.8 3.8,3.8 34.5,105.9 46.2,105.9 		"/>
		<path class="st0" d="M157.1,172.4h53.7c12.5,0,22.7-10.1,22.7-22.7v-21.1c0-12.5-10.1-22.7-22.7-22.7h-23.6v1.7c0,1.7-1.4,3-3,3
			h-0.4c-1.7,0-3-1.3-3-3v-1.7H173v1.7c0,1.7-1.4,3-3,3h-0.4c-1.7,0-3-1.3-3-3v-1.7h-7.8v1.7c0,1.7-1.4,3-3,3h-0.4c-1.7,0-3-1.3-3-3
			v-1.7h-7.8v1.7c0,1.7-1.4,3-3,3h-0.4c-1.7,0-3-1.3-3-3v-1.7h-7.8v1.7c0,1.7-1.4,3-3,3h-0.4c-1.7,0-3-1.3-3-3v-1.7h-7.8v1.7
			c0,1.7-1.3,3-3,3h-0.4c-1.7,0-3-1.3-3-3v-1.7h-7.8v1.7c0,1.7-1.3,3-3,3h-0.4c-1.7,0-3-1.3-3-3v-1.7h-7.8v1.7c0,1.7-1.3,3-3,3h-0.4
			c-1.7,0-3-1.3-3-3v-1.7H73v1.7c0,1.7-1.3,3-3,3h-0.4c-1.7,0-3-1.3-3-3v-1.7h-7.8v1.7c0,1.7-1.3,3-3,3h-0.5c-1.7,0-3-1.3-3-3v-1.7
			H28.5C16,105.9,5.8,116,5.8,128.6v21.1c0,12.5,10.1,22.7,22.7,22.7h56.3"/>
		<path class="st2" d="M175.3,142.5H64.1c-2.1,0-3.8-1.7-3.8-3.8s1.7-3.8,3.8-3.8h111.2c2.1,0,3.8,1.7,3.8,3.8
			S177.4,142.5,175.3,142.5L175.3,142.5z"/>
		<g>
			<path class="st2" d="M147.1,200.7c-5.3,9.3-15.3,15.6-26.8,15.6s-21.5-6.3-26.8-15.6c-5.1-5.4-8.6-12.4-9.7-20.1
				c-0.2,1.6-0.3,3.3-0.3,5c0,20.2,16.5,36.7,36.8,36.7s36.8-16.4,36.8-36.6c0-1.7-0.1-3.4-0.4-5
				C155.7,188.3,152.2,195.3,147.1,200.7L147.1,200.7z"/>
			<path class="st2" d="M147.1,190.7c-5.3,9.3-15.3,15.6-26.8,15.6s-21.5-6.3-26.8-15.6c-5.1-5.4-8.6-12.4-9.7-20.1
				c-0.2,1.6-0.3,3.3-0.3,5c0,20.2,16.5,36.7,36.8,36.7s36.8-16.4,36.8-36.6c0-1.7-0.1-3.4-0.4-5
				C155.7,178.3,152.2,185.3,147.1,190.7L147.1,190.7z"/>
			<path class="st2" d="M120.4,202.3c-20.3,0-36.8-16.4-36.8-36.7c0-10.4,4.4-19.8,11.4-26.5c6.6-6.3,15.6-0.5,25.4-0.5
				s19.3-5.6,26,1.1s10.8,15.8,10.8,25.9C157.2,185.8,140.7,202.3,120.4,202.3L120.4,202.3z M104.9,139.1c-0.6,0.3-1.2,0.7-1.7,1.1
				c-8.2,5.5-13.6,14.9-13.6,25.4c0,16.9,13.8,30.6,30.8,30.6s30.8-13.8,30.8-30.6c0-11.3-6.2-21.2-15.3-26.5
				C131.3,136.5,109.5,136.5,104.9,139.1L104.9,139.1z"/>
		</g>
		<g>
			<path class="st3" d="M124.5,158c-0.3,0-0.7,0-1-0.1c-2.5,0-4.9,1-7,2.9c-1,0.9-2,2-2.8,3.2c-0.1-4.6-0.4-9.5-0.9-14.4h-6.3
				c1.4,14,1.2,26.2,1,37l0,0c0,0,0,0,0,0.1h6.3c0.2-10.7,2.9-17.6,7-21.2c1.1-1,2.1-1.4,3.1-1.3c5,0.5,4.2,15.7,3.8,22.5h6.3
				c0.3-5,0.6-11-0.2-16.3C132.7,162.7,129.6,158.5,124.5,158"/>
			<g>
				<defs>
					<path id="SVGID_1_" d="M124.5,158c-0.3,0-0.7,0-1-0.1c-2.5,0-4.9,1-7,2.9c-1,0.9-2,2-2.8,3.2c-0.1-4.6-0.4-9.5-0.9-14.4h-6.3
						c1.4,14,1.2,26.2,1,37l0,0c0,0,0,0,0,0.1h6.3c0.2-10.7,2.9-17.6,7-21.2c1.1-1,2.1-1.4,3.1-1.3c5,0.5,4.2,15.7,3.8,22.5h6.3
						c0.3-5,0.6-11-0.2-16.3C132.7,162.7,129.6,158.5,124.5,158"/>
				</defs>
				<use xlink:href="#SVGID_1_"  style="overflow:visible;fill:#000050;"/>
				<clipPath id="SVGID_00000162341109596778998380000000189403561210127773_">
					<use xlink:href="#SVGID_1_"  style="overflow:visible;"/>
				</clipPath>
				<g style="clip-path:url(#SVGID_00000162341109596778998380000000189403561210127773_);">
					<g>
						<rect x="-168" y="-164.4" class="st2" width="1065.5" height="710.3"/>
						<g>
							<defs>
								<rect id="SVGID_00000081613209430750773320000017117561151635425718_" x="-168" y="-164.4" width="1065.5" height="710.3"/>
							</defs>
							<use xlink:href="#SVGID_00000081613209430750773320000017117561151635425718_"  style="overflow:visible;fill:#000050;"/>
							<clipPath id="SVGID_00000147200696808670998510000016515392334306881683_">
								<use xlink:href="#SVGID_00000081613209430750773320000017117561151635425718_"  style="overflow:visible;"/>
							</clipPath>
							<g style="clip-path:url(#SVGID_00000147200696808670998510000016515392334306881683_);">
								<rect x="102.1" y="145.1" class="st2" width="36.6" height="45.9"/>
							</g>
						</g>
					</g>
				</g>
			</g>
		</g>
		<g>
			<path class="st3" d="M133.7,53.1c-0.2-0.3-0.4-0.5-0.7-0.7c-1.7-1.7-4.1-2.8-7-2.9c-1.3-0.1-2.8,0-4.2,0.2
				c3.1-3.3,6.4-7,9.6-10.8l-4.5-4.5c-8.9,10.9-17.7,19.4-25.5,26.8l0,0c0,0,0,0,0,0l4.4,4.4c7.7-7.5,14.5-10.4,19.9-10.1
				c1.4,0.1,2.5,0.5,3.1,1.3c3.1,3.9-8.2,14.1-13.2,18.6l4.4,4.4c3.7-3.3,8.2-7.4,11.4-11.6C136.2,62.2,136.9,57,133.7,53.1"/>
			<g>
				<defs>
					<path id="SVGID_00000045582825500784040790000017398971683438137278_" d="M133.7,53.1c-0.2-0.3-0.4-0.5-0.7-0.7
						c-1.7-1.7-4.1-2.8-7-2.9c-1.3-0.1-2.8,0-4.2,0.2c3.1-3.3,6.4-7,9.6-10.8l-4.5-4.5c-8.9,10.9-17.7,19.4-25.5,26.8l0,0
						c0,0,0,0,0,0l4.4,4.4c7.7-7.5,14.5-10.4,19.9-10.1c1.4,0.1,2.5,0.5,3.1,1.3c3.1,3.9-8.2,14.1-13.2,18.6l4.4,4.4
						c3.7-3.3,8.2-7.4,11.4-11.6C136.2,62.2,136.9,57,133.7,53.1"/>
				</defs>
				<use xlink:href="#SVGID_00000045582825500784040790000017398971683438137278_"  style="overflow:visible;fill:#000050;"/>
				<clipPath id="SVGID_00000085955859179986077870000009400572993410386337_">
					<use xlink:href="#SVGID_00000045582825500784040790000017398971683438137278_"  style="overflow:visible;"/>
				</clipPath>
				<g style="clip-path:url(#SVGID_00000085955859179986077870000009400572993410386337_);">
					<g>
						
							<rect x="-74.8" y="-286.6" transform="matrix(0.7071 -0.7071 0.7071 0.7071 -91.915 270.3312)" class="st2" width="710.3" height="1065.5"/>
						<g>
							<defs>
								
									<rect id="SVGID_00000155122901647794743250000009382723065790362263_" x="-74.8" y="-286.6" transform="matrix(0.7071 -0.7071 0.7071 0.7071 -91.915 270.3312)" width="710.3" height="1065.5"/>
							</defs>
							<use xlink:href="#SVGID_00000155122901647794743250000009382723065790362263_"  style="overflow:visible;fill:#000050;"/>
							<clipPath id="SVGID_00000088131246251205809940000016695085027195961994_">
								<use xlink:href="#SVGID_00000155122901647794743250000009382723065790362263_"  style="overflow:visible;"/>
							</clipPath>
							<g style="clip-path:url(#SVGID_00000088131246251205809940000016695085027195961994_);">
								
									<rect x="100.7" y="38.9" transform="matrix(0.7071 -0.7071 0.7071 0.7071 -4.2741 104.2023)" class="st2" width="45.9" height="36.6"/>
							</g>
						</g>
					</g>
				</g>
			</g>
		</g>
	</g>
</g>
</svg>
