<svg width="92" height="92" viewBox="0 0 92 92" fill="none" xmlns="http://www.w3.org/2000/svg">
<path d="M45.9442 21.8874C46.5005 21.8874 46.9529 21.4349 46.9529 20.8787V14.4852C46.9529 13.929 46.5005 13.4766 45.9442 13.4766C45.388 13.4766 44.9355 13.929 44.9355 14.4852V20.8787C44.9355 21.4349 45.388 21.8874 45.9442 21.8874Z" fill="#000050"/>
<path d="M20.8688 45.0469H14.4794C13.9231 45.0469 13.4707 45.4993 13.4707 46.0556C13.4707 46.6118 13.9231 47.0642 14.4794 47.0642H20.8688C21.425 47.0642 21.8775 46.6118 21.8775 46.0556C21.8775 45.4993 21.425 45.0469 20.8688 45.0469Z" fill="#000050"/>
<path d="M46.0497 70.1445C45.4934 70.1445 45.041 70.597 45.041 71.1532V77.5209C45.041 78.0772 45.4934 78.5296 46.0497 78.5296C46.606 78.5296 47.0584 78.0772 47.0584 77.5209V71.1532C47.0584 70.597 46.606 70.1445 46.0497 70.1445Z" fill="#000050"/>
<path d="M77.5161 44.9414H71.1444C70.5882 44.9414 70.1357 45.3938 70.1357 45.9501C70.1357 46.5064 70.5882 46.9588 71.1444 46.9588H77.5161C78.0724 46.9588 78.5248 46.5064 78.5248 45.9501C78.5248 45.3938 78.0724 44.9414 77.5161 44.9414Z" fill="#000050"/>
<path d="M28.9096 28.9841C29.3029 28.5907 29.3029 27.9509 28.9096 27.5576L24.3888 23.0368C23.9954 22.6434 23.3556 22.6434 22.9623 23.0368C22.5689 23.4301 22.5689 24.0699 22.9623 24.4632L27.4831 28.9841C27.8764 29.3774 28.5162 29.3774 28.9096 28.9841Z" fill="#000050"/>
<path d="M27.5554 63.093L23.0375 67.611C22.6441 68.0043 22.6441 68.6441 23.0375 69.0375C23.4308 69.4308 24.0706 69.4308 24.464 69.0375L28.9819 64.5195C29.3753 64.1261 29.3753 63.4863 28.9819 63.093C28.5886 62.6996 27.9488 62.6996 27.5554 63.093Z" fill="#000050"/>
<path d="M63.1088 63.0328C62.7154 63.4262 62.7154 64.066 63.1088 64.4593L67.6114 68.962C68.0047 69.3553 68.6445 69.3553 69.0379 68.962C69.4312 68.5686 69.4312 67.9288 69.0379 67.5355L64.5352 63.0328C64.1419 62.6395 63.5021 62.6395 63.1088 63.0328Z" fill="#000050"/>
<path d="M67.5341 22.961L63.0287 27.4664C62.6353 27.8598 62.6353 28.4996 63.0287 28.8929C63.422 29.2863 64.0618 29.2863 64.4552 28.8929L68.9606 24.3875C69.354 23.9941 69.354 23.3543 68.9606 22.961C68.5673 22.5676 67.9275 22.5676 67.5341 22.961Z" fill="#000050"/>
<path d="M45.9449 6.53516C24.2136 6.53516 6.59668 24.1521 6.59668 45.8835C6.59668 67.6149 24.2136 85.2318 45.9449 85.2318C67.6763 85.2318 85.2932 67.6149 85.2932 45.8835C85.2932 24.1521 67.6763 6.53516 45.9449 6.53516ZM45.9449 79.889C27.164 79.889 11.9387 64.6637 11.9387 45.8827C11.9387 27.1017 27.164 11.8772 45.9449 11.8772C64.7259 11.8772 79.9511 27.1025 79.9511 45.8835C79.9511 64.6645 64.7259 79.8898 45.9449 79.8898V79.889Z" fill="#000050"/>
<path d="M35.5433 47.1133V48.4316H29.7073V47.3066L32.4671 44.3477C32.7444 44.0391 32.9632 43.7676 33.1234 43.5332C33.2835 43.2949 33.3987 43.082 33.4691 42.8945C33.5433 42.7031 33.5804 42.5215 33.5804 42.3496C33.5804 42.0918 33.5374 41.8711 33.4515 41.6875C33.3655 41.5 33.2386 41.3555 33.0706 41.2539C32.9066 41.1523 32.7034 41.1016 32.4612 41.1016C32.2034 41.1016 31.9808 41.1641 31.7933 41.2891C31.6097 41.4141 31.4691 41.5879 31.3714 41.8105C31.2777 42.0332 31.2308 42.2852 31.2308 42.5664H29.5374C29.5374 42.0586 29.6585 41.5938 29.9007 41.1719C30.1429 40.7461 30.4847 40.4082 30.9261 40.1582C31.3675 39.9043 31.8909 39.7773 32.4964 39.7773C33.0941 39.7773 33.598 39.875 34.0081 40.0703C34.4222 40.2617 34.7347 40.5391 34.9456 40.9023C35.1605 41.2617 35.2679 41.6914 35.2679 42.1914C35.2679 42.4727 35.223 42.748 35.1331 43.0176C35.0433 43.2832 34.9144 43.5488 34.7464 43.8145C34.5823 44.0762 34.3831 44.3418 34.1487 44.6113C33.9144 44.8809 33.6546 45.1602 33.3694 45.4492L31.887 47.1133H35.5433ZM42.5204 43.416V44.8926C42.5204 45.5332 42.452 46.0859 42.3153 46.5508C42.1786 47.0117 41.9813 47.3906 41.7235 47.6875C41.4696 47.9805 41.1669 48.1973 40.8153 48.3379C40.4638 48.4785 40.0731 48.5488 39.6435 48.5488C39.2997 48.5488 38.9794 48.5059 38.6825 48.4199C38.3856 48.3301 38.1181 48.1914 37.8798 48.0039C37.6454 47.8164 37.4423 47.5801 37.2704 47.2949C37.1024 47.0059 36.9735 46.6621 36.8837 46.2637C36.7938 45.8652 36.7489 45.4082 36.7489 44.8926V43.416C36.7489 42.7754 36.8173 42.2266 36.954 41.7695C37.0946 41.3086 37.2919 40.9316 37.5458 40.6387C37.8036 40.3457 38.1083 40.1309 38.4599 39.9941C38.8114 39.8535 39.202 39.7832 39.6317 39.7832C39.9755 39.7832 40.2938 39.8281 40.5868 39.918C40.8837 40.0039 41.1513 40.1387 41.3895 40.3223C41.6278 40.5059 41.831 40.7422 41.9989 41.0312C42.1669 41.3164 42.2958 41.6582 42.3856 42.0566C42.4755 42.4512 42.5204 42.9043 42.5204 43.416ZM40.827 45.1152V43.1875C40.827 42.8789 40.8095 42.6094 40.7743 42.3789C40.7431 42.1484 40.6942 41.9531 40.6278 41.793C40.5614 41.6289 40.4794 41.4961 40.3817 41.3945C40.2841 41.293 40.1728 41.2188 40.0478 41.1719C39.9228 41.125 39.7841 41.1016 39.6317 41.1016C39.4403 41.1016 39.2704 41.1387 39.122 41.2129C38.9774 41.2871 38.8544 41.4062 38.7528 41.5703C38.6513 41.7305 38.5731 41.9453 38.5185 42.2148C38.4677 42.4805 38.4423 42.8047 38.4423 43.1875V45.1152C38.4423 45.4238 38.4579 45.6953 38.4892 45.9297C38.5243 46.1641 38.5751 46.3652 38.6415 46.5332C38.7118 46.6973 38.7938 46.832 38.8876 46.9375C38.9853 47.0391 39.0966 47.1133 39.2216 47.1602C39.3505 47.207 39.4911 47.2305 39.6435 47.2305C39.831 47.2305 39.997 47.1934 40.1415 47.1191C40.2899 47.041 40.4149 46.9199 40.5165 46.7559C40.622 46.5879 40.7001 46.3691 40.7509 46.0996C40.8017 45.8301 40.827 45.502 40.827 45.1152Z" fill="#000050"/>
<path d="M46.9326 43.4262H47.8941L47.988 44.0224H48.0177C48.2115 43.6254 48.511 43.3105 49.0612 43.3105C49.4873 43.3105 49.7869 43.5805 49.906 44.0995C50.1023 43.6506 50.4285 43.3105 50.9733 43.3105C51.65 43.3105 52.0356 43.879 52.0356 44.8301V48.1847H50.8255V44.9191C50.8255 44.5627 50.734 44.3882 50.5076 44.3882C50.2812 44.3882 50.1532 44.5612 49.992 44.9171V48.1847H48.9762V44.9191C48.9762 44.5627 48.8778 44.3882 48.6514 44.3882C48.4388 44.3882 48.295 44.5612 48.1427 44.9171V48.1847H46.9326V43.4262Z" fill="#000050"/>
<path d="M55.0946 44.4242H53.1094V43.4267H56.3616V48.1851H55.0946V44.4242ZM54.7921 41.8161C54.7921 41.3342 55.1564 41 55.6591 41C56.1619 41 56.5262 41.3347 56.5262 41.8161C56.5262 42.2976 56.1619 42.6219 55.6591 42.6219C55.1564 42.6219 54.7921 42.3021 54.7921 41.8161Z" fill="#000050"/>
<path d="M58.8525 43.4262H59.8857L59.9796 44.1015H60.0182C60.4522 43.6694 60.9816 43.3105 61.6984 43.3105C62.7859 43.3105 63.2709 44.0288 63.2709 45.2419V48.1847H62.0039V45.4055C62.0039 44.7075 61.7899 44.3926 61.212 44.3926C60.7893 44.3926 60.5026 44.5933 60.12 44.974V48.1842H58.853V43.4257L58.8525 43.4262Z" fill="#000050"/>
</svg>
