<svg width="95" height="95" viewBox="0 0 95 95" fill="none" xmlns="http://www.w3.org/2000/svg">
<path d="M29.8543 29.9282C30.2605 29.5221 30.2605 28.8614 29.8543 28.4552L25.1861 23.7869C24.7799 23.3808 24.1192 23.3808 23.7131 23.7869C23.3069 24.1931 23.3069 24.8538 23.7131 25.2599L28.3813 29.9282C28.7875 30.3344 29.4482 30.3344 29.8543 29.9282Z" fill="#000050"/>
<path d="M28.4536 65.1509L23.7883 69.8162C23.3821 70.2224 23.3821 70.8831 23.7883 71.2892C24.1944 71.6954 24.8551 71.6954 25.2613 71.2892L29.9266 66.6239C30.3328 66.2177 30.3328 65.5571 29.9266 65.1509C29.5204 64.7447 28.8598 64.7447 28.4536 65.1509Z" fill="#000050"/>
<path d="M65.1672 65.0877C64.761 65.4939 64.761 66.1546 65.1672 66.5607L69.8166 71.2102C70.2228 71.6164 70.8835 71.6164 71.2896 71.2102C71.6958 70.804 71.6958 70.1433 71.2896 69.7372L66.6402 65.0877C66.234 64.6815 65.5733 64.6815 65.1672 65.0877Z" fill="#000050"/>
<path d="M69.7356 23.7087L65.0832 28.3611C64.677 28.7673 64.677 29.428 65.0832 29.8342C65.4894 30.2403 66.15 30.2403 66.5562 29.8342L71.2086 25.1818C71.6148 24.7756 71.6148 24.1149 71.2086 23.7087C70.8024 23.3026 70.1417 23.3026 69.7356 23.7087Z" fill="#000050"/>
<path d="M47.4469 22.6011C48.0213 22.6011 48.4884 22.1339 48.4884 21.5595V14.9576C48.4884 14.3832 48.0213 13.916 47.4469 13.916C46.8724 13.916 46.4053 14.3832 46.4053 14.9576V21.5595C46.4053 22.1339 46.8724 22.6011 47.4469 22.6011Z" fill="#000050"/>
<path d="M21.5524 46.5176H14.9547C14.3803 46.5176 13.9131 46.9848 13.9131 47.5592C13.9131 48.1336 14.3803 48.6007 14.9547 48.6007H21.5524C22.1268 48.6007 22.594 48.1336 22.594 47.5592C22.594 46.9848 22.1268 46.5176 21.5524 46.5176Z" fill="#000050"/>
<path d="M47.5552 72.4336C46.9808 72.4336 46.5137 72.9008 46.5137 73.4752V80.0505C46.5137 80.6249 46.9808 81.0921 47.5552 81.0921C48.1297 81.0921 48.5968 80.6249 48.5968 80.0505V73.4752C48.5968 72.9008 48.1297 72.4336 47.5552 72.4336Z" fill="#000050"/>
<path d="M80.0488 46.4062H73.4693C72.8949 46.4062 72.4277 46.8734 72.4277 47.4478C72.4277 48.0222 72.8949 48.4894 73.4693 48.4894H80.0488C80.6232 48.4894 81.0904 48.0222 81.0904 47.4478C81.0904 46.8734 80.6232 46.4062 80.0488 46.4062Z" fill="#000050"/>
<path d="M47.443 6.74609C25.003 6.74609 6.81152 24.9376 6.81152 47.3777C6.81152 69.8178 25.003 88.0093 47.443 88.0093C69.8831 88.0093 88.0745 69.8178 88.0745 47.3777C88.0745 24.9376 69.8831 6.74609 47.443 6.74609ZM47.443 82.4922C28.0496 82.4922 12.3278 66.7704 12.3278 47.3769C12.3278 27.9834 28.0496 12.2624 47.443 12.2624C66.8365 12.2624 82.5583 27.9842 82.5583 47.3777C82.5583 66.7712 66.8365 82.493 47.443 82.493V82.4922Z" fill="#000050"/>
<path d="M41.3115 40.7554V49.6816H39.5495V42.7866L37.4326 43.4596V42.0708L41.1218 40.7554H41.3115ZM47.9481 45.1665V46.5492H44.4914V45.1665H47.9481ZM55.6248 48.3051V49.6816H49.5312V48.507L52.4128 45.4174C52.7024 45.0951 52.9308 44.8117 53.0981 44.567C53.2653 44.3182 53.3856 44.0959 53.459 43.9001C53.5365 43.7002 53.5753 43.5106 53.5753 43.3311C53.5753 43.0619 53.5304 42.8315 53.4407 42.6398C53.3509 42.444 53.2184 42.2931 53.043 42.187C52.8717 42.081 52.6596 42.028 52.4067 42.028C52.1375 42.028 51.905 42.0932 51.7093 42.2237C51.5176 42.3543 51.3707 42.5358 51.2688 42.7682C51.1709 43.0007 51.1219 43.2638 51.1219 43.5575H49.3538C49.3538 43.0272 49.4803 42.5419 49.7331 42.1014C49.986 41.6568 50.3429 41.304 50.8038 41.043C51.2647 40.7778 51.8112 40.6453 52.4434 40.6453C53.0675 40.6453 53.5936 40.7473 54.0219 40.9512C54.4542 41.151 54.7805 41.4406 55.0008 41.82C55.2251 42.1952 55.3373 42.6438 55.3373 43.1659C55.3373 43.4596 55.2904 43.7471 55.1965 44.0286C55.1027 44.3059 54.9681 44.5833 54.7928 44.8606C54.6215 45.1339 54.4134 45.4112 54.1687 45.6927C53.924 45.9741 53.6528 46.2657 53.355 46.5676L51.8072 48.3051H55.6248Z" fill="#000050"/>
<path d="M36.8776 58.5957L36.3617 55.4368H37.2661L37.4635 56.9016C37.4847 57.0587 37.5017 57.2137 37.5145 57.3665C37.5272 57.5194 37.5442 57.6765 37.5654 57.8378H37.5845C37.6057 57.6765 37.627 57.5173 37.6482 57.3602C37.6694 57.2031 37.697 57.0502 37.731 56.9016L37.9284 55.8572H38.6099L38.8137 56.9016C38.8476 57.0587 38.8774 57.2137 38.9028 57.3665C38.9283 57.5194 38.9517 57.6765 38.9729 57.8378H38.9984C39.0196 57.6765 39.0345 57.5194 39.0429 57.3665C39.0557 57.2137 39.0705 57.0587 39.0875 56.9016L39.2659 55.4368H40.132L39.648 58.5957H38.5462L38.3742 57.5703C38.353 57.4345 38.3339 57.2901 38.3169 57.1373C38.2999 56.9844 38.2808 56.8167 38.2596 56.6341H38.2341C38.2214 56.77 38.2065 56.9101 38.1895 57.0545C38.1726 57.1988 38.1513 57.3708 38.1259 57.5703L37.9603 58.5957H36.8776ZM42.4449 58.6721C42.1986 58.6721 41.9672 58.636 41.7507 58.5639C41.5384 58.4874 41.3537 58.3792 41.1966 58.2391C41.0395 58.0989 40.9164 57.927 40.8272 57.7232C40.7381 57.5151 40.6935 57.2795 40.6935 57.0163C40.6935 56.7573 40.7381 56.5259 40.8272 56.3221C40.9206 56.114 41.0438 55.9399 41.1966 55.7998C41.3495 55.6555 41.5235 55.5472 41.7188 55.475C41.9184 55.3986 42.1243 55.3604 42.3366 55.3604C42.5786 55.3604 42.793 55.3986 42.9798 55.475C43.1667 55.5515 43.3216 55.6576 43.4448 55.7935C43.5721 55.9293 43.6677 56.0907 43.7314 56.2775C43.795 56.4601 43.8269 56.6596 43.8269 56.8761C43.8269 56.9611 43.8205 57.0439 43.8078 57.1245C43.7993 57.201 43.7908 57.2583 43.7823 57.2965H41.6297C41.6764 57.5258 41.7804 57.6935 41.9417 57.7996C42.1031 57.9058 42.3133 57.9588 42.5723 57.9588C42.7166 57.9588 42.8525 57.9397 42.9798 57.9015C43.1115 57.8633 43.2473 57.8081 43.3874 57.7359L43.6995 58.3027C43.5169 58.4174 43.3153 58.5087 43.0945 58.5766C42.8737 58.6403 42.6572 58.6721 42.4449 58.6721ZM42.3685 56.0737C42.1816 56.0737 42.0245 56.1225 41.8972 56.2202C41.774 56.3178 41.6891 56.4664 41.6424 56.666H42.9926C42.9459 56.2711 42.7378 56.0737 42.3685 56.0737ZM46.4518 58.6721C46.2056 58.6721 45.9742 58.636 45.7576 58.5639C45.5454 58.4874 45.3607 58.3792 45.2036 58.2391C45.0465 58.0989 44.9233 57.927 44.8342 57.7232C44.745 57.5151 44.7004 57.2795 44.7004 57.0163C44.7004 56.7573 44.745 56.5259 44.8342 56.3221C44.9276 56.114 45.0507 55.9399 45.2036 55.7998C45.3564 55.6555 45.5305 55.5472 45.7258 55.475C45.9254 55.3986 46.1313 55.3604 46.3436 55.3604C46.5856 55.3604 46.8 55.3986 46.9868 55.475C47.1736 55.5515 47.3286 55.6576 47.4517 55.7935C47.5791 55.9293 47.6746 56.0907 47.7383 56.2775C47.802 56.4601 47.8338 56.6596 47.8338 56.8761C47.8338 56.9611 47.8275 57.0439 47.8147 57.1245C47.8062 57.201 47.7978 57.2583 47.7893 57.2965H45.6366C45.6833 57.5258 45.7874 57.6935 45.9487 57.7996C46.11 57.9058 46.3202 57.9588 46.5792 57.9588C46.7236 57.9588 46.8594 57.9397 46.9868 57.9015C47.1184 57.8633 47.2543 57.8081 47.3944 57.7359L47.7065 58.3027C47.5239 58.4174 47.3222 58.5087 47.1014 58.5766C46.8807 58.6403 46.6641 58.6721 46.4518 58.6721ZM46.3754 56.0737C46.1886 56.0737 46.0315 56.1225 45.9041 56.2202C45.781 56.3178 45.6961 56.4664 45.6494 56.666H46.9995C46.9528 56.2711 46.7448 56.0737 46.3754 56.0737ZM48.8411 58.5957V54.1312H49.7773V56.7106H49.8028L50.9619 55.4368H51.9873L50.7836 56.7233L52.0828 58.5957H51.0702L50.2423 57.3029L49.7773 57.7996V58.5957H48.8411ZM54.2492 58.6721C53.9647 58.6721 53.6866 58.6254 53.4149 58.532C53.1432 58.4386 52.9054 58.324 52.7016 58.1881L53.1028 57.6022C53.2981 57.7253 53.5019 57.8187 53.7142 57.8824C53.9265 57.9461 54.1473 57.9779 54.3766 57.9779C54.5507 57.9779 54.678 57.9525 54.7587 57.9015C54.8394 57.8506 54.8797 57.7869 54.8797 57.7105C54.8797 57.668 54.867 57.6298 54.8415 57.5958C54.8203 57.5618 54.7799 57.5321 54.7205 57.5067C54.6653 57.4769 54.5868 57.4493 54.4849 57.4239C54.383 57.3984 54.2556 57.3687 54.1027 57.3347C53.6739 57.2413 53.3661 57.116 53.1793 56.9589C52.9925 56.7976 52.899 56.5938 52.899 56.3475C52.899 56.2032 52.933 56.0694 53.0009 55.9463C53.0689 55.8232 53.1644 55.7192 53.2875 55.6342C53.4149 55.5493 53.5678 55.4835 53.7461 55.4368C53.9244 55.3859 54.1261 55.3604 54.3511 55.3604C54.6356 55.3604 54.8925 55.4071 55.1217 55.5005C55.3552 55.5897 55.5548 55.6873 55.7204 55.7935L55.3 56.3539C55.1387 56.2563 54.971 56.182 54.7969 56.131C54.6228 56.0801 54.4466 56.0546 54.2683 56.0546C54.1197 56.0546 54.0093 56.0779 53.9371 56.1246C53.865 56.1713 53.8289 56.2308 53.8289 56.303C53.8289 56.3921 53.8841 56.4558 53.9945 56.494C54.1049 56.5322 54.2938 56.5811 54.5613 56.6405C54.8033 56.6957 55.005 56.7551 55.1663 56.8188C55.3276 56.8825 55.455 56.9547 55.5484 57.0354C55.6418 57.116 55.7076 57.2073 55.7459 57.3092C55.7841 57.4111 55.8032 57.5258 55.8032 57.6531C55.8032 57.7975 55.7692 57.9312 55.7013 58.0544C55.6333 58.1775 55.5336 58.2858 55.4019 58.3792C55.2746 58.4683 55.1132 58.5405 54.9179 58.5957C54.7269 58.6467 54.504 58.6721 54.2492 58.6721Z" fill="#000050"/>
<path d="M36.8776 58.5957L36.3617 55.4368H37.2661L37.4635 56.9016C37.4847 57.0587 37.5017 57.2137 37.5145 57.3665C37.5272 57.5194 37.5442 57.6765 37.5654 57.8378H37.5845C37.6057 57.6765 37.627 57.5173 37.6482 57.3602C37.6694 57.2031 37.697 57.0502 37.731 56.9016L37.9284 55.8572H38.6099L38.8137 56.9016C38.8476 57.0587 38.8774 57.2137 38.9028 57.3665C38.9283 57.5194 38.9517 57.6765 38.9729 57.8378H38.9984C39.0196 57.6765 39.0345 57.5194 39.0429 57.3665C39.0557 57.2137 39.0705 57.0587 39.0875 56.9016L39.2659 55.4368H40.132L39.648 58.5957H38.5462L38.3742 57.5703C38.353 57.4345 38.3339 57.2901 38.3169 57.1373C38.2999 56.9844 38.2808 56.8167 38.2596 56.6341H38.2341C38.2214 56.77 38.2065 56.9101 38.1895 57.0545C38.1726 57.1988 38.1513 57.3708 38.1259 57.5703L37.9603 58.5957H36.8776ZM42.4449 58.6721C42.1986 58.6721 41.9672 58.636 41.7507 58.5639C41.5384 58.4874 41.3537 58.3792 41.1966 58.2391C41.0395 58.0989 40.9164 57.927 40.8272 57.7232C40.7381 57.5151 40.6935 57.2795 40.6935 57.0163C40.6935 56.7573 40.7381 56.5259 40.8272 56.3221C40.9206 56.114 41.0438 55.9399 41.1966 55.7998C41.3495 55.6555 41.5235 55.5472 41.7188 55.475C41.9184 55.3986 42.1243 55.3604 42.3366 55.3604C42.5786 55.3604 42.793 55.3986 42.9798 55.475C43.1667 55.5515 43.3216 55.6576 43.4448 55.7935C43.5721 55.9293 43.6677 56.0907 43.7314 56.2775C43.795 56.4601 43.8269 56.6596 43.8269 56.8761C43.8269 56.9611 43.8205 57.0439 43.8078 57.1245C43.7993 57.201 43.7908 57.2583 43.7823 57.2965H41.6297C41.6764 57.5258 41.7804 57.6935 41.9417 57.7996C42.1031 57.9058 42.3133 57.9588 42.5723 57.9588C42.7166 57.9588 42.8525 57.9397 42.9798 57.9015C43.1115 57.8633 43.2473 57.8081 43.3874 57.7359L43.6995 58.3027C43.5169 58.4174 43.3153 58.5087 43.0945 58.5766C42.8737 58.6403 42.6572 58.6721 42.4449 58.6721ZM42.3685 56.0737C42.1816 56.0737 42.0245 56.1225 41.8972 56.2202C41.774 56.3178 41.6891 56.4664 41.6424 56.666H42.9926C42.9459 56.2711 42.7378 56.0737 42.3685 56.0737ZM46.4518 58.6721C46.2056 58.6721 45.9742 58.636 45.7576 58.5639C45.5454 58.4874 45.3607 58.3792 45.2036 58.2391C45.0465 58.0989 44.9233 57.927 44.8342 57.7232C44.745 57.5151 44.7004 57.2795 44.7004 57.0163C44.7004 56.7573 44.745 56.5259 44.8342 56.3221C44.9276 56.114 45.0507 55.9399 45.2036 55.7998C45.3564 55.6555 45.5305 55.5472 45.7258 55.475C45.9254 55.3986 46.1313 55.3604 46.3436 55.3604C46.5856 55.3604 46.8 55.3986 46.9868 55.475C47.1736 55.5515 47.3286 55.6576 47.4517 55.7935C47.5791 55.9293 47.6746 56.0907 47.7383 56.2775C47.802 56.4601 47.8338 56.6596 47.8338 56.8761C47.8338 56.9611 47.8275 57.0439 47.8147 57.1245C47.8062 57.201 47.7978 57.2583 47.7893 57.2965H45.6366C45.6833 57.5258 45.7874 57.6935 45.9487 57.7996C46.11 57.9058 46.3202 57.9588 46.5792 57.9588C46.7236 57.9588 46.8594 57.9397 46.9868 57.9015C47.1184 57.8633 47.2543 57.8081 47.3944 57.7359L47.7065 58.3027C47.5239 58.4174 47.3222 58.5087 47.1014 58.5766C46.8807 58.6403 46.6641 58.6721 46.4518 58.6721ZM46.3754 56.0737C46.1886 56.0737 46.0315 56.1225 45.9041 56.2202C45.781 56.3178 45.6961 56.4664 45.6494 56.666H46.9995C46.9528 56.2711 46.7448 56.0737 46.3754 56.0737ZM48.8411 58.5957V54.1312H49.7773V56.7106H49.8028L50.9619 55.4368H51.9873L50.7836 56.7233L52.0828 58.5957H51.0702L50.2423 57.3029L49.7773 57.7996V58.5957H48.8411ZM54.2492 58.6721C53.9647 58.6721 53.6866 58.6254 53.4149 58.532C53.1432 58.4386 52.9054 58.324 52.7016 58.1881L53.1028 57.6022C53.2981 57.7253 53.5019 57.8187 53.7142 57.8824C53.9265 57.9461 54.1473 57.9779 54.3766 57.9779C54.5507 57.9779 54.678 57.9525 54.7587 57.9015C54.8394 57.8506 54.8797 57.7869 54.8797 57.7105C54.8797 57.668 54.867 57.6298 54.8415 57.5958C54.8203 57.5618 54.7799 57.5321 54.7205 57.5067C54.6653 57.4769 54.5868 57.4493 54.4849 57.4239C54.383 57.3984 54.2556 57.3687 54.1027 57.3347C53.6739 57.2413 53.3661 57.116 53.1793 56.9589C52.9925 56.7976 52.899 56.5938 52.899 56.3475C52.899 56.2032 52.933 56.0694 53.0009 55.9463C53.0689 55.8232 53.1644 55.7192 53.2875 55.6342C53.4149 55.5493 53.5678 55.4835 53.7461 55.4368C53.9244 55.3859 54.1261 55.3604 54.3511 55.3604C54.6356 55.3604 54.8925 55.4071 55.1217 55.5005C55.3552 55.5897 55.5548 55.6873 55.7204 55.7935L55.3 56.3539C55.1387 56.2563 54.971 56.182 54.7969 56.131C54.6228 56.0801 54.4466 56.0546 54.2683 56.0546C54.1197 56.0546 54.0093 56.0779 53.9371 56.1246C53.865 56.1713 53.8289 56.2308 53.8289 56.303C53.8289 56.3921 53.8841 56.4558 53.9945 56.494C54.1049 56.5322 54.2938 56.5811 54.5613 56.6405C54.8033 56.6957 55.005 56.7551 55.1663 56.8188C55.3276 56.8825 55.455 56.9547 55.5484 57.0354C55.6418 57.116 55.7076 57.2073 55.7459 57.3092C55.7841 57.4111 55.8032 57.5258 55.8032 57.6531C55.8032 57.7975 55.7692 57.9312 55.7013 58.0544C55.6333 58.1775 55.5336 58.2858 55.4019 58.3792C55.2746 58.4683 55.1132 58.5405 54.9179 58.5957C54.7269 58.6467 54.504 58.6721 54.2492 58.6721Z" fill="#000050"/>
<path d="M31.8814 35.0645L31.3273 30.9121H32.3018L32.4291 33.122C32.4334 33.3003 32.4355 33.4723 32.4355 33.6379C32.4397 33.7992 32.444 33.9754 32.4482 34.1665H32.4737C32.5034 33.9754 32.5353 33.7992 32.5692 33.6379C32.6075 33.4723 32.6435 33.3003 32.6775 33.122L32.9577 31.9629H33.5564L33.8175 33.122C33.8515 33.2961 33.8854 33.4659 33.9194 33.6315C33.9534 33.7971 33.9873 33.9754 34.0213 34.1665H34.0468C34.051 33.9754 34.0532 33.7971 34.0532 33.6315C34.0574 33.4659 34.0638 33.2961 34.0723 33.122L34.1869 30.9121H35.0976L34.5881 35.0645H33.5819L33.3399 33.778C33.3144 33.6464 33.291 33.5126 33.2698 33.3767C33.2486 33.2409 33.2337 33.1114 33.2252 32.9883H33.2061C33.1934 33.1114 33.1785 33.2409 33.1615 33.3767C33.1446 33.5126 33.1233 33.6464 33.0979 33.778L32.8558 35.0645H31.8814ZM36.8628 32.9628L36.7673 33.3449H37.6398L37.5442 32.9628C37.4891 32.7547 37.4317 32.5361 37.3723 32.3068C37.3129 32.0733 37.2598 31.8461 37.2131 31.6253H37.1876C37.1367 31.8461 37.0836 32.0733 37.0284 32.3068C36.9732 32.5361 36.918 32.7547 36.8628 32.9628ZM35.3661 35.0645L36.659 30.9121H37.7799L39.0727 35.0645H38.0792L37.8308 34.0773H36.5762L36.3215 35.0645H35.3661ZM39.7871 35.0645V34.2747H40.7551V31.7018H39.7871V30.9121H42.6657V31.7018H41.6977V34.2747H42.6657V35.0645H39.7871ZM44.7621 35.0645V31.7018H43.5202V30.9121H46.9465V31.7018H45.7046V35.0645H44.7621ZM48.0111 35.0645V30.9121H48.9474V34.2747H50.7943V35.0645H48.0111ZM51.8079 35.0645V34.2747H52.776V31.7018H51.8079V30.9121H54.6866V31.7018H53.7186V34.2747H54.6866V35.0645H51.8079ZM57.2415 35.1409C56.9613 35.1409 56.6832 35.0921 56.4072 34.9944C56.1355 34.8925 55.8871 34.7418 55.662 34.5422L56.2034 33.899C56.3605 34.0264 56.5324 34.1304 56.7193 34.211C56.9061 34.2917 57.1014 34.3321 57.3052 34.3321C57.509 34.3321 57.6576 34.2981 57.751 34.2302C57.8444 34.1622 57.8911 34.0752 57.8911 33.969C57.8911 33.8969 57.8762 33.8374 57.8465 33.7907C57.8168 33.7398 57.7743 33.6952 57.7191 33.657C57.6639 33.6188 57.596 33.5827 57.5153 33.5487C57.4347 33.5147 57.3455 33.4765 57.2479 33.4341L56.7129 33.2048C56.5982 33.1623 56.4857 33.1071 56.3753 33.0392C56.2692 32.9713 56.1758 32.8927 56.0951 32.8036C56.0145 32.7102 55.9486 32.604 55.8977 32.4851C55.851 32.362 55.8276 32.224 55.8276 32.0712C55.8276 31.9013 55.8637 31.7421 55.9359 31.5935C56.0123 31.4407 56.1164 31.309 56.248 31.1986C56.3838 31.084 56.5452 30.9948 56.732 30.9312C56.9188 30.8675 57.1247 30.8356 57.3498 30.8356C57.6045 30.8356 57.8508 30.8823 58.0885 30.9757C58.3263 31.0691 58.5407 31.205 58.7318 31.3833L58.2541 31.9756C58.1098 31.8695 57.9654 31.7888 57.821 31.7336C57.6767 31.6742 57.5026 31.6445 57.2988 31.6445C57.1417 31.6445 57.0143 31.6763 56.9167 31.74C56.8233 31.8037 56.7766 31.8971 56.7766 32.0202C56.7766 32.1433 56.8381 32.2389 56.9613 32.3068C57.0886 32.3705 57.2542 32.4384 57.458 32.5106L57.9612 32.7271C58.2371 32.829 58.4537 32.9691 58.6108 33.1475C58.7721 33.3258 58.8528 33.5614 58.8528 33.8544C58.8528 34.0285 58.8167 34.1941 58.7445 34.3512C58.6723 34.504 58.5683 34.6399 58.4324 34.7588C58.2966 34.8734 58.1289 34.9668 57.9293 35.039C57.7298 35.1069 57.5005 35.1409 57.2415 35.1409ZM60.7899 35.0645V31.7018H59.548V30.9121H62.9744V31.7018H61.7325V35.0645H60.7899Z" fill="#000050"/>
</svg>
