<svg width="359" height="357" viewBox="0 0 359 357" fill="none" xmlns="http://www.w3.org/2000/svg">
<path d="M33.4834 351.09H329.178C342.658 351.09 353.529 339.757 353.964 326.245V64.1469V29.8452C353.964 15.897 342.658 5 329.178 5H33.4834C19.5684 5 8.69727 16.3329 8.69727 29.8452" stroke="#17154D" stroke-width="10" stroke-linecap="round" stroke-linejoin="round"/>
<path d="M293.519 40.7422H68.7041C54.7891 40.7422 43.918 52.0751 43.918 65.5874V290.502C43.918 304.45 55.2239 315.347 68.7041 315.347H293.519C306.999 315.347 318.305 304.45 318.305 290.938" stroke="#17154D" stroke-width="10" stroke-linecap="round" stroke-linejoin="round"/>
<path d="M182.393 282.83C240.957 282.83 288.434 235.829 288.434 177.85C288.434 119.871 240.957 72.8691 182.393 72.8691C123.828 72.8691 76.3516 119.871 76.3516 177.85C76.3516 235.829 123.828 282.83 182.393 282.83Z" fill="#17154D"/>
<path d="M182.202 115.28L173.939 101.768H190.898L182.202 115.28Z" fill="#B4F0FF"/>
<path d="M297.983 30.0358L289.721 16.5234H306.68L297.983 30.0358Z" fill="#17154D"/>
<path d="M31.9066 340.489L23.6445 326.977H40.6035L31.9066 340.489Z" fill="#17154D"/>
<path d="M318.498 280.385L310.236 266.873H327.195L318.498 280.385Z" fill="#17154D"/>
<path d="M8.26205 54.3307L0 40.8184H16.9589L8.26205 54.3307Z" fill="#17154D"/>
<path d="M184.373 134.023H180.459V143.177H184.373V134.023Z" fill="#B4F0FF"/>
<path d="M158.166 141.001L155 143.307L160.367 150.712L163.534 148.406L158.166 141.001Z" fill="#B4F0FF"/>
<path d="M141.149 162.826L139.939 166.557L148.624 169.385L149.834 165.654L141.149 162.826Z" fill="#B4F0FF"/>
<path d="M148.812 187.103L140.127 189.93L141.336 193.661L150.021 190.834L148.812 187.103Z" fill="#B4F0FF"/>
<path d="M160.345 205.113L154.977 212.518L158.142 214.824L163.511 207.42L160.345 205.113Z" fill="#B4F0FF"/>
<path d="M184.373 213.354H180.459V222.507H184.373V213.354Z" fill="#B4F0FF"/>
<path d="M204.588 205.706L201.422 208.012L206.789 215.417L209.956 213.111L204.588 205.706Z" fill="#B4F0FF"/>
<path d="M216.323 187.335L215.113 191.066L223.798 193.895L225.007 190.164L216.323 187.335Z" fill="#B4F0FF"/>
<path d="M224.011 162.692L215.326 165.52L216.535 169.251L225.22 166.424L224.011 162.692Z" fill="#B4F0FF"/>
<path d="M206.83 140.965L201.461 148.369L204.627 150.676L209.996 143.271L206.83 140.965Z" fill="#B4F0FF"/>
</svg>
