<svg width="312" height="487" viewBox="0 0 312 487" fill="none" xmlns="http://www.w3.org/2000/svg">
<circle cx="77.7197" cy="335.526" r="77.7197" fill="#003371"/>
<path d="M116.873 297.138C115.734 296.003 114.381 295.103 112.893 294.489C111.405 293.875 109.81 293.559 108.199 293.559C106.588 293.559 104.993 293.875 103.505 294.489C102.016 295.103 100.664 296.003 99.526 297.138L69.6562 326.889C68.517 328.023 67.6133 329.37 66.9967 330.852C66.3801 332.334 66.0625 333.923 66.0625 335.527C66.0625 337.132 66.3801 338.721 66.9967 340.203C67.6133 341.685 68.517 343.032 69.6562 344.166L99.526 373.917C100.664 375.052 102.016 375.952 103.505 376.566C104.993 377.18 106.588 377.496 108.199 377.496C109.81 377.496 111.405 377.18 112.893 376.566C114.381 375.952 115.734 375.052 116.873 373.917C118.012 372.783 118.916 371.436 119.532 369.954C120.148 368.471 120.466 366.883 120.466 365.278C120.466 363.673 120.148 362.085 119.532 360.603C118.916 359.12 118.012 357.773 116.873 356.639L98.5586 338.412C98.1771 338.033 97.8744 337.584 97.6686 337.089C97.4619 336.594 97.3561 336.063 97.3561 335.527C97.3561 334.992 97.4619 334.461 97.6686 333.966C97.8744 333.471 98.1771 333.022 98.5586 332.643L116.873 314.416C118.012 313.281 118.916 311.934 119.532 310.452C120.148 308.97 120.466 307.381 120.466 305.777C120.466 304.172 120.148 302.583 119.532 301.101C118.916 299.619 118.012 298.272 116.873 297.138Z" fill="#04795B"/>
<path d="M99.5282 373.903C104.318 378.693 112.084 378.693 116.874 373.903C121.664 369.114 121.664 361.347 116.874 356.558L87.0008 326.684C82.2108 321.894 74.4448 321.894 69.6549 326.684C64.865 331.474 64.865 339.24 69.6549 344.03L99.5282 373.903Z" fill="#0DB50A"/>
<path d="M87.2887 326.889L56.9918 297.138C55.8367 296.003 54.4652 295.103 52.9557 294.489C51.4462 293.875 49.8283 293.559 48.1945 293.559C46.5605 293.559 44.9423 293.875 43.4328 294.489C41.9234 295.103 40.5518 296.003 39.3967 297.138C38.2412 298.272 37.3246 299.619 36.6992 301.101C36.0738 302.583 35.752 304.172 35.752 305.777C35.752 307.381 36.0738 308.97 36.6992 310.452C37.3246 311.934 38.2412 313.281 39.3967 314.416L57.9593 332.643C58.3459 333.022 58.6523 333.471 58.8616 333.966C59.0709 334.461 59.1788 334.992 59.1788 335.527C59.1788 336.063 59.0709 336.594 58.8616 337.089C58.6523 337.584 58.3459 338.033 57.9593 338.412L39.3967 356.639C38.2412 357.773 37.3246 359.12 36.6992 360.603C36.0738 362.085 35.752 363.673 35.752 365.278C35.752 366.883 36.0738 368.471 36.6992 369.954C37.3246 371.436 38.2412 372.783 39.3967 373.917C40.5518 375.052 41.9234 375.952 43.4328 376.566C44.9423 377.18 46.5605 377.496 48.1945 377.496C49.8283 377.496 51.4462 377.18 52.9557 376.566C54.4652 375.952 55.8367 375.052 56.9918 373.917L78.4841 352.799L87.2887 344.166C88.4441 343.032 89.3609 341.685 89.9864 340.203C90.6111 338.721 90.933 337.132 90.933 335.527C90.933 333.923 90.6111 332.334 89.9864 330.852C89.3609 329.37 88.4441 328.023 87.2887 326.889Z" fill="#0AE33A"/>
<path d="M108.42 317.652C115.073 317.652 120.466 312.258 120.466 305.605C120.466 298.952 115.073 293.559 108.42 293.559C101.767 293.559 96.373 298.952 96.373 305.605C96.373 312.258 101.767 317.652 108.42 317.652Z" fill="#0AE33A"/>
<path d="M76.762 249.591C119.157 249.591 153.524 215.275 153.524 172.944C153.524 130.613 119.157 96.2969 76.762 96.2969C34.3675 96.2969 0 130.613 0 172.944C0 215.275 34.3675 249.591 76.762 249.591Z" fill="#FFFFA0"/>
<path d="M109.897 149.464C109.166 149.343 108.435 149.343 107.704 149.343C102.221 149.343 96.8596 151.532 91.9858 155.912C89.6708 157.859 87.5994 160.292 85.6499 163.09C85.2844 152.627 84.6751 141.556 83.7004 130.363H69.5664C72.6125 162.239 72.247 189.978 71.7596 214.31V214.432H85.7717C86.1373 189.978 92.3513 174.405 101.368 166.375C103.805 164.185 106.12 163.212 108.435 163.455C119.523 164.672 117.817 199.224 116.964 214.553H130.976C131.585 203.239 132.194 189.491 130.611 177.568C128.295 160.17 121.35 150.802 109.897 149.464Z" fill="url(#paint0_linear_0_1)"/>
<path d="M20.2227 130.604H30.7013L32.8945 147.393C33.3819 150.921 33.6255 154.449 34.1129 158.099H34.3566C34.7221 154.449 35.3314 150.799 36.0624 147.393L38.3775 135.47H46.1755L48.4906 147.393C49.2216 150.921 49.8309 154.449 50.3182 158.099H50.5619C51.0493 154.449 51.1712 150.921 51.5367 147.393L53.608 130.604H63.5993L57.9944 166.859H45.4445L43.495 155.058C43.0076 151.894 42.642 148.488 42.1547 144.351H41.911C41.5454 147.393 41.3018 150.556 40.6925 155.058L38.743 166.859H26.3149L20.2227 130.604Z" fill="#414141"/>
<path d="M35.2152 195.445L23.5182 178.047H35.0934L38.8706 183.887C39.9672 185.955 41.4293 188.023 42.6478 190.091H42.8915C43.8662 188.145 44.9628 185.955 45.9376 183.887L49.1055 178.047H60.3152L48.4963 196.661L61.0463 214.302H49.4711L45.3283 208.341C43.9881 206.272 42.5259 204.082 41.1856 202.014H40.9419C39.8453 204.082 38.6269 206.151 37.5303 208.341L33.9968 214.302H22.7871L35.2152 195.445Z" fill="#414141"/>
<path d="M76.762 249.824C119.157 249.824 153.524 215.456 153.524 173.061C153.524 130.665 119.157 96.2969 76.762 96.2969C34.3675 96.2969 0 130.665 0 173.061C0 215.456 34.3675 249.824 76.762 249.824Z" fill="#FFFFA0"/>
<path d="M109.897 149.464C109.166 149.343 108.435 149.343 107.704 149.343C102.221 149.343 96.8596 151.532 91.9858 155.912C89.6708 157.859 87.5994 160.292 85.6499 163.09C85.2844 152.627 84.6751 141.556 83.7004 130.363H69.5664C72.6125 162.239 72.247 189.978 71.7596 214.31V214.432H85.7717C86.1373 189.978 92.3513 174.405 101.368 166.375C103.805 164.185 106.12 163.212 108.435 163.455C119.523 164.672 117.817 199.224 116.964 214.553H130.976C131.585 203.239 132.194 189.491 130.611 177.568C128.295 160.17 121.35 150.802 109.897 149.464Z" fill="url(#paint1_linear_0_1)"/>
<path d="M20.2227 130.604H30.7013L32.8945 147.393C33.3819 150.921 33.6255 154.449 34.1129 158.099H34.3566C34.7221 154.449 35.3314 150.799 36.0624 147.393L38.3775 135.47H46.1755L48.4906 147.393C49.2216 150.921 49.8309 154.449 50.3182 158.099H50.5619C51.0493 154.449 51.1712 150.921 51.5367 147.393L53.608 130.604H63.5993L57.9944 166.859H45.4445L43.495 155.058C43.0076 151.894 42.642 148.488 42.1547 144.351H41.911C41.5454 147.393 41.3018 150.556 40.6925 155.058L38.743 166.859H26.3149L20.2227 130.604Z" fill="#414141"/>
<path d="M35.2152 195.445L23.5182 178.047H35.0934L38.8706 183.887C39.9672 185.955 41.4293 188.023 42.6478 190.091H42.8915C43.8662 188.145 44.9628 185.955 45.9376 183.887L49.1055 178.047H60.3152L48.4963 196.661L61.0463 214.302H49.4711L45.3283 208.341C43.9881 206.272 42.5259 204.082 41.1856 202.014H40.9419C39.8453 204.082 38.6269 206.151 37.5303 208.341L33.9968 214.302H22.7871L35.2152 195.445Z" fill="#414141"/>
<circle cx="223.005" cy="409.917" r="69.0132" fill="#E8F6FA"/>
<path d="M222.028 333C179.634 333 145.266 367.368 145.266 409.763C145.266 452.158 179.634 486.526 222.028 486.526C264.423 486.526 298.791 452.158 298.791 409.763C298.791 367.368 264.423 333 222.028 333ZM222.028 476.102C185.389 476.102 155.687 446.4 155.687 409.761C155.687 373.122 185.389 343.422 222.028 343.422C258.667 343.422 288.37 373.124 288.37 409.763C288.37 446.402 258.667 476.104 222.028 476.104V476.102Z" fill="#000050"/>
<path d="M180.961 419V403.352H184.585L187.873 411.128L189.217 414.584H189.313C189.233 413.752 189.129 412.832 189.001 411.824C188.873 410.8 188.809 409.824 188.809 408.896V403.352H192.193V419H188.569L185.281 411.2L183.937 407.792H183.841C183.921 408.656 184.025 409.584 184.153 410.576C184.281 411.568 184.345 412.528 184.345 413.456V419H180.961ZM195.628 419V403.352H201.172C202.004 403.352 202.78 403.432 203.5 403.592C204.236 403.752 204.876 404.024 205.42 404.408C205.98 404.776 206.42 405.272 206.74 405.896C207.06 406.52 207.22 407.296 207.22 408.224C207.22 409.376 206.964 410.328 206.452 411.08C205.94 411.816 205.268 412.368 204.436 412.736L207.964 419H204.004L201.004 413.36H199.156V419H195.628ZM199.156 410.552H200.884C202.788 410.552 203.74 409.776 203.74 408.224C203.74 407.456 203.5 406.92 203.02 406.616C202.54 406.312 201.828 406.16 200.884 406.16H199.156V410.552ZM224.674 419V403.352H228.298L231.586 411.128L232.93 414.584H233.026C232.946 413.752 232.842 412.832 232.714 411.824C232.586 410.8 232.522 409.824 232.522 408.896V403.352H235.906V419H232.282L228.994 411.2L227.65 407.792H227.554C227.634 408.656 227.738 409.584 227.866 410.576C227.994 411.568 228.058 412.528 228.058 413.456V419H224.674ZM240.181 419V403.352H250.573V406.328H243.709V409.952H249.565V412.928H243.709V419H240.181ZM257.656 419V406.328H252.976V403.352H265.888V406.328H261.208V419H257.656Z" fill="#000050"/>
<path d="M190.916 435.148C190.132 434.452 189.512 433.648 189.056 432.736C188.608 431.824 188.384 430.8 188.384 429.664C188.384 428.528 188.608 427.504 189.056 426.592C189.512 425.68 190.132 424.876 190.916 424.18L191.9 424.96C191.188 425.656 190.668 426.38 190.34 427.132C190.02 427.876 189.86 428.72 189.86 429.664C189.86 430.136 189.9 430.584 189.98 431.008C190.06 431.424 190.18 431.824 190.34 432.208C190.508 432.592 190.72 432.96 190.976 433.312C191.232 433.672 191.54 434.024 191.9 434.368L190.916 435.148ZM197.188 433.144C196.796 433.144 196.416 433.076 196.048 432.94C195.688 432.796 195.364 432.592 195.076 432.328C194.796 432.064 194.572 431.74 194.404 431.356C194.236 430.964 194.152 430.52 194.152 430.024C194.152 429.528 194.236 429.088 194.404 428.704C194.572 428.312 194.796 427.984 195.076 427.72C195.364 427.456 195.688 427.256 196.048 427.12C196.416 426.976 196.796 426.904 197.188 426.904C197.58 426.904 197.956 426.976 198.316 427.12C198.684 427.256 199.008 427.456 199.288 427.72C199.576 427.984 199.804 428.312 199.972 428.704C200.14 429.088 200.224 429.528 200.224 430.024C200.224 430.52 200.14 430.964 199.972 431.356C199.804 431.74 199.576 432.064 199.288 432.328C199.008 432.592 198.684 432.796 198.316 432.94C197.956 433.076 197.58 433.144 197.188 433.144ZM197.188 431.716C197.596 431.716 197.9 431.564 198.1 431.26C198.308 430.956 198.412 430.544 198.412 430.024C198.412 429.504 198.308 429.092 198.1 428.788C197.9 428.484 197.596 428.332 197.188 428.332C196.78 428.332 196.472 428.484 196.264 428.788C196.064 429.092 195.964 429.504 195.964 430.024C195.964 430.544 196.064 430.956 196.264 431.26C196.472 431.564 196.78 431.716 197.188 431.716ZM201.827 435.208V427.048H203.267L203.399 427.648H203.435C203.675 427.432 203.951 427.256 204.263 427.12C204.575 426.976 204.891 426.904 205.211 426.904C205.579 426.904 205.911 426.976 206.207 427.12C206.503 427.264 206.755 427.468 206.963 427.732C207.171 427.996 207.327 428.316 207.431 428.692C207.543 429.06 207.599 429.472 207.599 429.928C207.599 430.44 207.527 430.896 207.383 431.296C207.239 431.688 207.047 432.024 206.807 432.304C206.567 432.576 206.291 432.784 205.979 432.928C205.675 433.072 205.355 433.144 205.019 433.144C204.475 433.144 203.987 432.928 203.555 432.496H203.507L203.591 433.468V435.208H201.827ZM204.611 431.704C204.947 431.704 205.227 431.568 205.451 431.296C205.675 431.016 205.787 430.568 205.787 429.952C205.787 428.88 205.423 428.344 204.695 428.344C204.319 428.344 203.951 428.528 203.591 428.896V431.308C203.759 431.452 203.931 431.556 204.107 431.62C204.291 431.676 204.459 431.704 204.611 431.704ZM212.995 433.144C212.523 433.144 212.123 433.08 211.795 432.952C211.467 432.824 211.199 432.648 210.991 432.424C210.791 432.192 210.647 431.916 210.559 431.596C210.471 431.276 210.427 430.92 210.427 430.528V428.428H208.927V427.12L210.511 427.048L210.739 425.224H212.191V427.048H214.711V428.428H212.191V430.516C212.191 430.972 212.291 431.296 212.491 431.488C212.691 431.672 213.011 431.764 213.451 431.764C213.675 431.764 213.879 431.744 214.063 431.704C214.255 431.664 214.443 431.612 214.627 431.548L214.939 432.82C214.675 432.9 214.383 432.972 214.063 433.036C213.751 433.108 213.395 433.144 212.995 433.144ZM219.051 433V428.428H216.663V427.048H220.815V433H219.051ZM219.855 426.112C219.511 426.112 219.227 426.016 219.003 425.824C218.787 425.632 218.679 425.372 218.679 425.044C218.679 424.716 218.787 424.452 219.003 424.252C219.227 424.044 219.511 423.94 219.855 423.94C220.199 423.94 220.479 424.044 220.695 424.252C220.919 424.452 221.031 424.716 221.031 425.044C221.031 425.372 220.919 425.632 220.695 425.824C220.479 426.016 220.199 426.112 219.855 426.112ZM226.69 433.144C226.298 433.144 225.918 433.076 225.55 432.94C225.19 432.796 224.866 432.592 224.578 432.328C224.298 432.064 224.074 431.74 223.906 431.356C223.738 430.964 223.654 430.52 223.654 430.024C223.654 429.528 223.738 429.088 223.906 428.704C224.074 428.312 224.298 427.984 224.578 427.72C224.866 427.456 225.19 427.256 225.55 427.12C225.918 426.976 226.298 426.904 226.69 426.904C227.082 426.904 227.458 426.976 227.818 427.12C228.186 427.256 228.51 427.456 228.79 427.72C229.078 427.984 229.306 428.312 229.474 428.704C229.642 429.088 229.726 429.528 229.726 430.024C229.726 430.52 229.642 430.964 229.474 431.356C229.306 431.74 229.078 432.064 228.79 432.328C228.51 432.592 228.186 432.796 227.818 432.94C227.458 433.076 227.082 433.144 226.69 433.144ZM226.69 431.716C227.098 431.716 227.402 431.564 227.602 431.26C227.81 430.956 227.914 430.544 227.914 430.024C227.914 429.504 227.81 429.092 227.602 428.788C227.402 428.484 227.098 428.332 226.69 428.332C226.282 428.332 225.974 428.484 225.766 428.788C225.566 429.092 225.466 429.504 225.466 430.024C225.466 430.544 225.566 430.956 225.766 431.26C225.974 431.564 226.282 431.716 226.69 431.716ZM231.33 433V427.048H232.77L232.902 427.84H232.95C233.206 427.584 233.498 427.364 233.826 427.18C234.162 426.996 234.554 426.904 235.002 426.904C235.674 426.904 236.166 427.12 236.478 427.552C236.79 427.984 236.946 428.576 236.946 429.328V433H235.182V429.556C235.182 429.156 235.118 428.864 234.99 428.68C234.862 428.496 234.634 428.404 234.306 428.404C234.066 428.404 233.854 428.456 233.67 428.56C233.494 428.664 233.302 428.82 233.094 429.028V433H231.33ZM240.529 433.144C240.225 433.144 239.953 433.096 239.713 433C239.473 432.912 239.269 432.788 239.101 432.628C238.933 432.46 238.801 432.268 238.705 432.052C238.617 431.836 238.573 431.6 238.573 431.344C238.573 431.008 238.645 430.716 238.789 430.468C238.933 430.212 239.161 429.996 239.473 429.82C239.793 429.644 240.201 429.504 240.697 429.4C241.193 429.288 241.793 429.212 242.497 429.172C242.465 428.9 242.345 428.688 242.137 428.536C241.937 428.384 241.633 428.308 241.225 428.308C240.937 428.308 240.645 428.36 240.349 428.464C240.061 428.56 239.749 428.692 239.413 428.86L238.789 427.708C239.197 427.476 239.633 427.284 240.097 427.132C240.569 426.98 241.061 426.904 241.573 426.904C242.405 426.904 243.061 427.124 243.541 427.564C244.021 428.004 244.261 428.68 244.261 429.592V433H242.821L242.689 432.328H242.641C242.337 432.56 242.005 432.756 241.645 432.916C241.285 433.068 240.913 433.144 240.529 433.144ZM241.093 431.776C241.357 431.776 241.605 431.724 241.837 431.62C242.069 431.508 242.289 431.372 242.497 431.212V430.228C242.057 430.252 241.693 430.292 241.405 430.348C241.117 430.404 240.889 430.476 240.721 430.564C240.553 430.644 240.433 430.74 240.361 430.852C240.297 430.964 240.265 431.084 240.265 431.212C240.265 431.404 240.337 431.548 240.481 431.644C240.633 431.732 240.837 431.776 241.093 431.776ZM249.957 433.144C249.205 433.144 248.637 432.924 248.253 432.484C247.877 432.036 247.689 431.432 247.689 430.672V425.98H245.817V424.588H249.453V430.744C249.453 430.928 249.477 431.084 249.525 431.212C249.581 431.332 249.653 431.432 249.741 431.512C249.837 431.584 249.941 431.636 250.053 431.668C250.173 431.7 250.297 431.716 250.425 431.716C250.561 431.716 250.701 431.704 250.845 431.68C250.997 431.648 251.165 431.596 251.349 431.524L251.745 432.82C251.585 432.868 251.437 432.912 251.301 432.952C251.165 432.992 251.029 433.024 250.893 433.048C250.757 433.08 250.613 433.104 250.461 433.12C250.309 433.136 250.141 433.144 249.957 433.144ZM255.088 435.148L254.104 434.368C254.464 434.024 254.772 433.672 255.028 433.312C255.284 432.96 255.492 432.592 255.652 432.208C255.82 431.824 255.944 431.424 256.024 431.008C256.104 430.584 256.144 430.136 256.144 429.664C256.144 428.72 255.98 427.876 255.652 427.132C255.332 426.38 254.816 425.656 254.104 424.96L255.088 424.18C255.872 424.876 256.488 425.68 256.936 426.592C257.392 427.504 257.62 428.528 257.62 429.664C257.62 430.8 257.392 431.824 256.936 432.736C256.488 433.648 255.872 434.452 255.088 435.148Z" fill="#000050"/>
<circle cx="223.728" cy="89.9819" r="69.0132" fill="#E8F6FA"/>
<path d="M221.632 42.6934C222.717 42.6934 223.6 41.8108 223.6 40.7256V28.253C223.6 27.1678 222.717 26.2852 221.632 26.2852C220.547 26.2852 219.664 27.1678 219.664 28.253V40.7256C219.664 41.8108 220.547 42.6934 221.632 42.6934Z" fill="#000050"/>
<path d="M172.714 87.875H160.249C159.164 87.875 158.281 88.7576 158.281 89.8428C158.281 90.928 159.164 91.8106 160.249 91.8106H172.714C173.799 91.8106 174.682 90.928 174.682 89.8428C174.682 88.7576 173.799 87.875 172.714 87.875Z" fill="#000050"/>
<path d="M221.839 136.834C220.754 136.834 219.871 137.717 219.871 138.802V151.224C219.871 152.309 220.754 153.192 221.839 153.192C222.924 153.192 223.807 152.309 223.807 151.224V138.802C223.807 137.717 222.924 136.834 221.839 136.834Z" fill="#000050"/>
<path d="M283.224 87.668H270.794C269.709 87.668 268.826 88.5506 268.826 89.6358C268.826 90.721 269.709 91.6036 270.794 91.6036H283.224C284.309 91.6036 285.192 90.721 285.192 89.6358C285.192 88.5506 284.309 87.668 283.224 87.668Z" fill="#000050"/>
<path d="M188.4 56.5449C189.167 55.7776 189.167 54.5294 188.4 53.762L179.581 44.9425C178.813 44.1752 177.565 44.1752 176.798 44.9425C176.03 45.7099 176.03 46.9581 176.798 47.7254L185.617 56.5449C186.385 57.3123 187.633 57.3123 188.4 56.5449Z" fill="#000050"/>
<path d="M185.758 123.088L176.944 131.902C176.177 132.669 176.177 133.917 176.944 134.684C177.712 135.452 178.96 135.452 179.727 134.684L188.541 125.87C189.308 125.103 189.308 123.855 188.541 123.088C187.774 122.32 186.525 122.32 185.758 123.088Z" fill="#000050"/>
<path d="M255.116 122.968C254.349 123.735 254.349 124.983 255.116 125.751L263.9 134.535C264.667 135.302 265.916 135.302 266.683 134.535C267.45 133.767 267.45 132.519 266.683 131.752L257.899 122.968C257.132 122.201 255.883 122.201 255.116 122.968Z" fill="#000050"/>
<path d="M263.749 44.7937L254.96 53.5832C254.192 54.3505 254.192 55.5987 254.96 56.366C255.727 57.1334 256.975 57.1334 257.743 56.366L266.532 47.5765C267.3 46.8092 267.3 45.561 266.532 44.7937C265.765 44.0263 264.517 44.0263 263.749 44.7937Z" fill="#000050"/>
<path d="M221.63 12.748C179.235 12.748 144.867 47.1161 144.867 89.5109C144.867 131.906 179.235 166.274 221.63 166.274C264.025 166.274 298.393 131.906 298.393 89.5109C298.393 47.1161 264.025 12.748 221.63 12.748ZM221.63 155.85C184.991 155.85 155.289 126.148 155.289 89.5093C155.289 52.8703 184.991 23.1697 221.63 23.1697C258.269 23.1697 287.971 52.8719 287.971 89.5109C287.971 126.15 258.269 155.852 221.63 155.852V155.85Z" fill="#000050"/>
<path d="M221.472 93.3633V96H209.8V93.75L215.32 87.832C215.875 87.2148 216.312 86.6719 216.633 86.2031C216.953 85.7266 217.183 85.3008 217.324 84.9258C217.472 84.543 217.547 84.1797 217.547 83.8359C217.547 83.3203 217.461 82.8789 217.289 82.5117C217.117 82.1367 216.863 81.8477 216.527 81.6445C216.199 81.4414 215.793 81.3398 215.308 81.3398C214.793 81.3398 214.347 81.4648 213.972 81.7148C213.605 81.9648 213.324 82.3125 213.129 82.7578C212.941 83.2031 212.847 83.707 212.847 84.2695H209.461C209.461 83.2539 209.703 82.3242 210.187 81.4805C210.672 80.6289 211.355 79.9531 212.238 79.4531C213.121 78.9453 214.168 78.6914 215.379 78.6914C216.574 78.6914 217.582 78.8867 218.402 79.2773C219.23 79.6602 219.855 80.2148 220.277 80.9414C220.707 81.6602 220.922 82.5195 220.922 83.5195C220.922 84.082 220.832 84.6328 220.652 85.1719C220.472 85.7031 220.215 86.2344 219.879 86.7656C219.55 87.2891 219.152 87.8203 218.683 88.3594C218.215 88.8984 217.695 89.457 217.125 90.0352L214.16 93.3633H221.472ZM235.246 85.9688V88.9219C235.246 90.2031 235.11 91.3086 234.836 92.2383C234.563 93.1602 234.168 93.918 233.653 94.5117C233.145 95.0977 232.539 95.5312 231.836 95.8125C231.133 96.0938 230.352 96.2344 229.492 96.2344C228.805 96.2344 228.164 96.1484 227.571 95.9766C226.977 95.7969 226.442 95.5195 225.965 95.1445C225.496 94.7695 225.09 94.2969 224.746 93.7266C224.41 93.1484 224.153 92.4609 223.973 91.6641C223.793 90.8672 223.703 89.9531 223.703 88.9219V85.9688C223.703 84.6875 223.84 83.5898 224.114 82.6758C224.395 81.7539 224.789 81 225.297 80.4141C225.813 79.8281 226.422 79.3984 227.125 79.125C227.828 78.8438 228.61 78.7031 229.469 78.7031C230.157 78.7031 230.793 78.793 231.379 78.9727C231.973 79.1445 232.508 79.4141 232.985 79.7812C233.461 80.1484 233.867 80.6211 234.203 81.1992C234.539 81.7695 234.797 82.4531 234.977 83.25C235.157 84.0391 235.246 84.9453 235.246 85.9688ZM231.86 89.3672V85.5117C231.86 84.8945 231.825 84.3555 231.754 83.8945C231.692 83.4336 231.594 83.043 231.461 82.7227C231.328 82.3945 231.164 82.1289 230.969 81.9258C230.774 81.7227 230.551 81.5742 230.301 81.4805C230.051 81.3867 229.774 81.3398 229.469 81.3398C229.086 81.3398 228.746 81.4141 228.45 81.5625C228.16 81.7109 227.914 81.9492 227.711 82.2773C227.508 82.5977 227.352 83.0273 227.242 83.5664C227.141 84.0977 227.09 84.7461 227.09 85.5117V89.3672C227.09 89.9844 227.121 90.5273 227.184 90.9961C227.254 91.4648 227.356 91.8672 227.489 92.2031C227.629 92.5312 227.793 92.8008 227.981 93.0117C228.176 93.2148 228.399 93.3633 228.649 93.457C228.907 93.5508 229.188 93.5977 229.492 93.5977C229.867 93.5977 230.2 93.5234 230.489 93.375C230.785 93.2188 231.035 92.9766 231.239 92.6484C231.45 92.3125 231.606 91.875 231.707 91.3359C231.809 90.7969 231.86 90.1406 231.86 89.3672Z" fill="#000050"/>
<path d="M205.657 112V106.048H206.989L207.109 106.78H207.157C207.269 106.54 207.425 106.336 207.625 106.168C207.825 105.992 208.097 105.904 208.441 105.904C208.697 105.904 208.913 105.988 209.089 106.156C209.273 106.316 209.401 106.556 209.473 106.876C209.585 106.604 209.745 106.376 209.953 106.192C210.169 106 210.449 105.904 210.793 105.904C211.225 105.904 211.553 106.076 211.777 106.42C212.009 106.756 212.125 107.224 212.125 107.824V112H210.445V107.944C210.445 107.76 210.421 107.624 210.373 107.536C210.325 107.448 210.241 107.404 210.121 107.404C210.009 107.404 209.913 107.452 209.833 107.548C209.753 107.644 209.669 107.788 209.581 107.98V112H208.201V107.944C208.201 107.584 208.089 107.404 207.865 107.404C207.753 107.404 207.657 107.452 207.577 107.548C207.497 107.644 207.417 107.788 207.337 107.98V112H205.657ZM216.123 112V107.428H213.735V106.048H217.887V112H216.123ZM216.927 105.112C216.583 105.112 216.299 105.016 216.075 104.824C215.859 104.632 215.751 104.372 215.751 104.044C215.751 103.716 215.859 103.452 216.075 103.252C216.299 103.044 216.583 102.94 216.927 102.94C217.271 102.94 217.551 103.044 217.767 103.252C217.991 103.452 218.103 103.716 218.103 104.044C218.103 104.372 217.991 104.632 217.767 104.824C217.551 105.016 217.271 105.112 216.927 105.112ZM221.201 112V106.048H222.641L222.773 106.84H222.821C223.077 106.584 223.369 106.364 223.697 106.18C224.033 105.996 224.425 105.904 224.873 105.904C225.545 105.904 226.037 106.12 226.349 106.552C226.661 106.984 226.817 107.576 226.817 108.328V112H225.053V108.556C225.053 108.156 224.989 107.864 224.861 107.68C224.733 107.496 224.505 107.404 224.177 107.404C223.937 107.404 223.725 107.456 223.541 107.56C223.365 107.664 223.173 107.82 222.965 108.028V112H221.201ZM231.439 112.144C230.903 112.144 230.379 112.056 229.867 111.88C229.355 111.704 228.907 111.488 228.523 111.232L229.279 110.128C229.647 110.36 230.031 110.536 230.431 110.656C230.831 110.776 231.247 110.836 231.679 110.836C232.007 110.836 232.247 110.788 232.399 110.692C232.551 110.596 232.627 110.476 232.627 110.332C232.627 110.252 232.603 110.18 232.555 110.116C232.515 110.052 232.439 109.996 232.327 109.948C232.223 109.892 232.075 109.84 231.883 109.792C231.691 109.744 231.451 109.688 231.163 109.624C230.355 109.448 229.775 109.212 229.423 108.916C229.071 108.612 228.895 108.228 228.895 107.764C228.895 107.492 228.959 107.24 229.087 107.008C229.215 106.776 229.395 106.58 229.627 106.42C229.867 106.26 230.155 106.136 230.491 106.048C230.827 105.952 231.207 105.904 231.631 105.904C232.167 105.904 232.651 105.992 233.083 106.168C233.523 106.336 233.899 106.52 234.211 106.72L233.419 107.776C233.115 107.592 232.799 107.452 232.471 107.356C232.143 107.26 231.811 107.212 231.475 107.212C231.195 107.212 230.987 107.256 230.851 107.344C230.715 107.432 230.647 107.544 230.647 107.68C230.647 107.848 230.751 107.968 230.959 108.04C231.167 108.112 231.523 108.204 232.027 108.316C232.483 108.42 232.863 108.532 233.167 108.652C233.471 108.772 233.711 108.908 233.887 109.06C234.063 109.212 234.187 109.384 234.259 109.576C234.331 109.768 234.367 109.984 234.367 110.224C234.367 110.496 234.303 110.748 234.175 110.98C234.047 111.212 233.859 111.416 233.611 111.592C233.371 111.76 233.067 111.896 232.699 112C232.339 112.096 231.919 112.144 231.439 112.144Z" fill="#000050"/>
<path d="M187.528 70.144C187.064 70.144 186.636 70.056 186.244 69.88C185.86 69.704 185.528 69.444 185.248 69.1C184.976 68.756 184.764 68.332 184.612 67.828C184.46 67.316 184.384 66.724 184.384 66.052C184.384 65.396 184.46 64.82 184.612 64.324C184.764 63.82 184.976 63.4 185.248 63.064C185.528 62.72 185.86 62.464 186.244 62.296C186.636 62.12 187.064 62.032 187.528 62.032C187.992 62.032 188.416 62.12 188.8 62.296C189.192 62.464 189.524 62.72 189.796 63.064C190.076 63.4 190.292 63.82 190.444 64.324C190.596 64.82 190.672 65.396 190.672 66.052C190.672 66.724 190.596 67.316 190.444 67.828C190.292 68.332 190.076 68.756 189.796 69.1C189.524 69.444 189.192 69.704 188.8 69.88C188.416 70.056 187.992 70.144 187.528 70.144ZM187.528 68.62C187.936 68.62 188.26 68.404 188.5 67.972C188.74 67.54 188.86 66.9 188.86 66.052C188.86 65.236 188.74 64.616 188.5 64.192C188.26 63.768 187.936 63.556 187.528 63.556C187.12 63.556 186.796 63.768 186.556 64.192C186.316 64.616 186.196 65.236 186.196 66.052C186.196 66.9 186.316 67.54 186.556 67.972C186.796 68.404 187.12 68.62 187.528 68.62ZM192.27 70V62.176H194.082L195.726 66.064L196.398 67.792H196.446C196.406 67.376 196.354 66.916 196.29 66.412C196.226 65.9 196.194 65.412 196.194 64.948V62.176H197.886V70H196.074L194.43 66.1L193.758 64.396H193.71C193.75 64.828 193.802 65.292 193.866 65.788C193.93 66.284 193.962 66.764 193.962 67.228V70H192.27ZM199.915 70V62.176H202.543C202.951 62.176 203.327 62.208 203.671 62.272C204.023 62.328 204.327 62.432 204.583 62.584C204.839 62.736 205.039 62.936 205.183 63.184C205.335 63.432 205.411 63.744 205.411 64.12C205.411 64.296 205.383 64.472 205.327 64.648C205.279 64.824 205.199 64.988 205.087 65.14C204.975 65.292 204.835 65.428 204.667 65.548C204.499 65.668 204.299 65.756 204.067 65.812V65.86C204.627 65.964 205.051 66.164 205.339 66.46C205.627 66.756 205.771 67.168 205.771 67.696C205.771 68.096 205.695 68.44 205.543 68.728C205.391 69.016 205.179 69.256 204.907 69.448C204.635 69.632 204.315 69.772 203.947 69.868C203.587 69.956 203.195 70 202.771 70H199.915ZM201.679 65.32H202.459C202.891 65.32 203.203 65.236 203.395 65.068C203.587 64.9 203.683 64.664 203.683 64.36C203.683 64.072 203.583 63.868 203.383 63.748C203.191 63.62 202.887 63.556 202.471 63.556H201.679V65.32ZM201.679 68.62H202.627C203.571 68.62 204.043 68.268 204.043 67.564C204.043 67.22 203.927 66.972 203.695 66.82C203.471 66.668 203.115 66.592 202.627 66.592H201.679V68.62ZM210.177 70.144C209.713 70.144 209.285 70.056 208.893 69.88C208.509 69.704 208.177 69.444 207.897 69.1C207.625 68.756 207.413 68.332 207.261 67.828C207.109 67.316 207.033 66.724 207.033 66.052C207.033 65.396 207.109 64.82 207.261 64.324C207.413 63.82 207.625 63.4 207.897 63.064C208.177 62.72 208.509 62.464 208.893 62.296C209.285 62.12 209.713 62.032 210.177 62.032C210.641 62.032 211.065 62.12 211.449 62.296C211.841 62.464 212.173 62.72 212.445 63.064C212.725 63.4 212.941 63.82 213.093 64.324C213.245 64.82 213.321 65.396 213.321 66.052C213.321 66.724 213.245 67.316 213.093 67.828C212.941 68.332 212.725 68.756 212.445 69.1C212.173 69.444 211.841 69.704 211.449 69.88C211.065 70.056 210.641 70.144 210.177 70.144ZM210.177 68.62C210.585 68.62 210.909 68.404 211.149 67.972C211.389 67.54 211.509 66.9 211.509 66.052C211.509 65.236 211.389 64.616 211.149 64.192C210.909 63.768 210.585 63.556 210.177 63.556C209.769 63.556 209.445 63.768 209.205 64.192C208.965 64.616 208.845 65.236 208.845 66.052C208.845 66.9 208.965 67.54 209.205 67.972C209.445 68.404 209.769 68.62 210.177 68.62ZM217.055 66.04L216.875 66.76H218.519L218.339 66.04C218.235 65.648 218.127 65.236 218.015 64.804C217.903 64.364 217.803 63.936 217.715 63.52H217.667C217.571 63.936 217.471 64.364 217.367 64.804C217.263 65.236 217.159 65.648 217.055 66.04ZM214.235 70L216.671 62.176H218.783L221.219 70H219.347L218.879 68.14H216.515L216.035 70H214.235ZM222.517 70V62.176H225.289C225.705 62.176 226.093 62.216 226.453 62.296C226.821 62.376 227.141 62.512 227.413 62.704C227.693 62.888 227.913 63.136 228.073 63.448C228.233 63.76 228.313 64.148 228.313 64.612C228.313 65.188 228.185 65.664 227.929 66.04C227.673 66.408 227.337 66.684 226.921 66.868L228.685 70H226.705L225.205 67.18H224.281V70H222.517ZM224.281 65.776H225.145C226.097 65.776 226.573 65.388 226.573 64.612C226.573 64.228 226.453 63.96 226.213 63.808C225.973 63.656 225.617 63.58 225.145 63.58H224.281V65.776ZM230.067 70V62.176H232.227C232.795 62.176 233.311 62.252 233.775 62.404C234.239 62.556 234.635 62.792 234.963 63.112C235.291 63.424 235.543 63.824 235.719 64.312C235.903 64.8 235.995 65.38 235.995 66.052C235.995 66.724 235.907 67.308 235.731 67.804C235.555 68.3 235.303 68.712 234.975 69.04C234.655 69.36 234.271 69.6 233.823 69.76C233.375 69.92 232.879 70 232.335 70H230.067ZM231.843 68.572H232.131C232.435 68.572 232.711 68.528 232.959 68.44C233.215 68.352 233.431 68.212 233.607 68.02C233.791 67.82 233.931 67.56 234.027 67.24C234.131 66.92 234.183 66.524 234.183 66.052C234.183 65.588 234.131 65.2 234.027 64.888C233.931 64.568 233.791 64.316 233.607 64.132C233.431 63.94 233.215 63.804 232.959 63.724C232.711 63.644 232.435 63.604 232.131 63.604H231.843V68.572ZM237.665 70V68.512H239.489V63.664H237.665V62.176H243.089V63.664H241.265V68.512H243.089V70H237.665ZM245.119 70V62.176H246.931L248.575 66.064L249.247 67.792H249.295C249.255 67.376 249.203 66.916 249.139 66.412C249.075 65.9 249.043 65.412 249.043 64.948V62.176H250.735V70H248.923L247.279 66.1L246.607 64.396H246.559C246.599 64.828 246.651 65.292 246.715 65.788C246.779 66.284 246.811 66.764 246.811 67.228V70H245.119ZM255.993 70.144C255.489 70.144 255.017 70.06 254.577 69.892C254.145 69.716 253.765 69.46 253.437 69.124C253.117 68.788 252.865 68.372 252.681 67.876C252.497 67.372 252.405 66.792 252.405 66.136C252.405 65.48 252.497 64.9 252.681 64.396C252.873 63.884 253.129 63.456 253.449 63.112C253.777 62.76 254.161 62.492 254.601 62.308C255.041 62.124 255.513 62.032 256.017 62.032C256.545 62.032 256.993 62.136 257.361 62.344C257.737 62.544 258.053 62.772 258.309 63.028L257.337 64.12C257.169 63.952 256.985 63.816 256.785 63.712C256.585 63.608 256.329 63.556 256.017 63.556C255.761 63.556 255.525 63.616 255.309 63.736C255.093 63.848 254.905 64.012 254.745 64.228C254.585 64.444 254.457 64.708 254.361 65.02C254.273 65.332 254.229 65.684 254.229 66.076C254.229 66.884 254.381 67.512 254.685 67.96C254.997 68.4 255.465 68.62 256.089 68.62C256.241 68.62 256.385 68.6 256.521 68.56C256.657 68.52 256.769 68.46 256.857 68.38V67.036H255.717V65.596H258.441V69.196C258.177 69.444 257.829 69.664 257.397 69.856C256.965 70.048 256.497 70.144 255.993 70.144Z" fill="#000050"/>
<path d="M189.25 217.393C190.016 216.627 190.016 215.383 189.25 214.617L180.454 205.821C179.689 205.056 178.444 205.056 177.679 205.821C176.913 206.587 176.913 207.831 177.679 208.597L186.475 217.393C187.24 218.158 188.485 218.158 189.25 217.393Z" fill="#000050"/>
<path d="M186.614 283.757L177.823 292.548C177.058 293.313 177.058 294.558 177.823 295.323C178.589 296.089 179.833 296.089 180.599 295.323L189.389 286.533C190.155 285.768 190.155 284.523 189.389 283.757C188.624 282.992 187.379 282.992 186.614 283.757Z" fill="#000050"/>
<path d="M255.79 283.642C255.025 284.407 255.025 285.652 255.79 286.417L264.551 295.178C265.316 295.943 266.561 295.943 267.326 295.178C268.091 294.412 268.091 293.167 267.326 292.402L258.566 283.642C257.8 282.876 256.555 282.876 255.79 283.642Z" fill="#000050"/>
<path d="M264.398 205.674L255.632 214.44C254.867 215.206 254.867 216.451 255.632 217.216C256.397 217.981 257.642 217.981 258.407 217.216L267.173 208.45C267.939 207.684 267.939 206.44 267.173 205.674C266.408 204.909 265.163 204.909 264.398 205.674Z" fill="#000050"/>
<path d="M222.392 203.583C223.475 203.583 224.355 202.703 224.355 201.621V189.181C224.355 188.099 223.475 187.219 222.392 187.219C221.31 187.219 220.43 188.099 220.43 189.181V201.621C220.43 202.703 221.31 203.583 222.392 203.583Z" fill="#000050"/>
<path d="M173.603 248.645H161.172C160.089 248.645 159.209 249.525 159.209 250.607C159.209 251.689 160.089 252.57 161.172 252.57H173.603C174.685 252.57 175.566 251.689 175.566 250.607C175.566 249.525 174.685 248.645 173.603 248.645Z" fill="#000050"/>
<path d="M222.597 297.477C221.515 297.477 220.635 298.357 220.635 299.439V311.828C220.635 312.911 221.515 313.791 222.597 313.791C223.68 313.791 224.56 312.911 224.56 311.828V299.439C224.56 298.357 223.68 297.477 222.597 297.477Z" fill="#000050"/>
<path d="M283.823 248.439H271.425C270.343 248.439 269.463 249.32 269.463 250.402C269.463 251.484 270.343 252.365 271.425 252.365H283.823C284.905 252.365 285.785 251.484 285.785 250.402C285.785 249.32 284.905 248.439 283.823 248.439Z" fill="#000050"/>
<path d="M222.39 173.715C180.109 173.715 145.832 207.991 145.832 250.273C145.832 292.555 180.109 326.832 222.39 326.832C264.672 326.832 298.949 292.555 298.949 250.273C298.949 207.991 264.672 173.715 222.39 173.715ZM222.39 316.436C185.849 316.436 156.226 286.813 156.226 250.272C156.226 213.73 185.849 184.109 222.39 184.109C258.932 184.109 288.555 213.732 288.555 250.273C288.555 286.815 258.932 316.438 222.39 316.438V316.436Z" fill="#000050"/>
<path d="M210.837 237.955V254.773H207.517V241.782L203.528 243.05V240.433L210.479 237.955H210.837ZM223.341 246.266V248.871H216.828V246.266H223.341ZM237.806 252.18V254.773H226.324V252.56L231.754 246.739C232.3 246.132 232.73 245.597 233.045 245.136C233.36 244.668 233.587 244.249 233.725 243.88C233.871 243.503 233.944 243.146 233.944 242.808C233.944 242.3 233.86 241.866 233.691 241.505C233.521 241.136 233.272 240.852 232.941 240.652C232.618 240.452 232.219 240.352 231.742 240.352C231.235 240.352 230.797 240.475 230.428 240.721C230.067 240.967 229.79 241.309 229.598 241.747C229.414 242.185 229.322 242.681 229.322 243.234H225.99C225.99 242.235 226.228 241.321 226.705 240.491C227.181 239.653 227.854 238.988 228.722 238.496C229.591 237.997 230.62 237.747 231.812 237.747C232.987 237.747 233.979 237.939 234.786 238.323C235.6 238.7 236.215 239.246 236.63 239.96C237.053 240.667 237.264 241.513 237.264 242.496C237.264 243.05 237.176 243.592 236.999 244.122C236.822 244.644 236.569 245.167 236.238 245.69C235.915 246.205 235.523 246.727 235.062 247.257C234.601 247.788 234.09 248.337 233.529 248.906L230.613 252.18H237.806Z" fill="#000050"/>
<path d="M202.482 272.338L201.51 266.386H203.214L203.586 269.146C203.626 269.442 203.658 269.734 203.682 270.022C203.706 270.31 203.738 270.606 203.778 270.91H203.814C203.854 270.606 203.894 270.306 203.934 270.01C203.974 269.714 204.026 269.426 204.09 269.146L204.462 267.178H205.746L206.13 269.146C206.194 269.442 206.25 269.734 206.298 270.022C206.346 270.31 206.39 270.606 206.43 270.91H206.478C206.518 270.606 206.546 270.31 206.562 270.022C206.586 269.734 206.614 269.442 206.646 269.146L206.982 266.386H208.614L207.702 272.338H205.626L205.302 270.406C205.262 270.15 205.226 269.878 205.194 269.59C205.162 269.302 205.126 268.986 205.086 268.642H205.038C205.014 268.898 204.986 269.162 204.954 269.434C204.922 269.706 204.882 270.03 204.834 270.406L204.522 272.338H202.482ZM212.972 272.482C212.508 272.482 212.072 272.414 211.664 272.278C211.264 272.134 210.916 271.93 210.62 271.666C210.324 271.402 210.092 271.078 209.924 270.694C209.756 270.302 209.672 269.858 209.672 269.362C209.672 268.874 209.756 268.438 209.924 268.054C210.1 267.662 210.332 267.334 210.62 267.07C210.908 266.798 211.236 266.594 211.604 266.458C211.98 266.314 212.368 266.242 212.768 266.242C213.224 266.242 213.628 266.314 213.98 266.458C214.332 266.602 214.624 266.802 214.856 267.058C215.096 267.314 215.276 267.618 215.396 267.97C215.516 268.314 215.576 268.69 215.576 269.098C215.576 269.258 215.564 269.414 215.54 269.566C215.524 269.71 215.508 269.818 215.492 269.89H211.436C211.524 270.322 211.72 270.638 212.024 270.838C212.328 271.038 212.724 271.138 213.212 271.138C213.484 271.138 213.74 271.102 213.98 271.03C214.228 270.958 214.484 270.854 214.748 270.718L215.336 271.786C214.992 272.002 214.612 272.174 214.196 272.302C213.78 272.422 213.372 272.482 212.972 272.482ZM212.828 267.586C212.476 267.586 212.18 267.678 211.94 267.862C211.708 268.046 211.548 268.326 211.46 268.702H214.004C213.916 267.958 213.524 267.586 212.828 267.586ZM220.522 272.482C220.058 272.482 219.622 272.414 219.214 272.278C218.814 272.134 218.466 271.93 218.17 271.666C217.874 271.402 217.642 271.078 217.474 270.694C217.306 270.302 217.222 269.858 217.222 269.362C217.222 268.874 217.306 268.438 217.474 268.054C217.65 267.662 217.882 267.334 218.17 267.07C218.458 266.798 218.786 266.594 219.154 266.458C219.53 266.314 219.918 266.242 220.318 266.242C220.774 266.242 221.178 266.314 221.53 266.458C221.882 266.602 222.174 266.802 222.406 267.058C222.646 267.314 222.826 267.618 222.946 267.97C223.066 268.314 223.126 268.69 223.126 269.098C223.126 269.258 223.114 269.414 223.09 269.566C223.074 269.71 223.058 269.818 223.042 269.89H218.986C219.074 270.322 219.27 270.638 219.574 270.838C219.878 271.038 220.274 271.138 220.762 271.138C221.034 271.138 221.29 271.102 221.53 271.03C221.778 270.958 222.034 270.854 222.298 270.718L222.886 271.786C222.542 272.002 222.162 272.174 221.746 272.302C221.33 272.422 220.922 272.482 220.522 272.482ZM220.378 267.586C220.026 267.586 219.73 267.678 219.49 267.862C219.258 268.046 219.098 268.326 219.01 268.702H221.554C221.466 267.958 221.074 267.586 220.378 267.586ZM225.024 272.338V263.926H226.788V268.786H226.836L229.02 266.386H230.952L228.684 268.81L231.132 272.338H229.224L227.664 269.902L226.788 270.838V272.338H225.024ZM235.214 272.482C234.678 272.482 234.154 272.394 233.642 272.218C233.13 272.042 232.682 271.826 232.298 271.57L233.054 270.466C233.422 270.698 233.806 270.874 234.206 270.994C234.606 271.114 235.022 271.174 235.454 271.174C235.782 271.174 236.022 271.126 236.174 271.03C236.326 270.934 236.402 270.814 236.402 270.67C236.402 270.59 236.378 270.518 236.33 270.454C236.29 270.39 236.214 270.334 236.102 270.286C235.998 270.23 235.85 270.178 235.658 270.13C235.466 270.082 235.226 270.026 234.938 269.962C234.13 269.786 233.55 269.55 233.198 269.254C232.846 268.95 232.67 268.566 232.67 268.102C232.67 267.83 232.734 267.578 232.862 267.346C232.99 267.114 233.17 266.918 233.402 266.758C233.642 266.598 233.93 266.474 234.266 266.386C234.602 266.29 234.982 266.242 235.406 266.242C235.942 266.242 236.426 266.33 236.858 266.506C237.298 266.674 237.674 266.858 237.986 267.058L237.194 268.114C236.89 267.93 236.574 267.79 236.246 267.694C235.918 267.598 235.586 267.55 235.25 267.55C234.97 267.55 234.762 267.594 234.626 267.682C234.49 267.77 234.422 267.882 234.422 268.018C234.422 268.186 234.526 268.306 234.734 268.378C234.942 268.45 235.298 268.542 235.802 268.654C236.258 268.758 236.638 268.87 236.942 268.99C237.246 269.11 237.486 269.246 237.662 269.398C237.838 269.55 237.962 269.722 238.034 269.914C238.106 270.106 238.142 270.322 238.142 270.562C238.142 270.834 238.078 271.086 237.95 271.318C237.822 271.55 237.634 271.754 237.386 271.93C237.146 272.098 236.842 272.234 236.474 272.338C236.114 272.434 235.694 272.482 235.214 272.482Z" fill="#000050"/>
<path d="M202.482 272.338L201.51 266.386H203.214L203.586 269.146C203.626 269.442 203.658 269.734 203.682 270.022C203.706 270.31 203.738 270.606 203.778 270.91H203.814C203.854 270.606 203.894 270.306 203.934 270.01C203.974 269.714 204.026 269.426 204.09 269.146L204.462 267.178H205.746L206.13 269.146C206.194 269.442 206.25 269.734 206.298 270.022C206.346 270.31 206.39 270.606 206.43 270.91H206.478C206.518 270.606 206.546 270.31 206.562 270.022C206.586 269.734 206.614 269.442 206.646 269.146L206.982 266.386H208.614L207.702 272.338H205.626L205.302 270.406C205.262 270.15 205.226 269.878 205.194 269.59C205.162 269.302 205.126 268.986 205.086 268.642H205.038C205.014 268.898 204.986 269.162 204.954 269.434C204.922 269.706 204.882 270.03 204.834 270.406L204.522 272.338H202.482ZM212.972 272.482C212.508 272.482 212.072 272.414 211.664 272.278C211.264 272.134 210.916 271.93 210.62 271.666C210.324 271.402 210.092 271.078 209.924 270.694C209.756 270.302 209.672 269.858 209.672 269.362C209.672 268.874 209.756 268.438 209.924 268.054C210.1 267.662 210.332 267.334 210.62 267.07C210.908 266.798 211.236 266.594 211.604 266.458C211.98 266.314 212.368 266.242 212.768 266.242C213.224 266.242 213.628 266.314 213.98 266.458C214.332 266.602 214.624 266.802 214.856 267.058C215.096 267.314 215.276 267.618 215.396 267.97C215.516 268.314 215.576 268.69 215.576 269.098C215.576 269.258 215.564 269.414 215.54 269.566C215.524 269.71 215.508 269.818 215.492 269.89H211.436C211.524 270.322 211.72 270.638 212.024 270.838C212.328 271.038 212.724 271.138 213.212 271.138C213.484 271.138 213.74 271.102 213.98 271.03C214.228 270.958 214.484 270.854 214.748 270.718L215.336 271.786C214.992 272.002 214.612 272.174 214.196 272.302C213.78 272.422 213.372 272.482 212.972 272.482ZM212.828 267.586C212.476 267.586 212.18 267.678 211.94 267.862C211.708 268.046 211.548 268.326 211.46 268.702H214.004C213.916 267.958 213.524 267.586 212.828 267.586ZM220.522 272.482C220.058 272.482 219.622 272.414 219.214 272.278C218.814 272.134 218.466 271.93 218.17 271.666C217.874 271.402 217.642 271.078 217.474 270.694C217.306 270.302 217.222 269.858 217.222 269.362C217.222 268.874 217.306 268.438 217.474 268.054C217.65 267.662 217.882 267.334 218.17 267.07C218.458 266.798 218.786 266.594 219.154 266.458C219.53 266.314 219.918 266.242 220.318 266.242C220.774 266.242 221.178 266.314 221.53 266.458C221.882 266.602 222.174 266.802 222.406 267.058C222.646 267.314 222.826 267.618 222.946 267.97C223.066 268.314 223.126 268.69 223.126 269.098C223.126 269.258 223.114 269.414 223.09 269.566C223.074 269.71 223.058 269.818 223.042 269.89H218.986C219.074 270.322 219.27 270.638 219.574 270.838C219.878 271.038 220.274 271.138 220.762 271.138C221.034 271.138 221.29 271.102 221.53 271.03C221.778 270.958 222.034 270.854 222.298 270.718L222.886 271.786C222.542 272.002 222.162 272.174 221.746 272.302C221.33 272.422 220.922 272.482 220.522 272.482ZM220.378 267.586C220.026 267.586 219.73 267.678 219.49 267.862C219.258 268.046 219.098 268.326 219.01 268.702H221.554C221.466 267.958 221.074 267.586 220.378 267.586ZM225.024 272.338V263.926H226.788V268.786H226.836L229.02 266.386H230.952L228.684 268.81L231.132 272.338H229.224L227.664 269.902L226.788 270.838V272.338H225.024ZM235.214 272.482C234.678 272.482 234.154 272.394 233.642 272.218C233.13 272.042 232.682 271.826 232.298 271.57L233.054 270.466C233.422 270.698 233.806 270.874 234.206 270.994C234.606 271.114 235.022 271.174 235.454 271.174C235.782 271.174 236.022 271.126 236.174 271.03C236.326 270.934 236.402 270.814 236.402 270.67C236.402 270.59 236.378 270.518 236.33 270.454C236.29 270.39 236.214 270.334 236.102 270.286C235.998 270.23 235.85 270.178 235.658 270.13C235.466 270.082 235.226 270.026 234.938 269.962C234.13 269.786 233.55 269.55 233.198 269.254C232.846 268.95 232.67 268.566 232.67 268.102C232.67 267.83 232.734 267.578 232.862 267.346C232.99 267.114 233.17 266.918 233.402 266.758C233.642 266.598 233.93 266.474 234.266 266.386C234.602 266.29 234.982 266.242 235.406 266.242C235.942 266.242 236.426 266.33 236.858 266.506C237.298 266.674 237.674 266.858 237.986 267.058L237.194 268.114C236.89 267.93 236.574 267.79 236.246 267.694C235.918 267.598 235.586 267.55 235.25 267.55C234.97 267.55 234.762 267.594 234.626 267.682C234.49 267.77 234.422 267.882 234.422 268.018C234.422 268.186 234.526 268.306 234.734 268.378C234.942 268.45 235.298 268.542 235.802 268.654C236.258 268.758 236.638 268.87 236.942 268.99C237.246 269.11 237.486 269.246 237.662 269.398C237.838 269.55 237.962 269.722 238.034 269.914C238.106 270.106 238.142 270.322 238.142 270.562C238.142 270.834 238.078 271.086 237.95 271.318C237.822 271.55 237.634 271.754 237.386 271.93C237.146 272.098 236.842 272.234 236.474 272.338C236.114 272.434 235.694 272.482 235.214 272.482Z" fill="#000050"/>
<path d="M193.07 227L192.026 219.176H193.862L194.102 223.34C194.11 223.676 194.114 224 194.114 224.312C194.122 224.616 194.13 224.948 194.138 225.308H194.186C194.242 224.948 194.302 224.616 194.366 224.312C194.438 224 194.506 223.676 194.57 223.34L195.098 221.156H196.226L196.718 223.34C196.782 223.668 196.846 223.988 196.91 224.3C196.974 224.612 197.038 224.948 197.102 225.308H197.15C197.158 224.948 197.162 224.612 197.162 224.3C197.17 223.988 197.182 223.668 197.198 223.34L197.414 219.176H199.13L198.17 227H196.274L195.818 224.576C195.77 224.328 195.726 224.076 195.686 223.82C195.646 223.564 195.618 223.32 195.602 223.088H195.566C195.542 223.32 195.514 223.564 195.482 223.82C195.45 224.076 195.41 224.328 195.362 224.576L194.906 227H193.07ZM202.455 223.04L202.275 223.76H203.919L203.739 223.04C203.635 222.648 203.527 222.236 203.415 221.804C203.303 221.364 203.203 220.936 203.115 220.52H203.067C202.971 220.936 202.871 221.364 202.767 221.804C202.663 222.236 202.559 222.648 202.455 223.04ZM199.635 227L202.071 219.176H204.183L206.619 227H204.747L204.279 225.14H201.915L201.435 227H199.635ZM207.965 227V225.512H209.789V220.664H207.965V219.176H213.389V220.664H211.565V225.512H213.389V227H207.965ZM217.339 227V220.664H214.999V219.176H221.455V220.664H219.115V227H217.339ZM223.461 227V219.176H225.225V225.512H228.705V227H223.461ZM230.615 227V225.512H232.439V220.664H230.615V219.176H236.039V220.664H234.215V225.512H236.039V227H230.615ZM240.853 227.144C240.325 227.144 239.801 227.052 239.281 226.868C238.769 226.676 238.301 226.392 237.877 226.016L238.897 224.804C239.193 225.044 239.517 225.24 239.869 225.392C240.221 225.544 240.589 225.62 240.973 225.62C241.357 225.62 241.637 225.556 241.813 225.428C241.989 225.3 242.077 225.136 242.077 224.936C242.077 224.8 242.049 224.688 241.993 224.6C241.937 224.504 241.857 224.42 241.753 224.348C241.649 224.276 241.521 224.208 241.369 224.144C241.217 224.08 241.049 224.008 240.865 223.928L239.857 223.496C239.641 223.416 239.429 223.312 239.221 223.184C239.021 223.056 238.845 222.908 238.693 222.74C238.541 222.564 238.417 222.364 238.321 222.14C238.233 221.908 238.189 221.648 238.189 221.36C238.189 221.04 238.257 220.74 238.393 220.46C238.537 220.172 238.733 219.924 238.981 219.716C239.237 219.5 239.541 219.332 239.893 219.212C240.245 219.092 240.633 219.032 241.057 219.032C241.537 219.032 242.001 219.12 242.449 219.296C242.897 219.472 243.301 219.728 243.661 220.064L242.761 221.18C242.489 220.98 242.217 220.828 241.945 220.724C241.673 220.612 241.345 220.556 240.961 220.556C240.665 220.556 240.425 220.616 240.241 220.736C240.065 220.856 239.977 221.032 239.977 221.264C239.977 221.496 240.093 221.676 240.325 221.804C240.565 221.924 240.877 222.052 241.261 222.188L242.209 222.596C242.729 222.788 243.137 223.052 243.433 223.388C243.737 223.724 243.889 224.168 243.889 224.72C243.889 225.048 243.821 225.36 243.685 225.656C243.549 225.944 243.353 226.2 243.097 226.424C242.841 226.64 242.525 226.816 242.149 226.952C241.773 227.08 241.341 227.144 240.853 227.144ZM247.539 227V220.664H245.199V219.176H251.655V220.664H249.315V227H247.539Z" fill="#000050"/>
<defs>
<linearGradient id="paint0_linear_0_1" x1="100.588" y1="217.132" x2="100.588" y2="146.715" gradientUnits="userSpaceOnUse">
<stop stop-color="#0000B4"/>
<stop offset="1" stop-color="#000050"/>
</linearGradient>
<linearGradient id="paint1_linear_0_1" x1="100.588" y1="217.132" x2="100.588" y2="146.715" gradientUnits="userSpaceOnUse">
<stop stop-color="#0000B4"/>
<stop offset="1" stop-color="#000050"/>
</linearGradient>
</defs>
</svg>
