<svg width="200" height="21" viewBox="0 0 200 21" fill="none" xmlns="http://www.w3.org/2000/svg">
<path d="M78.8182 20.3417H90.0184V0.149745H78.8182V20.3417ZM70.4001 0.149745H77.0304V2.7427H70.8971C69.895 2.7427 69.0451 3.02642 68.4038 3.586C67.7624 4.14557 67.4016 4.91794 67.4016 5.83217C67.4016 6.7464 67.7543 7.51877 68.4038 8.07834C69.0532 8.63791 69.903 8.92164 70.8971 8.92164H77.0304V20.2786H63.6254V17.6857H70.6165C71.6828 17.6857 72.6128 17.4019 73.2542 16.7714C73.9678 16.1409 74.2564 15.4395 74.2564 14.4543C74.2564 13.5401 73.9036 12.7677 73.2542 12.2081C72.5407 11.6486 71.6828 11.3648 70.6165 11.3648H69.7587C66.9045 11.3648 64.5554 9.11867 64.5554 6.31293V5.68242C64.5554 2.5299 67.1931 0 70.4081 0V0.149745H70.4001ZM98.2202 0.149745H104.642V2.7427H98.7172C97.7151 2.7427 96.8652 3.02642 96.2238 3.586C95.5825 4.14557 95.2217 4.91794 95.2217 5.83217C95.2217 6.7464 95.5744 7.51877 96.2238 8.07834C96.8652 8.63791 97.7231 8.92164 98.7172 8.92164H104.634V14.5331C104.634 17.6857 101.996 20.2865 98.7172 20.2865H91.8704V17.6935H98.2923C99.3586 17.6935 100.289 17.4098 100.93 16.7793C101.644 16.1488 101.932 15.4474 101.932 14.4622C101.932 13.548 101.579 12.7756 100.93 12.216C100.216 11.6565 99.3586 11.3727 98.2923 11.3727H92.4397L92.3675 5.76124C92.3675 2.60871 95.0052 0.0788131 98.2202 0.0788131V0.149745ZM10.4145 0.149745H17.9027V2.7427H10.631C9.27604 2.7427 7.99327 3.08947 6.84679 3.72786C5.70031 4.36624 4.77832 5.26471 4.06478 6.46267C3.42339 7.58182 3.06262 8.84283 3.06262 10.1827C3.06262 11.5225 3.41538 12.9175 4.06478 14.0366C4.71418 15.1558 5.63617 16.07 6.84679 16.7005C7.98525 17.331 9.26802 17.6857 10.631 17.6857H15.0565V11.3727H7.84895V8.85071H17.9027V20.2786H10.4145C4.63401 20.2786 0 15.7941 0 10.1827C0 4.57116 4.63401 0.0788131 10.4145 0.0788131V0.149745ZM39.798 9.54426V20.4126H37.1603V9.6152C37.1603 5.83217 34.0255 2.81363 30.1692 2.81363C26.3128 2.81363 23.1781 5.83217 23.1781 9.6152V20.4126H20.4682V0.220677H30.1692C35.5167 0.220677 39.798 4.4293 39.798 9.6152V9.54426ZM88.0863 6.24988C88.0863 8.21232 86.4427 9.75706 84.4464 9.75706C82.4501 9.75706 80.8065 8.21232 80.8065 6.24988C80.8065 4.28743 82.4501 2.7427 84.4464 2.7427C86.4507 2.7427 88.0863 4.28743 88.0863 6.24988ZM111.914 10.2457C111.914 15.8572 116.548 20.3417 122.328 20.3417H126.754V17.7487H122.4C118.047 17.7487 114.551 14.3125 114.696 10.1038C114.768 6.03708 118.336 2.7427 122.545 2.7427H126.754V0.149745H122.328C116.62 0.149745 111.914 4.63421 111.914 10.2457ZM190.371 0.149745H180.67V20.3417H183.38V9.54426C183.38 5.76124 186.515 2.7427 190.371 2.7427C194.22 2.7427 197.362 5.76124 197.362 9.54426V20.3417H200V9.54426C200 4.35836 195.647 0.149745 190.371 0.149745ZM141.866 6.95131C141.866 7.51089 141.65 7.99953 141.225 8.35419C140.8 8.7719 140.367 8.91376 139.798 8.91376H133.593C133.023 8.91376 132.526 8.70096 132.165 8.35419C131.741 8.00741 131.596 7.51089 131.596 6.95131V0.149745H128.886V20.3417H131.596V13.4692C131.596 12.9096 131.813 12.4209 132.165 12.0663C132.59 11.7195 133.023 11.5067 133.593 11.5067H139.798C140.367 11.5067 140.864 11.7195 141.225 12.0663C141.65 12.484 141.866 12.9096 141.866 13.4692V20.3417H144.504V0.149745H141.866V6.95131ZM167.257 0.149745V20.3417H178.457V0.149745H167.257ZM172.821 9.75706C170.825 9.75706 169.181 8.21232 169.181 6.24988C169.181 4.28743 170.825 2.7427 172.821 2.7427C174.818 2.7427 176.461 4.28743 176.461 6.24988C176.461 8.21232 174.818 9.75706 172.821 9.75706ZM157.42 1.19796C157.067 0.425591 156.562 0.0788131 155.921 0.0788131C155.279 0.0788131 154.782 0.425591 154.422 1.19796L145.506 20.3417H166.263L157.42 1.19796ZM155.921 17.0473C153.924 17.0473 152.281 15.5025 152.281 13.5401C152.281 11.5776 153.924 10.0329 155.921 10.0329C157.917 10.0329 159.561 11.5776 159.561 13.5401C159.561 15.5025 157.917 17.0473 155.921 17.0473ZM61.4848 5.13073C60.5548 3.586 59.272 2.32499 57.6365 1.48169C55.9929 0.567454 54.2051 0.149745 52.3531 0.149745C50.4289 0.149745 48.7132 0.567454 47.0777 1.48169C45.4341 2.39592 44.1514 3.586 43.2294 5.13073C42.2994 6.67547 41.8744 8.42512 41.8744 10.2457C41.8744 12.0663 42.2994 13.7529 43.2294 15.3607C44.1594 16.9054 45.4422 18.1664 47.0777 19.0806C48.7212 19.9949 50.5011 20.4835 52.3531 20.4835C54.2051 20.4835 56.0651 19.9949 57.6285 19.0806C59.272 18.1664 60.5548 16.9054 61.4768 15.3607C62.4068 13.8159 62.9039 12.0663 62.9039 10.2457C62.9039 8.42512 62.4148 6.73852 61.4848 5.13073ZM52.3531 13.8238C50.3568 13.8238 48.7132 12.2791 48.7132 10.3166C48.7132 8.35419 50.3568 6.80945 52.3531 6.80945C54.3494 6.80945 55.9929 8.35419 55.9929 10.3166C55.9929 12.2791 54.3494 13.8238 52.3531 13.8238Z" fill="#414141"/>
</svg>
