<svg width="152" height="256" viewBox="0 0 152 256" fill="none" xmlns="http://www.w3.org/2000/svg">
<path d="M147.001 180.263C147.001 219.399 115.019 251.178 75.5005 251.178C35.9825 251.178 4 219.399 4 180.263C4 141.127 35.9825 109.348 75.5005 109.348C115.019 109.348 147.001 141.127 147.001 180.263Z" fill="#FFFFA0"/>
<path d="M147.001 180.263C147.001 219.399 115.019 251.178 75.5005 251.178C35.9825 251.178 4 219.399 4 180.263C4 141.127 35.9825 109.348 75.5005 109.348C115.019 109.348 147.001 141.127 147.001 180.263Z" stroke="#000050" stroke-width="8"/>
<path d="M147.001 180.263C147.001 219.399 115.019 251.178 75.5005 251.178C35.9825 251.178 4 219.399 4 180.263C4 141.127 35.9825 109.348 75.5005 109.348C115.019 109.348 147.001 141.127 147.001 180.263Z" stroke="#000050" stroke-width="8"/>
<path d="M147.001 180.263C147.001 219.399 115.019 251.178 75.5005 251.178C35.9825 251.178 4 219.399 4 180.263C4 141.127 35.9825 109.348 75.5005 109.348C115.019 109.348 147.001 141.127 147.001 180.263Z" stroke="#000050" stroke-width="8"/>
<path d="M83.6608 157.709C82.9617 157.634 82.2731 157.591 81.5739 157.591C76.3833 157.591 71.2985 159.731 66.754 163.862C64.6354 165.788 62.6439 168.122 60.8218 170.779C60.504 160.796 59.932 150.136 58.968 139.281H45.6523C48.5019 169.854 48.1523 196.544 47.6651 219.942C47.6651 219.942 47.6651 220.028 47.6651 220.06H60.9172C61.3091 196.619 67.1036 181.58 75.61 173.845C77.9087 171.758 80.1333 170.823 82.2307 171.048C92.7392 172.199 91.0549 205.387 90.271 220.06H103.544C104.127 209.206 104.762 195.985 103.216 184.506C100.981 167.907 94.4023 158.882 83.6608 157.709Z" fill="#000050"/>
<path d="M147.001 159.195C147.001 198.331 115.019 230.11 75.5005 230.11C35.9825 230.11 4 198.331 4 159.195C4 120.058 35.9825 88.2793 75.5005 88.2793C115.019 88.2793 147.001 120.058 147.001 159.195Z" fill="#FFFFA0"/>
<path d="M147.001 159.195C147.001 198.331 115.019 230.11 75.5005 230.11C35.9825 230.11 4 198.331 4 159.195C4 120.058 35.9825 88.2793 75.5005 88.2793C115.019 88.2793 147.001 120.058 147.001 159.195Z" stroke="#000050" stroke-width="8"/>
<path d="M147.001 159.195C147.001 198.331 115.019 230.11 75.5005 230.11C35.9825 230.11 4 198.331 4 159.195C4 120.058 35.9825 88.2793 75.5005 88.2793C115.019 88.2793 147.001 120.058 147.001 159.195Z" stroke="#000050" stroke-width="8"/>
<path d="M147.001 159.195C147.001 198.331 115.019 230.11 75.5005 230.11C35.9825 230.11 4 198.331 4 159.195C4 120.058 35.9825 88.2793 75.5005 88.2793C115.019 88.2793 147.001 120.058 147.001 159.195Z" stroke="#000050" stroke-width="8"/>
<path d="M83.6608 136.641C82.9617 136.565 82.2731 136.522 81.5739 136.522C76.3833 136.522 71.2985 138.663 66.754 142.794C64.6354 144.72 62.6439 147.054 60.8218 149.711C60.504 139.728 59.932 129.067 58.968 118.213H45.6523C48.5019 148.786 48.1523 175.476 47.6651 198.873C47.6651 198.873 47.6651 198.959 47.6651 198.992H60.9172C61.3091 175.551 67.1036 160.512 75.61 152.777C77.9087 150.69 80.1333 149.754 82.2307 149.98C92.7392 151.131 91.0549 184.318 90.271 198.992H103.544C104.127 188.137 104.762 174.916 103.216 163.438C100.981 146.839 94.4023 137.813 83.6608 136.641Z" fill="#000050"/>
<path d="M147.001 138.128C147.001 177.264 115.019 209.043 75.5005 209.043C35.9825 209.043 4 177.264 4 138.128C4 98.992 35.9825 67.2129 75.5005 67.2129C115.019 67.2129 147.001 98.992 147.001 138.128Z" fill="#FFFFA0"/>
<path d="M147.001 138.128C147.001 177.264 115.019 209.043 75.5005 209.043C35.9825 209.043 4 177.264 4 138.128C4 98.992 35.9825 67.2129 75.5005 67.2129C115.019 67.2129 147.001 98.992 147.001 138.128Z" stroke="#000050" stroke-width="8"/>
<path d="M147.001 138.128C147.001 177.264 115.019 209.043 75.5005 209.043C35.9825 209.043 4 177.264 4 138.128C4 98.992 35.9825 67.2129 75.5005 67.2129C115.019 67.2129 147.001 98.992 147.001 138.128Z" stroke="#000050" stroke-width="8"/>
<path d="M147.001 138.128C147.001 177.264 115.019 209.043 75.5005 209.043C35.9825 209.043 4 177.264 4 138.128C4 98.992 35.9825 67.2129 75.5005 67.2129C115.019 67.2129 147.001 98.992 147.001 138.128Z" stroke="#000050" stroke-width="8"/>
<path d="M83.6608 115.574C82.9617 115.499 82.2731 115.456 81.5739 115.456C76.3833 115.456 71.2985 117.597 66.754 121.728C64.6354 123.653 62.6439 125.988 60.8218 128.645C60.504 118.662 59.932 108.001 58.968 97.1465H45.6523C48.5019 127.72 48.1523 154.409 47.6651 177.807C47.6651 177.807 47.6651 177.893 47.6651 177.925H60.9172C61.3091 154.484 67.1036 139.445 75.61 131.711C77.9087 129.624 80.1333 128.688 82.2307 128.914C92.7392 130.065 91.0549 163.252 90.271 177.925H103.544C104.127 167.071 104.762 153.85 103.216 142.371C100.981 125.772 94.4023 116.747 83.6608 115.574Z" fill="#000050"/>
<path d="M147.001 117.056C147.001 156.192 115.019 187.971 75.5005 187.971C35.9825 187.971 4 156.192 4 117.056C4 77.9197 35.9825 46.1406 75.5005 46.1406C115.019 46.1406 147.001 77.9197 147.001 117.056Z" fill="#FFFFA0"/>
<path d="M147.001 117.056C147.001 156.192 115.019 187.971 75.5005 187.971C35.9825 187.971 4 156.192 4 117.056C4 77.9197 35.9825 46.1406 75.5005 46.1406C115.019 46.1406 147.001 77.9197 147.001 117.056Z" stroke="#000050" stroke-width="8"/>
<path d="M147.001 117.056C147.001 156.192 115.019 187.971 75.5005 187.971C35.9825 187.971 4 156.192 4 117.056C4 77.9197 35.9825 46.1406 75.5005 46.1406C115.019 46.1406 147.001 77.9197 147.001 117.056Z" stroke="#000050" stroke-width="8"/>
<path d="M147.001 117.056C147.001 156.192 115.019 187.971 75.5005 187.971C35.9825 187.971 4 156.192 4 117.056C4 77.9197 35.9825 46.1406 75.5005 46.1406C115.019 46.1406 147.001 77.9197 147.001 117.056Z" stroke="#000050" stroke-width="8"/>
<path d="M83.6608 94.502C82.9617 94.4267 82.2731 94.3836 81.5739 94.3836C76.3833 94.3836 71.2985 96.5244 66.754 100.655C64.6354 102.581 62.6439 104.915 60.8218 107.572C60.504 97.5894 59.932 86.9286 58.968 76.0742H45.6523C48.5019 106.647 48.1523 133.337 47.6651 156.735C47.6651 156.735 47.6651 156.821 47.6651 156.853H60.9172C61.3091 133.412 67.1036 118.373 75.61 110.638C77.9087 108.551 80.1333 107.615 82.2307 107.841C92.7392 108.992 91.0549 142.18 90.271 156.853H103.544C104.127 145.999 104.762 132.777 103.216 121.299C100.981 104.7 94.4023 95.6745 83.6608 94.502Z" fill="#000050"/>
<path d="M147.001 95.9836C147.001 135.12 115.019 166.899 75.5005 166.899C35.9825 166.899 4 135.12 4 95.9836C4 56.8475 35.9825 25.0684 75.5005 25.0684C115.019 25.0684 147.001 56.8475 147.001 95.9836Z" fill="#FFFFA0"/>
<path d="M147.001 95.9836C147.001 135.12 115.019 166.899 75.5005 166.899C35.9825 166.899 4 135.12 4 95.9836C4 56.8475 35.9825 25.0684 75.5005 25.0684C115.019 25.0684 147.001 56.8475 147.001 95.9836Z" stroke="#000050" stroke-width="8"/>
<path d="M147.001 95.9836C147.001 135.12 115.019 166.899 75.5005 166.899C35.9825 166.899 4 135.12 4 95.9836C4 56.8475 35.9825 25.0684 75.5005 25.0684C115.019 25.0684 147.001 56.8475 147.001 95.9836Z" stroke="#000050" stroke-width="8"/>
<path d="M147.001 95.9836C147.001 135.12 115.019 166.899 75.5005 166.899C35.9825 166.899 4 135.12 4 95.9836C4 56.8475 35.9825 25.0684 75.5005 25.0684C115.019 25.0684 147.001 56.8475 147.001 95.9836Z" stroke="#000050" stroke-width="8"/>
<path d="M83.6608 73.4297C82.9617 73.3544 82.2731 73.3114 81.5739 73.3114C76.3833 73.3114 71.2985 75.4521 66.754 79.583C64.6354 81.5087 62.6439 83.8431 60.8218 86.5002C60.504 76.5171 59.932 65.8564 58.968 55.002H45.6523C48.5019 85.575 48.1523 112.265 47.6651 135.662C47.6651 135.662 47.6651 135.748 47.6651 135.781H60.9172C61.3091 112.34 67.1036 97.3008 75.61 89.5661C77.9087 87.4791 80.1333 86.5432 82.2307 86.7691C92.7392 87.9202 91.0549 121.107 90.271 135.781H103.544C104.127 124.926 104.762 111.705 103.216 100.227C100.981 83.6279 94.4023 74.6023 83.6608 73.4297Z" fill="#000050"/>
<path d="M147.001 74.9152C147.001 114.051 115.019 145.83 75.5005 145.83C35.9825 145.83 4 114.051 4 74.9152C4 35.7791 35.9825 4 75.5005 4C115.019 4 147.001 35.7791 147.001 74.9152Z" fill="#FFFFA0"/>
<path d="M147.001 74.9152C147.001 114.051 115.019 145.83 75.5005 145.83C35.9825 145.83 4 114.051 4 74.9152C4 35.7791 35.9825 4 75.5005 4C115.019 4 147.001 35.7791 147.001 74.9152Z" stroke="#000050" stroke-width="8"/>
<path d="M147.001 74.9152C147.001 114.051 115.019 145.83 75.5005 145.83C35.9825 145.83 4 114.051 4 74.9152C4 35.7791 35.9825 4 75.5005 4C115.019 4 147.001 35.7791 147.001 74.9152Z" stroke="#000050" stroke-width="8"/>
<path d="M147.001 74.9152C147.001 114.051 115.019 145.83 75.5005 145.83C35.9825 145.83 4 114.051 4 74.9152C4 35.7791 35.9825 4 75.5005 4C115.019 4 147.001 35.7791 147.001 74.9152Z" stroke="#000050" stroke-width="8"/>
<path d="M83.6608 52.3613C82.9617 52.286 82.2731 52.243 81.5739 52.243C76.3833 52.243 71.2985 54.3838 66.754 58.5147C64.6354 60.4403 62.6439 62.7747 60.8218 65.4318C60.504 55.4488 59.932 44.788 58.968 33.9336H45.6523C48.5019 64.5067 48.1523 91.1963 47.6651 114.594C47.6651 114.594 47.6651 114.68 47.6651 114.712H60.9172C61.3091 91.2716 67.1036 76.2324 75.61 68.4977C77.9087 66.4108 80.1333 65.4748 82.2307 65.7008C92.7392 66.8518 91.0549 100.039 90.271 114.712H103.544C104.127 103.858 104.762 90.6369 103.216 79.1585C100.981 62.5595 94.4023 53.5339 83.6608 52.3613Z" fill="#000050"/>
</svg>
