<svg width="341" height="376" viewBox="0 0 341 376" fill="none" xmlns="http://www.w3.org/2000/svg">
<path d="M300.71 277.691H40.6563C18.3136 277.691 0 258.411 0 234.888V202.497C0 178.974 18.3136 159.693 40.6563 159.693H300.344C322.686 159.693 341 178.974 341 202.497V234.888C341 258.411 323.053 277.691 300.71 277.691ZM40.6563 176.66C27.1042 176.66 16.116 188.229 16.116 202.497V234.888C16.116 249.156 27.1042 260.724 40.6563 260.724H300.344C313.896 260.724 324.884 249.156 324.884 234.888V202.497C324.884 188.229 313.896 176.66 300.344 176.66H40.6563Z" fill="#17154D"/>
<path d="M56.0447 172.034C52.7482 172.034 49.4518 169.721 48.3529 165.864L4.4002 10.8473C2.93511 6.21995 5.49902 1.59257 9.89429 0.435728C14.2896 -1.10673 18.6848 1.59257 19.7837 6.21995L63.7364 161.237C65.2015 165.864 62.6376 170.492 58.2423 171.649C57.876 172.034 57.1435 172.034 56.0447 172.034Z" fill="#17154D"/>
<path d="M285.327 172.032C284.595 172.032 283.862 172.032 283.13 171.646C278.734 170.104 276.537 165.477 277.635 161.235L321.588 6.2177C323.053 1.59032 327.449 -0.723369 331.478 0.433475C335.873 1.97593 338.07 6.60331 336.972 10.8451L293.019 165.862C291.92 169.718 288.624 172.032 285.327 172.032Z" fill="#17154D"/>
<path d="M60.0679 227.949C64.9228 227.949 68.8584 223.805 68.8584 218.694C68.8584 213.583 64.9228 209.439 60.0679 209.439C55.213 209.439 51.2773 213.583 51.2773 218.694C51.2773 223.805 55.213 227.949 60.0679 227.949Z" fill="#000050"/>
<path d="M90.4707 217.926H250.898" stroke="black" stroke-linecap="round" stroke-linejoin="round"/>
<path d="M250.896 226.406H90.4682C86.0729 226.406 82.4102 222.55 82.4102 217.923C82.4102 213.296 86.0729 209.439 90.4682 209.439H250.896C255.291 209.439 258.954 213.296 258.954 217.923C258.954 222.55 255.291 226.406 250.896 226.406Z" fill="#17154D"/>
<path d="M256.024 93.3698C253.827 93.3698 251.995 92.5986 250.164 91.0561C206.944 45.5536 136.619 45.5536 93.3991 91.0561C90.1026 94.5267 84.9748 94.5267 82.0446 91.0561C78.7482 87.5856 78.7482 82.187 82.0446 79.1021C131.491 27.0441 212.071 27.0441 261.885 79.1021C265.181 82.5726 265.181 87.9712 261.885 91.0561C260.053 92.5986 257.856 93.3698 256.024 93.3698Z" fill="#17154D"/>
<path d="M232.95 117.662C230.752 117.662 228.921 116.891 227.09 115.349C212.439 99.9241 192.66 91.0549 171.782 91.0549C150.905 91.0549 131.126 99.5385 116.475 115.349C113.179 118.819 108.051 118.819 105.121 115.349C101.824 111.878 101.824 106.48 105.121 103.395C123.068 84.4995 146.876 74.0879 172.149 74.0879C197.422 74.0879 221.229 84.4995 239.177 103.395C242.473 106.865 242.473 112.264 239.177 115.349C236.979 116.506 235.148 117.662 232.95 117.662Z" fill="#17154D"/>
<path d="M64.8288 69.0782C62.6312 69.0782 60.7998 68.3069 58.9684 66.7645C55.672 63.2939 55.672 57.8953 58.9684 54.8104C121.235 -10.7441 222.326 -10.7441 284.592 54.8104C287.889 58.2809 287.889 63.6795 284.592 66.7645C281.296 69.8494 276.168 70.235 273.238 66.7645C217.198 7.76541 126.363 7.76541 70.6892 66.7645C68.8578 68.3069 66.6602 69.0782 64.8288 69.0782Z" fill="#17154D"/>
<circle cx="171.203" cy="309.732" r="58.4688" fill="#E8F6FA" stroke="#000050" stroke-width="15"/>
<path d="M134.68 309.732H206.137" stroke="#000050" stroke-width="15" stroke-linecap="round"/>
<path d="M171.203 344.668L171.203 273.211" stroke="#000050" stroke-width="15" stroke-linecap="round"/>
</svg>
