<svg width="245" height="256" viewBox="0 0 245 256" fill="none" xmlns="http://www.w3.org/2000/svg">
<circle cx="124" cy="137" r="77" fill="#FFFFA0"/>
<path d="M232.751 116.615H11.5449V181.101H232.751V116.615Z" fill="white"/>
<path d="M215.434 188.237H29.1268C13.1202 188.237 0 175.167 0 159.222V137.265C0 121.32 13.1202 108.25 29.1268 108.25H215.171C231.178 108.25 244.298 121.32 244.298 137.265V159.222C244.298 175.167 231.44 188.237 215.434 188.237ZM29.1268 119.751C19.4179 119.751 11.5458 127.593 11.5458 137.265V159.222C11.5458 168.893 19.4179 176.735 29.1268 176.735H215.171C224.88 176.735 232.752 168.893 232.752 159.222V137.265C232.752 127.593 224.88 119.751 215.171 119.751H29.1268Z" fill="#17154D"/>
<path d="M40.149 116.616C37.7873 116.616 35.4257 115.047 34.6385 112.433L3.15002 7.353C2.1004 4.21627 3.93723 1.07954 7.08608 0.295363C10.2349 -0.750212 13.3838 1.07954 14.171 4.21627L45.6595 109.297C46.7091 112.433 44.8723 115.57 41.7234 116.354C41.461 116.616 40.9362 116.616 40.149 116.616Z" fill="#17154D"/>
<path d="M204.412 116.614C203.887 116.614 203.363 116.614 202.838 116.352C199.689 115.307 198.115 112.17 198.902 109.295L230.39 4.21449C231.44 1.07777 234.589 -0.490595 237.475 0.293586C240.624 1.33916 242.198 4.47589 241.411 7.35122L209.923 112.432C209.136 115.045 206.774 116.614 204.412 116.614Z" fill="#17154D"/>
<path d="M43.0321 154.518C46.5102 154.518 49.3298 151.709 49.3298 148.244C49.3298 144.779 46.5102 141.971 43.0321 141.971C39.5539 141.971 36.7344 144.779 36.7344 148.244C36.7344 151.709 39.5539 154.518 43.0321 154.518Z" fill="#000050"/>
<path d="M64.8125 147.725H179.745" stroke="black" stroke-width="1.5" stroke-linecap="round" stroke-linejoin="round"/>
<path d="M179.747 153.472H64.8139C61.6651 153.472 59.041 150.858 59.041 147.721C59.041 144.585 61.6651 141.971 64.8139 141.971H179.747C182.896 141.971 185.52 144.585 185.52 147.721C185.52 150.858 182.896 153.472 179.747 153.472Z" fill="#17154D"/>
<path d="M183.421 63.29C181.847 63.29 180.535 62.7673 179.222 61.7217C148.259 30.8772 97.8772 30.8772 66.9136 61.7217C64.5519 64.0742 60.8783 64.0742 58.779 61.7217C56.4174 59.3691 56.4174 55.7096 58.779 53.6185C94.2036 18.3303 151.932 18.3303 187.619 53.6185C189.981 55.971 189.981 59.6305 187.619 61.7217C186.307 62.7673 184.733 63.29 183.421 63.29Z" fill="#17154D"/>
<path d="M166.889 79.7582C165.315 79.7582 164.003 79.2354 162.691 78.1898C152.195 67.7341 138.025 61.722 123.068 61.722C108.111 61.722 93.941 67.4727 83.4448 78.1898C81.0832 80.5424 77.4095 80.5424 75.3103 78.1898C72.9487 75.8373 72.9487 72.1778 75.3103 70.0866C88.1681 57.2783 105.224 50.2207 123.33 50.2207C141.436 50.2207 158.492 57.2783 171.35 70.0866C173.712 72.4392 173.712 76.0987 171.35 78.1898C169.776 78.974 168.464 79.7582 166.889 79.7582Z" fill="#17154D"/>
<path d="M46.4443 46.8255C44.8699 46.8255 43.5579 46.3027 42.2458 45.2571C39.8842 42.9045 39.8842 39.245 42.2458 37.1539C86.8545 -7.28306 159.278 -7.28306 203.887 37.1539C206.248 39.5064 206.248 43.1659 203.887 45.2571C201.525 47.3482 197.851 47.6096 195.752 45.2571C155.604 5.26384 90.5282 5.26384 50.6428 45.2571C49.3307 46.3027 47.7563 46.8255 46.4443 46.8255Z" fill="#17154D"/>
<path d="M181.999 192C181.999 225.107 154.942 251.999 121.499 251.999C88.0571 251.999 61 225.107 61 192C61 158.892 88.0571 132 121.499 132C154.942 132 181.999 158.892 181.999 192Z" fill="#FFFFA0"/>
<path d="M181.999 192C181.999 225.107 154.942 251.999 121.499 251.999C88.0571 251.999 61 225.107 61 192C61 158.892 88.0571 132 121.499 132C154.942 132 181.999 158.892 181.999 192Z" stroke="#000050" stroke-width="8"/>
<path d="M181.999 192C181.999 225.107 154.942 251.999 121.499 251.999C88.0571 251.999 61 225.107 61 192C61 158.892 88.0571 132 121.499 132C154.942 132 181.999 158.892 181.999 192Z" stroke="#000050" stroke-width="8"/>
<path d="M181.999 192C181.999 225.107 154.942 251.999 121.499 251.999C88.0571 251.999 61 225.107 61 192C61 158.892 88.0571 132 121.499 132C154.942 132 181.999 158.892 181.999 192Z" stroke="#000050" stroke-width="8"/>
<path d="M131.33 172.731C130.732 172.667 130.144 172.63 129.547 172.63C125.113 172.63 120.769 174.459 116.886 177.988C115.076 179.633 113.375 181.627 111.819 183.897C111.547 175.369 111.058 166.261 110.235 156.988H98.8594C101.294 183.107 100.995 205.907 100.579 225.896C100.579 225.896 100.579 225.969 100.579 225.997H111.9C112.235 205.972 117.185 193.124 124.452 186.516C126.416 184.733 128.316 183.934 130.108 184.127C139.085 185.11 137.646 213.462 136.977 225.997H148.316C148.814 216.724 149.357 205.429 148.035 195.624C146.126 181.443 140.506 173.733 131.33 172.731Z" fill="#000050"/>
<rect x="64" y="124" width="120" height="18" fill="white"/>
<path d="M179.747 153.472H64.8139C61.6651 153.472 59.041 150.858 59.041 147.721C59.041 144.585 61.6651 141.971 64.8139 141.971H179.747C182.896 141.971 185.52 144.585 185.52 147.721C185.52 150.858 182.896 153.472 179.747 153.472Z" fill="#17154D"/>
</svg>
