<?xml version="1.0" encoding="UTF-8"?><svg id="Ebene_2" xmlns="http://www.w3.org/2000/svg" viewBox="0 0 93.1 72.01"><defs><style>.cls-1{fill:#000050;}.cls-2{fill:#17154d;}.cls-3{fill:none;stroke:#000;stroke-linecap:round;stroke-linejoin:round;stroke-width:1.5px;}</style></defs><g id="Layer_1"><g><path class="cls-2" d="M82.1,72.01H11.1c-6.1,0-11.1-5-11.1-11.1v-8.4c0-6.1,5-11.1,11.1-11.1H82c6.1,0,11.1,5,11.1,11.1v8.4c0,6.1-4.9,11.1-11,11.1ZM11.1,45.81c-3.7,0-6.7,3-6.7,6.7v8.4c0,3.7,3,6.7,6.7,6.7H82c3.7,0,6.7-3,6.7-6.7v-8.4c0-3.7-3-6.7-6.7-6.7H11.1Z"/><path class="cls-2" d="M15.3,44.61c-.9,0-1.8-.6-2.1-1.6L1.2,2.81C.8,1.61,1.5,.41,2.7,.11c1.2-.4,2.4,.3,2.7,1.5l12,40.2c.4,1.2-.3,2.4-1.5,2.7-.1,.1-.3,.1-.6,.1Z"/><path class="cls-2" d="M77.9,44.61c-.2,0-.4,0-.6-.1-1.2-.4-1.8-1.6-1.5-2.7L87.8,1.61c.4-1.2,1.6-1.8,2.7-1.5,1.2,.4,1.8,1.6,1.5,2.7l-12,40.2c-.3,1-1.2,1.6-2.1,1.6Z"/><circle class="cls-1" cx="16.4" cy="56.71" r="2.4"/><line class="cls-3" x1="24.7" y1="56.51" x2="68.5" y2="56.51"/><path class="cls-2" d="M68.5,58.71H24.7c-1.2,0-2.2-1-2.2-2.2s1-2.2,2.2-2.2h43.8c1.2,0,2.2,1,2.2,2.2s-1,2.2-2.2,2.2Z"/><path class="cls-2" d="M69.9,24.21c-.6,0-1.1-.2-1.6-.6-11.8-11.8-31-11.8-42.8,0-.9,.9-2.3,.9-3.1,0-.9-.9-.9-2.3,0-3.1,13.5-13.5,35.5-13.5,49.1,0,.9,.9,.9,2.3,0,3.1-.5,.4-1.1,.6-1.6,.6Z"/><path class="cls-2" d="M63.6,30.51c-.6,0-1.1-.2-1.6-.6-4-4-9.4-6.3-15.1-6.3s-11.1,2.2-15.1,6.3c-.9,.9-2.3,.9-3.1,0-.9-.9-.9-2.3,0-3.1,4.9-4.9,11.4-7.6,18.3-7.6s13.4,2.7,18.3,7.6c.9,.9,.9,2.3,0,3.1-.6,.3-1.1,.6-1.7,.6Z"/><path class="cls-2" d="M17.7,17.91c-.6,0-1.1-.2-1.6-.6-.9-.9-.9-2.3,0-3.1C33.1-2.79,60.7-2.79,77.7,14.21c.9,.9,.9,2.3,0,3.1s-2.3,.9-3.1,0c-15.3-15.3-40.1-15.3-55.3,0-.5,.4-1.1,.6-1.6,.6Z"/></g></g></svg>