<svg width="303" height="235" viewBox="0 0 303 235" fill="none" xmlns="http://www.w3.org/2000/svg">
<g clip-path="url(#clip0_2791_15724)">
<path d="M267.2 234.361H36.1257C16.2728 234.361 0 218.088 0 198.236V170.897C0 151.044 16.2728 134.771 36.1257 134.771H266.874C286.727 134.771 303 151.044 303 170.897V198.236C303 218.088 287.053 234.361 267.2 234.361ZM36.1257 149.092C24.0838 149.092 14.3201 158.855 14.3201 170.897V198.236C14.3201 210.277 24.0838 220.041 36.1257 220.041H266.874C278.916 220.041 288.68 210.277 288.68 198.236V170.897C288.68 158.855 278.916 149.092 266.874 149.092H36.1257Z" fill="#17154D"/>
<path d="M49.7962 145.186C46.8671 145.186 43.938 143.233 42.9616 139.979L3.90681 9.14531C2.60499 5.23983 4.88318 1.33436 8.78866 0.357986C12.6941 -0.94384 16.5996 1.33436 17.576 5.23983L56.6308 136.073C57.9326 139.979 55.6544 143.884 51.7489 144.861C51.4235 145.186 50.7725 145.186 49.7962 145.186Z" fill="#17154D"/>
<path d="M253.529 145.186C252.878 145.186 252.227 145.186 251.576 144.861C247.67 143.559 245.718 139.654 246.694 136.074L285.749 5.24003C287.051 1.33456 290.956 -0.618182 294.536 0.358187C298.442 1.66001 300.394 5.56549 299.418 9.14551L260.363 139.979C259.387 143.234 256.458 145.186 253.529 145.186Z" fill="#17154D"/>
<path d="M136.811 172.622C141.125 172.622 144.622 169.125 144.622 164.811C144.622 160.497 141.125 157 136.811 157C132.497 157 129 160.497 129 164.811C129 169.125 132.497 172.622 136.811 172.622Z" fill="#000050"/>
<path d="M171.811 172.622C176.125 172.622 179.622 169.125 179.622 164.811C179.622 160.497 176.125 157 171.811 157C167.497 157 164 160.497 164 164.811C164 169.125 167.497 172.622 171.811 172.622Z" fill="#000050"/>
<path d="M227.492 78.7932C225.539 78.7932 223.912 78.1423 222.285 76.8405C183.881 38.4366 121.393 38.4366 82.9891 76.8405C80.06 79.7696 75.5036 79.7696 72.9 76.8405C69.9708 73.9113 69.9708 69.3549 72.9 66.7513C116.837 22.8147 188.437 22.8147 232.699 66.7513C235.628 69.6804 235.628 74.2368 232.699 76.8405C231.072 78.1423 229.119 78.7932 227.492 78.7932Z" fill="#17154D"/>
<path d="M206.992 99.2961C205.039 99.2961 203.412 98.6452 201.785 97.3434C188.767 84.3251 171.192 76.8396 152.641 76.8396C134.09 76.8396 116.515 83.9997 103.497 97.3434C100.568 100.272 96.0114 100.272 93.4078 97.3434C90.4787 94.4143 90.4787 89.8579 93.4078 87.2542C109.355 71.3069 130.51 62.5195 152.966 62.5195C175.423 62.5195 196.577 71.3069 212.525 87.2542C215.454 90.1833 215.454 94.7397 212.525 97.3434C210.572 98.3197 208.945 99.2961 206.992 99.2961Z" fill="#17154D"/>
<path d="M208.177 168.284C206.201 168.284 204.554 169.04 202.907 170.552C189.732 185.673 171.945 194.367 153.171 194.367C134.396 194.367 116.609 186.051 103.434 170.552C100.47 167.149 95.8584 167.149 93.2233 170.552C90.2589 173.954 90.2589 179.246 93.2233 182.27C109.363 200.793 130.773 211 153.5 211C176.227 211 197.637 200.793 213.777 182.27C216.741 178.868 216.741 173.576 213.777 170.552C211.8 169.418 210.153 168.284 208.177 168.284Z" fill="#17154D"/>
<path d="M57.6073 58.2896C55.6545 58.2896 54.0272 57.6386 52.4 56.3368C49.4708 53.4077 49.4708 48.8513 52.4 46.2477C107.728 -9.07995 197.554 -9.07995 252.881 46.2477C255.81 49.1768 255.81 53.7332 252.881 56.3368C249.952 58.9405 245.396 59.2659 242.792 56.3368C192.997 6.54196 112.284 6.54196 62.8146 56.3368C61.1873 57.6386 59.2345 58.2896 57.6073 58.2896Z" fill="#17154D"/>
</g>
<defs>
<clipPath id="clip0_2791_15724">
<rect width="303" height="234.361" fill="white"/>
</clipPath>
</defs>
</svg>
