<svg width="363" height="424" viewBox="0 0 363 424" fill="none" xmlns="http://www.w3.org/2000/svg">
<path d="M332.659 358.658H30.3413C16.5592 358.658 5 347.523 5 333.27V30.3886C5 16.5808 16.1146 5 30.3413 5H332.659C346.441 5 358 16.1353 358 30.3886V333.27C357.555 347.078 346.441 358.658 332.659 358.658Z" fill="#E8F6FA" stroke="#17154D" stroke-width="10" stroke-linecap="round" stroke-linejoin="round"/>
<path d="M296.191 322.136H66.3413C52.5592 322.136 41 311.001 41 296.747V66.914C41 53.1061 52.1146 41.5254 66.3413 41.5254H296.191C309.974 41.5254 321.533 52.6607 321.533 66.914V297.193C321.533 311.001 309.974 322.136 296.191 322.136Z" stroke="#17154D" stroke-width="10" stroke-linecap="round" stroke-linejoin="round"/>
<path d="M182.478 238.619C213.661 238.619 238.94 213.293 238.94 182.052C238.94 150.811 213.661 125.484 182.478 125.484C151.295 125.484 126.016 150.811 126.016 182.052C126.016 213.293 151.295 238.619 182.478 238.619Z" fill="#17154D"/>
<path d="M182.389 117.689L173.941 103.881H191.28L182.389 117.689Z" fill="#17154D"/>
<path d="M184.613 136.842H180.611V146.195H184.613V136.842Z" fill="#E8F6FA"/>
<path d="M157.821 143.974L154.584 146.33L160.072 153.897L163.309 151.541L157.821 143.974Z" fill="#E8F6FA"/>
<path d="M140.42 166.271L139.184 170.084L148.063 172.974L149.299 169.162L140.42 166.271Z" fill="#E8F6FA"/>
<path d="M148.253 191.08L139.373 193.969L140.609 197.781L149.489 194.893L148.253 191.08Z" fill="#E8F6FA"/>
<path d="M160.044 209.486L154.555 217.053L157.791 219.41L163.28 211.843L160.044 209.486Z" fill="#E8F6FA"/>
<path d="M184.613 217.908H180.611V227.262H184.613V217.908Z" fill="#E8F6FA"/>
<path d="M205.278 210.089L202.041 212.445L207.529 220.013L210.766 217.656L205.278 210.089Z" fill="#E8F6FA"/>
<path d="M217.279 191.32L216.043 195.133L224.922 198.023L226.159 194.211L217.279 191.32Z" fill="#E8F6FA"/>
<path d="M225.143 166.142L216.264 169.031L217.499 172.844L226.379 169.955L225.143 166.142Z" fill="#E8F6FA"/>
<path d="M207.571 143.936L202.082 151.502L205.319 153.859L210.808 146.292L207.571 143.936Z" fill="#E8F6FA"/>
<path d="M52.0051 389.189C50.2267 389.189 48.4484 387.853 47.5592 386.071L40.4459 363.355C40.0013 362.019 40.4459 360.682 40.8905 359.346C41.7796 358.01 43.1134 357.564 44.4471 357.564H91.5731C92.9068 357.564 94.2406 358.01 95.1298 359.346C96.0189 360.682 96.0189 362.019 96.0189 363.355L89.3502 386.071C88.9056 387.853 87.1272 389.189 84.9043 389.189H52.0051Z" fill="#E8F6FA"/>
<path d="M92.0176 362.463L85.3489 385.179H52.4496L45.3363 362.463H92.0176ZM92.0176 353.555H44.8917C42.2242 353.555 39.5567 354.891 37.7783 357.118C36 359.345 35.5554 362.463 36.4446 365.135L43.5579 387.852C44.8917 391.415 48.0038 394.087 52.005 394.087H84.9043C88.9055 394.087 92.4622 391.415 93.3514 387.852L100.02 365.581C100.465 364.69 100.465 363.799 100.465 362.463C100.909 357.563 96.9081 353.555 92.0176 353.555Z" fill="#17154D"/>
<path d="M277.855 389.189C276.077 389.189 274.299 387.853 273.41 386.071L266.741 363.355C266.296 362.019 266.741 360.682 267.63 359.346C268.519 358.01 269.853 357.564 271.187 357.564H318.313C319.646 357.564 320.98 358.455 321.869 359.346C322.758 360.682 322.758 362.019 322.314 363.355L315.201 386.071C314.756 387.853 312.978 389.189 310.755 389.189H277.855Z" fill="#E8F6FA"/>
<path d="M318.313 362.463L311.199 385.179H278.3L271.631 362.463H318.313ZM318.313 353.555H271.187C268.519 353.555 265.852 354.891 264.073 357.118C262.295 359.345 261.85 362.463 262.74 365.135L269.408 387.852C270.742 391.415 273.854 394.087 277.855 394.087H310.755C314.756 394.087 317.868 391.415 319.202 387.852L326.315 365.135C327.204 362.463 326.76 359.345 324.981 357.118C323.648 354.891 320.98 353.555 318.313 353.555Z" fill="#17154D"/>
<path d="M41.0116 138.624C34.3428 138.624 29.0078 133.279 29.0078 126.598V77.6023C29.0078 70.9211 34.3428 65.5762 41.0116 65.5762C47.6804 65.5762 53.0154 70.9211 53.0154 77.6023V126.598C53.46 133.279 47.6804 138.624 41.0116 138.624Z" fill="#E8F6FA" stroke="#17154D" stroke-width="10" stroke-miterlimit="10"/>
<path d="M41.0116 298.081C34.3428 298.081 29.0078 292.736 29.0078 286.055V237.059C29.0078 230.378 34.3428 225.033 41.0116 225.033C47.6804 225.033 53.0154 230.378 53.0154 237.059V286.055C53.46 292.736 47.6804 298.081 41.0116 298.081Z" fill="#E8F6FA" stroke="#17154D" stroke-width="10" stroke-miterlimit="10"/>
<path d="M177.5 300C177.5 301.933 179.067 303.5 181 303.5C182.933 303.5 184.5 301.933 184.5 300L177.5 300ZM183.475 248.525C182.108 247.158 179.892 247.158 178.525 248.525L156.251 270.799C154.884 272.166 154.884 274.382 156.251 275.749C157.618 277.116 159.834 277.116 161.201 275.749L181 255.95L200.799 275.749C202.166 277.116 204.382 277.116 205.749 275.749C207.116 274.382 207.116 272.166 205.749 270.799L183.475 248.525ZM184.5 300L184.5 251L177.5 251L177.5 300L184.5 300Z" fill="#000050"/>
<circle cx="239.5" cy="354.5" r="69.5" fill="#003371"/>
<path d="M274.515 320.171C273.496 319.157 272.287 318.352 270.956 317.803C269.625 317.253 268.199 316.971 266.758 316.971C265.318 316.971 263.892 317.253 262.561 317.803C261.23 318.352 260.02 319.157 259.002 320.171L232.292 346.776C231.273 347.79 230.465 348.994 229.913 350.32C229.362 351.645 229.078 353.066 229.078 354.501C229.078 355.936 229.362 357.356 229.913 358.682C230.465 360.008 231.273 361.211 232.292 362.226L259.002 388.83C260.02 389.845 261.23 390.65 262.561 391.199C263.892 391.749 265.318 392.031 266.758 392.031C268.199 392.031 269.625 391.749 270.956 391.199C272.287 390.65 273.496 389.845 274.515 388.83C275.533 387.816 276.341 386.611 276.893 385.286C277.444 383.96 277.728 382.54 277.728 381.105C277.728 379.67 277.444 378.25 276.893 376.925C276.341 375.599 275.533 374.394 274.515 373.38L258.137 357.08C257.796 356.742 257.526 356.34 257.341 355.897C257.157 355.455 257.062 354.98 257.062 354.501C257.062 354.022 257.157 353.547 257.341 353.105C257.526 352.662 257.796 352.26 258.137 351.922L274.515 335.622C275.533 334.607 276.341 333.403 276.893 332.078C277.444 330.752 277.728 329.331 277.728 327.896C277.728 326.462 277.444 325.041 276.893 323.716C276.341 322.39 275.533 321.186 274.515 320.171Z" fill="#04795B"/>
<path d="M259.004 388.813C263.288 393.096 270.232 393.096 274.516 388.813C278.799 384.53 278.799 377.585 274.516 373.302L247.802 346.588C243.519 342.304 236.574 342.304 232.291 346.588C228.007 350.871 228.007 357.815 232.291 362.099L259.004 388.813Z" fill="#0DB50A"/>
<path d="M248.057 346.776L220.964 320.171C219.931 319.157 218.705 318.352 217.355 317.803C216.005 317.253 214.558 316.971 213.097 316.971C211.636 316.971 210.189 317.253 208.839 317.803C207.489 318.352 206.263 319.157 205.23 320.171C204.197 321.186 203.377 322.39 202.818 323.716C202.259 325.041 201.971 326.462 201.971 327.896C201.971 329.331 202.259 330.752 202.818 332.078C203.377 333.403 204.197 334.607 205.23 335.622L221.829 351.922C222.175 352.26 222.449 352.662 222.636 353.105C222.823 353.547 222.92 354.022 222.92 354.501C222.92 354.98 222.823 355.455 222.636 355.897C222.449 356.34 222.175 356.742 221.829 357.08L205.23 373.38C204.197 374.394 203.377 375.599 202.818 376.925C202.259 378.25 201.971 379.67 201.971 381.105C201.971 382.54 202.259 383.96 202.818 385.286C203.377 386.611 204.197 387.816 205.23 388.83C206.263 389.845 207.489 390.65 208.839 391.199C210.189 391.749 211.636 392.031 213.097 392.031C214.558 392.031 216.005 391.749 217.355 391.199C218.705 390.65 219.931 389.845 220.964 388.83L240.183 369.945L248.057 362.226C249.09 361.211 249.91 360.008 250.469 358.682C251.028 357.356 251.316 355.936 251.316 354.501C251.316 353.066 251.028 351.645 250.469 350.32C249.91 348.994 249.09 347.79 248.057 346.776Z" fill="#0AE33A"/>
<path d="M266.952 338.516C272.902 338.516 277.725 333.693 277.725 327.743C277.725 321.794 272.902 316.971 266.952 316.971C261.003 316.971 256.18 321.794 256.18 327.743C256.18 333.693 261.003 338.516 266.952 338.516Z" fill="#0AE33A"/>
<path d="M123.5 424.001C161.884 424.001 193.001 392.884 193.001 354.5C193.001 316.116 161.884 285 123.5 285C85.1164 285 54 316.116 54 354.5C54 392.884 85.1164 424.001 123.5 424.001Z" fill="#FFFFA0"/>
<path d="M153.5 333.205C152.838 333.094 152.176 333.094 151.514 333.094C146.55 333.094 141.696 335.08 137.283 339.052C135.187 340.817 133.311 343.023 131.546 345.56C131.215 336.073 130.664 326.034 129.781 315.885H116.984C119.742 344.788 119.411 369.941 118.97 392.004V392.115H131.657C131.988 369.941 137.614 355.82 145.777 348.539C147.984 346.553 150.08 345.671 152.176 345.891C162.215 346.994 160.67 378.325 159.898 392.225H172.585C173.136 381.965 173.688 369.499 172.254 358.688C170.158 342.913 163.87 334.418 153.5 333.205Z" fill="url(#paint0_linear_2164_18114)"/>
<path d="M72.3145 316.117H81.8018L83.7875 331.341C84.2288 334.54 84.4494 337.74 84.8907 341.049H85.1113C85.4423 337.74 85.9939 334.43 86.6558 331.341L88.7518 320.53H95.8122L97.9082 331.341C98.5701 334.54 99.1217 337.74 99.563 341.049H99.7836C100.225 337.74 100.335 334.54 100.666 331.341L102.542 316.117H111.588L106.513 348.992H95.1503L93.3852 338.291C92.9439 335.423 92.613 332.334 92.1717 328.583H91.9511C91.6201 331.341 91.3995 334.209 90.8479 338.291L89.0828 348.992H77.8304L72.3145 316.117Z" fill="#414141"/>
<path d="M85.8852 374.912L75.2947 359.137H85.7749L89.1948 364.432C90.1877 366.307 91.5115 368.183 92.6146 370.058H92.8353C93.7178 368.293 94.7107 366.307 95.5932 364.432L98.4615 359.137H108.611L97.9099 376.015L109.273 392.011H98.7925L95.0416 386.606C93.8281 384.731 92.5043 382.745 91.2908 380.869H91.0702C90.0773 382.745 88.9742 384.62 87.9813 386.606L84.7821 392.011H74.6328L85.8852 374.912Z" fill="#414141"/>
<defs>
<linearGradient id="paint0_linear_2164_18114" x1="145.071" y1="394.564" x2="145.071" y2="330.712" gradientUnits="userSpaceOnUse">
<stop stop-color="#0000B4"/>
<stop offset="1" stop-color="#000050"/>
</linearGradient>
</defs>
</svg>
