<svg width="504" height="381" viewBox="0 0 504 381" fill="none" xmlns="http://www.w3.org/2000/svg">
<g filter="url(#filter0_d_0_1)">
<path d="M20 70C20 42.3858 42.3858 20 70 20H434C461.614 20 484 42.3858 484 70V310.833C484 338.447 461.614 360.833 434 360.833H70C42.3858 360.833 20 338.447 20 310.833V70Z" fill="white"/>
</g>
<path fill-rule="evenodd" clip-rule="evenodd" d="M309.036 57H194.026L139.074 112.058V293.436H309.036V57Z" fill="white" stroke="#000050" stroke-width="6"/>
<path fill-rule="evenodd" clip-rule="evenodd" d="M191.047 59.9844L142.055 109.071H191.047V59.9844Z" fill="white" stroke="#000050" stroke-width="6"/>
<path d="M166.465 124.553H283.05" stroke="#000050" stroke-width="6" stroke-linecap="square"/>
<path d="M166.465 152.699H257.767" stroke="#000050" stroke-width="6" stroke-linecap="square"/>
<path d="M166.465 180.848H283.05" stroke="#000050" stroke-width="6" stroke-linecap="square"/>
<path d="M166.465 210.402H283.05" stroke="#000050" stroke-width="6" stroke-linecap="square"/>
<path d="M167.869 238.549H225.46" stroke="#000050" stroke-width="6" stroke-linecap="square"/>
<path d="M167.869 266.695H225.46" stroke="#000050" stroke-width="6" stroke-linecap="square"/>
<path fill-rule="evenodd" clip-rule="evenodd" d="M376.997 293.833C362.704 293.833 351.119 282.225 351.119 267.906C351.119 253.586 362.704 241.978 376.997 241.978V221.402H206.238V241.614C219.749 242.479 230.443 253.726 230.443 267.482C230.443 281.237 219.749 292.484 206.238 293.35V314.409H376.997V293.833Z" fill="white"/>
<path fill-rule="evenodd" clip-rule="evenodd" d="M376.997 293.833C362.704 293.833 351.119 282.225 351.119 267.906C351.119 253.586 362.704 241.978 376.997 241.978V221.402H206.238V241.614C219.749 242.479 230.443 253.726 230.443 267.482C230.443 281.237 219.749 292.484 206.238 293.35V314.409H376.997V293.833Z" stroke="#000050" stroke-width="6"/>
<path d="M333.291 297.211V314.241" stroke="#000050" stroke-width="6"/>
<path d="M333.291 272.65V289.68" stroke="#000050" stroke-width="6"/>
<path d="M333.291 247.434V264.463" stroke="#000050" stroke-width="6"/>
<path d="M333.291 221.402V238.432" stroke="#000050" stroke-width="6"/>
<path fill-rule="evenodd" clip-rule="evenodd" d="M315.773 267.905C315.773 281.272 304.958 292.108 291.617 292.108C278.277 292.108 267.461 281.272 267.461 267.905C267.461 254.539 278.277 243.703 291.617 243.703C304.958 243.703 315.773 254.539 315.773 267.905Z" fill="#FFFFA0"/>
<path fill-rule="evenodd" clip-rule="evenodd" d="M365.76 310.722C351.468 310.722 339.882 299.113 339.882 284.794C339.882 270.474 351.468 258.866 365.76 258.866V238.291H195.002V258.503C208.513 259.368 219.206 270.615 219.206 284.371C219.206 298.126 208.513 309.373 195.002 310.238V331.298H365.76V310.722Z" fill="white"/>
<path fill-rule="evenodd" clip-rule="evenodd" d="M365.76 310.722C351.468 310.722 339.882 299.113 339.882 284.794C339.882 270.474 351.468 258.866 365.76 258.866V238.291H195.002V258.503C208.513 259.368 219.206 270.615 219.206 284.371C219.206 298.126 208.513 309.373 195.002 310.238V331.297H365.76V310.722Z" stroke="#000050" stroke-width="6"/>
<path d="M322.055 314.1V331.129" stroke="#000050" stroke-width="6"/>
<path d="M322.055 289.539V306.569" stroke="#000050" stroke-width="6"/>
<path d="M322.055 264.322V281.352" stroke="#000050" stroke-width="6"/>
<path d="M322.055 238.291V255.321" stroke="#000050" stroke-width="6"/>
<path fill-rule="evenodd" clip-rule="evenodd" d="M304.536 284.794C304.536 298.16 293.722 308.997 280.381 308.997C267.04 308.997 256.225 298.16 256.225 284.794C256.225 271.427 267.04 260.592 280.381 260.592C293.722 260.592 304.536 271.427 304.536 284.794Z" fill="#FFFFA0"/>
<path d="M304.54 246.864C330.739 246.864 351.978 225.66 351.978 199.504C351.978 173.348 330.739 152.145 304.54 152.145C278.34 152.145 257.102 173.348 257.102 199.504C257.102 225.66 278.34 246.864 304.54 246.864Z" fill="#FFFFA0" stroke="#000050" stroke-width="6"/>
<path fill-rule="evenodd" clip-rule="evenodd" d="M313.931 181.783C313.409 181.727 312.888 181.7 312.369 181.7C308.471 181.7 304.659 183.255 301.252 186.252C299.66 187.654 298.172 189.345 296.804 191.28C296.564 184.03 296.136 176.282 295.414 168.402H285.422C287.561 190.603 287.3 209.985 286.929 226.984H286.933C286.931 227.014 286.931 227.043 286.929 227.072H296.869C297.164 210.045 301.509 199.12 307.891 193.506C309.616 191.989 311.285 191.307 312.857 191.472C320.736 192.31 319.478 216.416 318.887 227.072H328.844C329.277 219.191 329.755 209.588 328.596 201.251C326.921 189.19 321.986 182.641 313.931 181.783Z" fill="#000050"/>
<path d="M304.54 235.606C330.739 235.606 351.978 214.402 351.978 188.246C351.978 162.09 330.739 140.887 304.54 140.887C278.34 140.887 257.102 162.09 257.102 188.246C257.102 214.402 278.34 235.606 304.54 235.606Z" fill="#FFFFA0" stroke="#000050" stroke-width="6"/>
<path fill-rule="evenodd" clip-rule="evenodd" d="M313.931 170.525C313.409 170.469 312.888 170.442 312.369 170.442C308.471 170.442 304.659 171.997 301.252 174.995C299.66 176.396 298.172 178.087 296.804 180.022C296.564 172.772 296.136 165.024 295.414 157.145H285.422C287.561 179.346 287.3 198.727 286.929 215.726H286.933C286.931 215.756 286.931 215.785 286.929 215.814H296.869C297.164 198.787 301.509 187.863 307.891 182.248C309.616 180.731 311.285 180.05 312.857 180.214C320.736 181.052 319.478 205.158 318.887 215.814H328.844C329.277 207.933 329.755 198.33 328.596 189.993C326.921 177.933 321.986 171.383 313.931 170.525Z" fill="#000050"/>
<path d="M304.54 224.346C330.739 224.346 351.978 203.143 351.978 176.987C351.978 150.831 330.739 129.627 304.54 129.627C278.34 129.627 257.102 150.831 257.102 176.987C257.102 203.143 278.34 224.346 304.54 224.346Z" fill="#FFFFA0" stroke="#000050" stroke-width="6"/>
<path fill-rule="evenodd" clip-rule="evenodd" d="M313.931 159.265C313.409 159.209 312.888 159.182 312.369 159.182C308.471 159.182 304.659 160.737 301.252 163.735C299.66 165.136 298.172 166.827 296.804 168.763C296.564 161.513 296.136 153.764 295.414 145.885H285.422C287.561 168.086 287.3 187.468 286.929 204.466H286.933C286.931 204.497 286.931 204.525 286.929 204.554H296.869C297.164 187.527 301.509 176.603 307.891 170.988C309.616 169.472 311.285 168.79 312.857 168.954C320.736 169.792 319.478 193.898 318.887 204.554H328.844C329.277 196.673 329.755 187.071 328.596 178.733C326.921 166.673 321.986 160.123 313.931 159.265Z" fill="#000050"/>
<path d="M304.54 211.68C330.739 211.68 351.978 190.477 351.978 164.321C351.978 138.165 330.739 116.961 304.54 116.961C278.34 116.961 257.102 138.165 257.102 164.321C257.102 190.477 278.34 211.68 304.54 211.68Z" fill="#FFFFA0" stroke="#000050" stroke-width="6"/>
<path fill-rule="evenodd" clip-rule="evenodd" d="M313.931 146.599C313.409 146.543 312.888 146.516 312.369 146.516C308.471 146.516 304.659 148.071 301.252 151.069C299.66 152.47 298.172 154.161 296.804 156.097C296.564 148.847 296.136 141.098 295.414 133.219H285.422C287.561 155.42 287.3 174.802 286.929 191.8H286.933C286.931 191.831 286.931 191.859 286.929 191.888H296.869C297.164 174.861 301.509 163.937 307.891 158.322C309.616 156.806 311.285 156.124 312.857 156.288C320.736 157.126 319.478 181.232 318.887 191.888H328.844C329.277 184.007 329.755 174.405 328.596 166.067C326.921 154.007 321.986 147.457 313.931 146.599Z" fill="#000050"/>
<defs>
<filter id="filter0_d_0_1" x="0" y="0" width="504" height="380.832" filterUnits="userSpaceOnUse" color-interpolation-filters="sRGB">
<feFlood flood-opacity="0" result="BackgroundImageFix"/>
<feColorMatrix in="SourceAlpha" type="matrix" values="0 0 0 0 0 0 0 0 0 0 0 0 0 0 0 0 0 0 127 0" result="hardAlpha"/>
<feOffset/>
<feGaussianBlur stdDeviation="10"/>
<feComposite in2="hardAlpha" operator="out"/>
<feColorMatrix type="matrix" values="0 0 0 0 0 0 0 0 0 0 0 0 0 0 0 0 0 0 0.3 0"/>
<feBlend mode="normal" in2="BackgroundImageFix" result="effect1_dropShadow_0_1"/>
<feBlend mode="normal" in="SourceGraphic" in2="effect1_dropShadow_0_1" result="shape"/>
</filter>
</defs>
</svg>
