<svg width="14" height="14" viewBox="0 0 14 14" fill="none" xmlns="http://www.w3.org/2000/svg">
<circle cx="7" cy="7" r="6.25" fill="#000050" stroke="#000050" stroke-width="1.5"/>
<path d="M6.398 8.195C6.354 7.953 6.36133 7.73667 6.42 7.546C6.486 7.348 6.574 7.172 6.684 7.018C6.794 6.864 6.91867 6.72467 7.058 6.6C7.20467 6.47533 7.34033 6.35433 7.465 6.237C7.58967 6.11967 7.696 6.00233 7.784 5.885C7.872 5.76767 7.916 5.63933 7.916 5.5C7.916 5.26533 7.839 5.093 7.685 4.983C7.531 4.86567 7.33667 4.807 7.102 4.807C6.87467 4.807 6.673 4.85467 6.497 4.95C6.321 5.04533 6.14867 5.16633 5.98 5.313L5.078 4.488C5.342 4.19467 5.65367 3.95633 6.013 3.773C6.37233 3.58967 6.772 3.498 7.212 3.498C7.52733 3.498 7.82067 3.53467 8.092 3.608C8.37067 3.68133 8.609 3.795 8.807 3.949C9.01233 4.09567 9.17367 4.28267 9.291 4.51C9.40833 4.73 9.467 4.99033 9.467 5.291C9.467 5.533 9.423 5.74567 9.335 5.929C9.247 6.105 9.137 6.26633 9.005 6.413C8.873 6.55233 8.73367 6.68433 8.587 6.809C8.44033 6.93367 8.30467 7.06567 8.18 7.205C8.05533 7.337 7.95633 7.48367 7.883 7.645C7.80967 7.799 7.784 7.98233 7.806 8.195H6.398ZM7.146 11.132C6.83067 11.132 6.56667 11.0293 6.354 10.824C6.14867 10.6113 6.046 10.34 6.046 10.01C6.046 9.68 6.14867 9.416 6.354 9.218C6.56667 9.01267 6.83067 8.91 7.146 8.91C7.46133 8.91 7.72167 9.01267 7.927 9.218C8.13967 9.416 8.246 9.68 8.246 10.01C8.246 10.34 8.13967 10.6113 7.927 10.824C7.72167 11.0293 7.46133 11.132 7.146 11.132Z" fill="white"/>
</svg>
