<svg width="346" height="237" viewBox="0 0 346 237" fill="none" xmlns="http://www.w3.org/2000/svg">
<path d="M262.873 213.17H85.1271C77.0239 213.17 70.2278 206.623 70.2278 198.243V20.1654C70.2278 12.0471 76.7626 5.23828 85.1271 5.23828H262.873C270.976 5.23828 277.772 11.7852 277.772 20.1654V198.243C277.511 206.361 270.976 213.17 262.873 213.17Z" fill="white" stroke="#17154D" stroke-width="6" stroke-linecap="round" stroke-linejoin="round"/>
<path d="M241.439 191.696H106.3C98.1966 191.696 91.4004 185.149 91.4004 176.769V41.64C91.4004 33.5217 97.9352 26.7129 106.3 26.7129H241.439C249.542 26.7129 256.338 33.2599 256.338 41.64V177.031C256.338 185.149 249.542 191.696 241.439 191.696Z" stroke="#17154D" stroke-width="6" stroke-linecap="round" stroke-linejoin="round"/>
<path d="M174.575 142.593C192.909 142.593 207.772 127.703 207.772 109.335C207.772 90.9665 192.909 76.0762 174.575 76.0762C156.241 76.0762 141.378 90.9665 141.378 109.335C141.378 127.703 156.241 142.593 174.575 142.593Z" fill="#17154D"/>
<path d="M174.523 71.4932L169.556 63.375H179.751L174.523 71.4932Z" fill="#17154D"/>
<path d="M175.83 82.7539H173.477V88.2534H175.83V82.7539Z" fill="white"/>
<path d="M160.078 86.9467L158.175 88.332L161.402 92.7812L163.305 91.3958L160.078 86.9467Z" fill="white"/>
<path d="M149.848 100.057L149.121 102.299L154.341 103.998L155.068 101.757L149.848 100.057Z" fill="white"/>
<path d="M154.453 114.643L149.232 116.342L149.959 118.583L155.179 116.885L154.453 114.643Z" fill="white"/>
<path d="M161.386 125.465L158.159 129.914L160.062 131.3L163.289 126.851L161.386 125.465Z" fill="white"/>
<path d="M175.83 130.416H173.477V135.915H175.83V130.416Z" fill="white"/>
<path d="M187.982 125.82L186.078 127.205L189.305 131.654L191.208 130.269L187.982 125.82Z" fill="white"/>
<path d="M195.036 114.784L194.309 117.025L199.53 118.725L200.257 116.483L195.036 114.784Z" fill="white"/>
<path d="M199.659 99.9812L194.438 101.68L195.165 103.921L200.386 102.223L199.659 99.9812Z" fill="white"/>
<path d="M189.328 86.9245L186.1 91.373L188.003 92.7587L191.231 88.3101L189.328 86.9245Z" fill="white"/>
<path d="M96.3663 231.121C95.3208 231.121 94.2752 230.335 93.7524 229.288L89.5702 215.932C89.3088 215.146 89.5702 214.36 89.8316 213.575C90.3544 212.789 91.1385 212.527 91.9227 212.527H119.63C120.414 212.527 121.198 212.789 121.721 213.575C122.244 214.36 122.244 215.146 122.244 215.932L118.323 229.288C118.062 230.335 117.016 231.121 115.709 231.121H96.3663Z" fill="white"/>
<path d="M119.892 215.407L115.971 228.763H96.6278L92.4455 215.407H119.892ZM119.892 210.17H92.1841C90.6158 210.17 89.0474 210.956 88.0019 212.265C86.9563 213.574 86.6949 215.407 87.2177 216.979L91.3999 230.335C92.1841 232.43 94.0139 234.001 96.3664 234.001H115.709C118.062 234.001 120.153 232.43 120.676 230.335L124.597 217.241C124.858 216.717 124.858 216.193 124.858 215.407C125.119 212.527 122.767 210.17 119.892 210.17Z" fill="#17154D"/>
<path d="M229.153 231.121C228.107 231.121 227.062 230.335 226.539 229.288L222.618 215.932C222.357 215.146 222.618 214.36 223.141 213.575C223.664 212.789 224.448 212.527 225.232 212.527H252.94C253.724 212.527 254.508 213.051 255.031 213.575C255.553 214.36 255.553 215.146 255.292 215.932L251.11 229.288C250.848 230.335 249.803 231.121 248.496 231.121H229.153Z" fill="white"/>
<path d="M252.939 215.407L248.757 228.763H229.414L225.493 215.407H252.939ZM252.939 210.17H225.232C223.664 210.17 222.095 210.956 221.05 212.265C220.004 213.574 219.743 215.407 220.266 216.979L224.186 230.335C224.971 232.43 226.8 234.001 229.153 234.001H248.496C250.848 234.001 252.678 232.43 253.462 230.335L257.644 216.979C258.167 215.407 257.906 213.574 256.86 212.265C256.076 210.956 254.508 210.17 252.939 210.17Z" fill="#17154D"/>
<path d="M91.4003 83.8016C87.4795 83.8016 84.3428 80.659 84.3428 76.7309V47.9242C84.3428 43.9961 87.4795 40.8535 91.4003 40.8535C95.3212 40.8535 98.4579 43.9961 98.4579 47.9242V76.7309C98.7193 80.659 95.3212 83.8016 91.4003 83.8016Z" fill="white" stroke="#17154D" stroke-width="6" stroke-miterlimit="10"/>
<path d="M91.4003 177.554C87.4795 177.554 84.3428 174.411 84.3428 170.483V141.676C84.3428 137.748 87.4795 134.605 91.4003 134.605C95.3212 134.605 98.4579 137.748 98.4579 141.676V170.483C98.7193 174.411 95.3212 177.554 91.4003 177.554Z" fill="white" stroke="#17154D" stroke-width="6" stroke-miterlimit="10"/>
<circle cx="282.535" cy="173.535" r="62.5346" fill="#CBFFD0"/>
<path d="M247.625 178.306L267.968 198.649L317.443 149.174" stroke="#00C213" stroke-width="8" stroke-linecap="round"/>
<ellipse cx="15" cy="166.5" rx="15" ry="15.5" fill="#CBFFD0"/>
<path d="M6.62622 167.682L11.5057 172.724L23.3732 160.461" stroke="#00C213" stroke-width="8" stroke-linecap="round"/>
</svg>
