<svg width="308" height="268" viewBox="0 0 308 268" fill="none" xmlns="http://www.w3.org/2000/svg">
<path d="M242.873 222.17H65.1268C57.0237 222.17 50.2275 215.623 50.2275 207.243V29.1654C50.2275 21.0471 56.7623 14.2383 65.1268 14.2383H242.873C250.976 14.2383 257.772 20.7852 257.772 29.1654V207.243C257.511 215.361 250.976 222.17 242.873 222.17Z" fill="white" stroke="#17154D" stroke-width="6" stroke-linecap="round" stroke-linejoin="round"/>
<path d="M221.439 200.696H86.2997C78.1966 200.696 71.4004 194.149 71.4004 185.769V50.64C71.4004 42.5217 77.9352 35.7129 86.2997 35.7129H221.439C229.542 35.7129 236.338 42.2599 236.338 50.64V186.031C236.338 194.149 229.542 200.696 221.439 200.696Z" stroke="#17154D" stroke-width="6" stroke-linecap="round" stroke-linejoin="round"/>
<path d="M154.575 151.593C172.909 151.593 187.771 136.703 187.771 118.335C187.771 99.9665 172.909 85.0762 154.575 85.0762C136.241 85.0762 121.378 99.9665 121.378 118.335C121.378 136.703 136.241 151.593 154.575 151.593Z" fill="#17154D"/>
<path d="M154.522 80.4932L149.556 72.375H159.75L154.522 80.4932Z" fill="#17154D"/>
<path d="M155.829 91.7539H153.477V97.2534H155.829V91.7539Z" fill="white"/>
<path d="M140.078 95.9467L138.175 97.332L141.401 101.781L143.305 100.396L140.078 95.9467Z" fill="white"/>
<path d="M129.847 109.057L129.12 111.299L134.341 112.998L135.068 110.757L129.847 109.057Z" fill="white"/>
<path d="M134.452 123.643L129.231 125.342L129.958 127.583L135.179 125.885L134.452 123.643Z" fill="white"/>
<path d="M141.385 134.465L138.158 138.914L140.061 140.3L143.288 135.851L141.385 134.465Z" fill="white"/>
<path d="M155.829 139.416H153.477V144.915H155.829V139.416Z" fill="white"/>
<path d="M167.981 134.82L166.078 136.205L169.305 140.654L171.208 139.269L167.981 134.82Z" fill="white"/>
<path d="M175.036 123.784L174.309 126.025L179.529 127.725L180.256 125.483L175.036 123.784Z" fill="white"/>
<path d="M179.659 108.981L174.438 110.68L175.165 112.921L180.386 111.223L179.659 108.981Z" fill="white"/>
<path d="M169.327 95.9245L166.1 100.373L168.003 101.759L171.23 97.3101L169.327 95.9245Z" fill="white"/>
<path d="M76.3663 240.121C75.3208 240.121 74.2752 239.335 73.7524 238.288L69.5702 224.932C69.3088 224.146 69.5702 223.36 69.8316 222.575C70.3544 221.789 71.1385 221.527 71.9227 221.527H99.6301C100.414 221.527 101.198 221.789 101.721 222.575C102.244 223.36 102.244 224.146 102.244 224.932L98.3232 238.288C98.0618 239.335 97.0162 240.121 95.7093 240.121H76.3663Z" fill="white"/>
<path d="M99.8913 224.407L95.9704 237.763H76.6275L72.4453 224.407H99.8913ZM99.8913 219.17H72.1839C70.6155 219.17 69.0472 219.956 68.0016 221.265C66.9561 222.574 66.6947 224.407 67.2174 225.979L71.3997 239.335C72.1839 241.43 74.0136 243.001 76.3661 243.001H95.7091C98.0616 243.001 100.153 241.43 100.675 239.335L104.596 226.241C104.858 225.717 104.858 225.193 104.858 224.407C105.119 221.527 102.767 219.17 99.8913 219.17Z" fill="#17154D"/>
<path d="M209.153 240.121C208.107 240.121 207.062 239.335 206.539 238.288L202.618 224.932C202.357 224.146 202.618 223.36 203.141 222.575C203.664 221.789 204.448 221.527 205.232 221.527H232.94C233.724 221.527 234.508 222.051 235.031 222.575C235.553 223.36 235.553 224.146 235.292 224.932L231.11 238.288C230.848 239.335 229.803 240.121 228.496 240.121H209.153Z" fill="white"/>
<path d="M232.939 224.407L228.757 237.763H209.414L205.493 224.407H232.939ZM232.939 219.17H205.232C203.663 219.17 202.095 219.956 201.049 221.265C200.004 222.574 199.743 224.407 200.265 225.979L204.186 239.335C204.97 241.43 206.8 243.001 209.153 243.001H228.496C230.848 243.001 232.678 241.43 233.462 239.335L237.644 225.979C238.167 224.407 237.906 222.574 236.86 221.265C236.076 219.956 234.508 219.17 232.939 219.17Z" fill="#17154D"/>
<path d="M71.4003 92.8016C67.4795 92.8016 64.3428 89.659 64.3428 85.7309V56.9242C64.3428 52.9961 67.4795 49.8535 71.4003 49.8535C75.3212 49.8535 78.4579 52.9961 78.4579 56.9242V85.7309C78.7193 89.659 75.3212 92.8016 71.4003 92.8016Z" fill="white" stroke="#17154D" stroke-width="6" stroke-miterlimit="10"/>
<path d="M71.4003 186.554C67.4795 186.554 64.3428 183.411 64.3428 179.483V150.676C64.3428 146.748 67.4795 143.605 71.4003 143.605C75.3212 143.605 78.4579 146.748 78.4579 150.676V179.483C78.7193 183.411 75.3212 186.554 71.4003 186.554Z" fill="white" stroke="#17154D" stroke-width="6" stroke-miterlimit="10"/>
<circle cx="249" cy="116" r="37" fill="white" stroke="#000050" stroke-width="6"/>
<path d="M225 116H272" stroke="#000050" stroke-width="6" stroke-linecap="round"/>
<path d="M249 139L249 92" stroke="#000050" stroke-width="6" stroke-linecap="round"/>
</svg>
