<?xml version="1.0" standalone="no"?>
<!DOCTYPE svg PUBLIC "-//W3C//DTD SVG 20010904//EN"
 "http://www.w3.org/TR/2001/REC-SVG-20010904/DTD/svg10.dtd">
<svg version="1.0" xmlns="http://www.w3.org/2000/svg"
 width="400.000000pt" height="400.000000pt" viewBox="0 0 400.000000 400.000000"
 preserveAspectRatio="xMidYMid meet">
<metadata>
Created by potrace 1.16, written by Peter Selinger 2001-2019
</metadata>
<g transform="translate(0.000000,400.000000) scale(0.100000,-0.100000)"
fill="#000000" stroke="none">
<path d="M1305 3341 c-48 -12 -82 -39 -105 -85 -17 -37 -20 -62 -20 -193 0
-139 -2 -152 -22 -183 -48 -70 -62 -74 -246 -80 -186 -6 -207 -12 -252 -78
l-25 -36 0 -295 c0 -291 0 -297 23 -333 14 -22 41 -45 67 -58 42 -20 57 -21
233 -18 l189 3 37 29 c62 47 66 65 66 339 0 232 1 245 23 287 13 26 36 53 57
65 34 19 56 20 675 25 l640 5 33 23 c60 43 67 68 70 258 2 103 -1 187 -7 212
-13 48 -64 96 -118 111 -43 12 -1269 14 -1318 2z"/>
<path d="M1769 2267 c-18 -12 -44 -40 -56 -62 -21 -37 -23 -52 -23 -218 0
-194 6 -222 56 -269 42 -38 92 -48 254 -48 162 0 212 10 253 48 54 50 57 65
57 270 0 180 -1 191 -23 223 -12 18 -38 44 -56 56 -32 22 -43 23 -231 23 -189
0 -199 -1 -231 -23z"/>
<path d="M2820 1957 c-19 -12 -43 -38 -54 -57 -19 -32 -21 -56 -26 -300 -5
-290 -7 -298 -67 -337 -25 -17 -78 -18 -668 -23 l-640 -5 -38 -24 c-71 -44
-79 -75 -75 -296 3 -215 6 -223 78 -273 l33 -22 664 0 c641 0 665 1 702 20 70
35 79 62 83 250 4 187 12 212 75 252 35 21 52 23 208 28 188 6 205 11 245 75
19 31 20 49 20 331 l0 299 -24 36 c-43 63 -69 69 -289 69 -185 0 -196 -1 -227
-23z"/>
</g>
</svg>
