<svg width="326" height="133" viewBox="0 0 326 133" fill="none" xmlns="http://www.w3.org/2000/svg">
<path d="M311.316 122.2H216.543C208.401 122.2 201.727 115.173 201.727 106.601V94.7963C201.727 86.2239 208.401 79.1973 216.543 79.1973H311.183C319.325 79.1973 325.999 86.2239 325.999 94.7963V106.601C325.999 115.173 319.459 122.2 311.316 122.2ZM216.543 85.3807C211.604 85.3807 207.6 89.5966 207.6 94.7963V106.601C207.6 111.801 211.604 116.017 216.543 116.017H311.183C316.122 116.017 320.126 111.801 320.126 106.601V94.7963C320.126 89.5966 316.122 85.3807 311.183 85.3807H216.543Z" fill="#17154D"/>
<path d="M222.148 83.6955C220.946 83.6955 219.745 82.8523 219.345 81.447L203.327 24.9532C202.793 23.2668 203.727 21.5804 205.329 21.1588C206.931 20.5967 208.532 21.5804 208.933 23.2668L224.951 79.7606C225.485 81.447 224.55 83.1334 222.949 83.555C222.815 83.6955 222.548 83.6955 222.148 83.6955Z" fill="#17154D"/>
<path d="M305.71 83.693C305.443 83.693 305.176 83.693 304.909 83.5525C303.307 82.9904 302.506 81.304 302.907 79.7581L318.925 23.2642C319.459 21.5779 321.06 20.7347 322.529 21.1563C324.131 21.7184 324.931 23.4048 324.531 24.9506L308.513 81.4445C308.113 82.8498 306.911 83.693 305.71 83.693Z" fill="#17154D"/>
<path d="M223.618 104.074C225.387 104.074 226.821 102.564 226.821 100.701C226.821 98.8382 225.387 97.3281 223.618 97.3281C221.848 97.3281 220.414 98.8382 220.414 100.701C220.414 102.564 221.848 104.074 223.618 104.074Z" fill="#000050"/>
<path d="M234.695 100.42H293.161" stroke="black" stroke-linecap="round" stroke-linejoin="round"/>
<path d="M293.16 103.512H234.694C233.093 103.512 231.758 102.106 231.758 100.42C231.758 98.7334 233.093 97.3281 234.694 97.3281H293.16C294.762 97.3281 296.097 98.7334 296.097 100.42C296.097 102.106 294.762 103.512 293.16 103.512Z" fill="#17154D"/>
<path d="M295.032 55.0262C294.231 55.0262 293.564 54.7451 292.896 54.183C277.145 37.6002 251.517 37.6002 235.766 54.183C234.564 55.4478 232.695 55.4478 231.628 54.183C230.426 52.9182 230.426 50.9508 231.628 49.8265C249.648 30.8547 279.014 30.8547 297.168 49.8265C298.369 51.0913 298.369 53.0588 297.168 54.183C296.5 54.7451 295.699 55.0262 295.032 55.0262Z" fill="#17154D"/>
<path d="M286.623 63.8801C285.822 63.8801 285.155 63.5991 284.488 63.0369C279.148 57.4156 271.94 54.1834 264.332 54.1834C256.723 54.1834 249.515 57.2751 244.176 63.0369C242.974 64.3017 241.106 64.3017 240.038 63.0369C238.836 61.7721 238.836 59.8047 240.038 58.6804C246.578 51.7944 255.255 48 264.465 48C273.675 48 282.352 51.7944 288.893 58.6804C290.094 59.9452 290.094 61.9127 288.893 63.0369C288.092 63.4585 287.424 63.8801 286.623 63.8801Z" fill="#17154D"/>
<path d="M225.353 46.1761C224.552 46.1761 223.885 45.895 223.217 45.3329C222.016 44.0681 222.016 42.1007 223.217 40.9764C245.91 17.086 282.751 17.086 305.443 40.9764C306.644 42.2412 306.644 44.2087 305.443 45.3329C304.242 46.4572 302.373 46.5977 301.305 45.3329C280.882 23.8315 247.778 23.8315 227.489 45.3329C226.821 45.895 226.021 46.1761 225.353 46.1761Z" fill="#17154D"/>
<g clip-path="url(#clip0_2732_15974)">
<path d="M111.042 119.627H11.2948C6.74747 119.627 2.93359 115.953 2.93359 111.25V11.3162C2.93359 6.76045 6.60079 2.93945 11.2948 2.93945H111.042C115.59 2.93945 119.404 6.61349 119.404 11.3162V111.25C119.257 115.806 115.59 119.627 111.042 119.627Z" fill="white" stroke="#000050" stroke-width="6" stroke-linecap="round" stroke-linejoin="round"/>
<path d="M99.0151 107.576H23.1776C18.6303 107.576 14.8164 103.902 14.8164 99.1991V23.367C14.8164 18.8112 18.4836 14.9902 23.1776 14.9902H99.0151C103.562 14.9902 107.376 18.6643 107.376 23.367V99.346C107.376 103.902 103.562 107.576 99.0151 107.576Z" stroke="#000050" stroke-width="6" stroke-linecap="round" stroke-linejoin="round"/>
<path d="M61.4926 80.0196C71.7813 80.0196 80.122 71.6634 80.122 61.3555C80.122 51.0476 71.7813 42.6914 61.4926 42.6914C51.2039 42.6914 42.8633 51.0476 42.8633 61.3555C42.8633 71.6634 51.2039 80.0196 61.4926 80.0196Z" fill="#000050"/>
<path d="M61.4629 40.1203L58.6758 35.5645H64.3966L61.4629 40.1203Z" fill="#000050"/>
<path d="M62.1952 46.4395H60.875V49.5256H62.1952V46.4395Z" fill="white"/>
<path d="M53.3571 48.7929L52.2891 49.5703L54.0997 52.0671L55.1678 51.2897L53.3571 48.7929Z" fill="white"/>
<path d="M47.615 56.1503L47.207 57.4082L50.1367 58.3619L50.5447 57.104L47.615 56.1503Z" fill="white"/>
<path d="M50.1994 64.3359L47.2695 65.2891L47.6773 66.547L50.6071 65.5939L50.1994 64.3359Z" fill="white"/>
<path d="M54.0884 70.4078L52.2773 72.9043L53.3453 73.6819L55.1563 71.1855L54.0884 70.4078Z" fill="white"/>
<path d="M62.1952 73.1855H60.875V76.2717H62.1952V73.1855Z" fill="white"/>
<path d="M69.0134 70.6073L67.9453 71.3848L69.7559 73.8815L70.824 73.1041L69.0134 70.6073Z" fill="white"/>
<path d="M72.9744 64.414L72.5664 65.6719L75.4961 66.6256L75.904 65.3676L72.9744 64.414Z" fill="white"/>
<path d="M75.5666 56.1074L72.6367 57.0605L73.0445 58.3185L75.9743 57.3654L75.5666 56.1074Z" fill="white"/>
<path d="M69.772 48.7789L67.9609 51.2754L69.0289 52.053L70.8399 49.5565L69.772 48.7789Z" fill="white"/>
<path d="M17.9259 127.7L15.9111 121.266H30.0126L28.1237 127.7H17.9259Z" fill="white" stroke="#000050" stroke-width="4"/>
<mask id="path-25-inside-1_2732_15974" fill="white">
<path d="M30.803 120.883L28.6026 128.378H17.7478L15.4008 120.883H30.803ZM30.803 117.943H15.2541C14.3739 117.943 13.4938 118.384 12.9071 119.119C12.3203 119.854 12.1736 120.883 12.467 121.764L14.814 129.259C15.2541 130.435 16.2809 131.317 17.6011 131.317H28.456C29.7761 131.317 30.9496 130.435 31.243 129.259L33.4433 121.911C33.59 121.617 33.59 121.323 33.59 120.883C33.7367 119.266 32.4165 117.943 30.803 117.943Z"/>
</mask>
<path d="M30.803 120.883L28.6026 128.378H17.7478L15.4008 120.883H30.803ZM30.803 117.943H15.2541C14.3739 117.943 13.4938 118.384 12.9071 119.119C12.3203 119.854 12.1736 120.883 12.467 121.764L14.814 129.259C15.2541 130.435 16.2809 131.317 17.6011 131.317H28.456C29.7761 131.317 30.9496 130.435 31.243 129.259L33.4433 121.911C33.59 121.617 33.59 121.323 33.59 120.883C33.7367 119.266 32.4165 117.943 30.803 117.943Z" fill="#000050"/>
<path d="M30.803 120.883L34.641 122.009L36.146 116.883H30.803V120.883ZM28.6026 128.378V132.378H31.5972L32.4407 129.504L28.6026 128.378ZM17.7478 128.378L13.9305 129.573L14.8088 132.378H17.7478V128.378ZM15.4008 120.883V116.883H9.95666L11.5835 122.078L15.4008 120.883ZM12.467 121.764L16.2842 120.569L16.2736 120.535L16.2624 120.502L12.467 121.764ZM14.814 129.259L10.9968 130.455L11.0295 130.559L11.0678 130.662L14.814 129.259ZM31.243 129.259L27.4111 128.112L27.3845 128.201L27.362 128.291L31.243 129.259ZM33.4433 121.911L29.8643 120.125L29.7103 120.434L29.6114 120.764L33.4433 121.911ZM33.59 120.883L29.6064 120.521L29.59 120.701V120.883H33.59ZM26.9649 119.756L24.7646 127.251L32.4407 129.504L34.641 122.009L26.9649 119.756ZM28.6026 124.378H17.7478V132.378H28.6026V124.378ZM21.565 127.182L19.218 119.687L11.5835 122.078L13.9305 129.573L21.565 127.182ZM15.4008 124.883H30.803V116.883H15.4008V124.883ZM30.803 113.943H15.2541V121.943H30.803V113.943ZM15.2541 113.943C13.0649 113.943 11.0674 115.013 9.78132 116.623L16.0328 121.615C15.9637 121.702 15.8746 121.776 15.7621 121.832C15.6502 121.888 15.4801 121.943 15.2541 121.943V113.943ZM9.78132 116.623C8.28235 118.5 7.98546 120.965 8.67156 123.027L16.2624 120.502C16.3229 120.683 16.3327 120.856 16.3069 121.017C16.2807 121.182 16.2064 121.398 16.0328 121.615L9.78132 116.623ZM8.64978 122.96L10.9968 130.455L18.6312 128.064L16.2842 120.569L8.64978 122.96ZM11.0678 130.662C11.9742 133.083 14.2983 135.317 17.6011 135.317V127.317C17.8703 127.317 18.1335 127.418 18.3192 127.561C18.4833 127.687 18.5416 127.808 18.5602 127.857L11.0678 130.662ZM17.6011 135.317H28.456V127.317H17.6011V135.317ZM28.456 135.317C31.4426 135.317 34.3463 133.345 35.124 130.228L27.362 128.291C27.4632 127.885 27.6844 127.64 27.8508 127.517C28.0207 127.391 28.2275 127.317 28.456 127.317V135.317ZM35.0749 130.407L37.2752 123.059L29.6114 120.764L27.4111 128.112L35.0749 130.407ZM37.0224 123.697C37.6653 122.409 37.59 121.112 37.59 120.883H29.59C29.59 121.005 29.5898 121.054 29.5889 121.091C29.5882 121.121 29.588 121.084 29.5961 121.011C29.6048 120.932 29.6242 120.801 29.6686 120.638C29.7143 120.47 29.7789 120.296 29.8643 120.125L37.0224 123.697ZM37.5737 121.244C37.9518 117.077 34.5541 113.943 30.803 113.943V121.943C30.5069 121.943 30.2055 121.82 29.9764 121.582C29.7338 121.331 29.5685 120.939 29.6064 120.521L37.5737 121.244Z" fill="#000050" mask="url(#path-25-inside-1_2732_15974)"/>
<path d="M93.5002 127.27L91.4853 120.836H105.587L103.698 127.27H93.5002Z" fill="white" stroke="#000050" stroke-width="4"/>
<mask id="path-28-inside-2_2732_15974" fill="white">
<path d="M106.377 120.453L104.177 127.948H93.322L90.975 120.453H106.377ZM106.377 117.514H90.8283C89.9482 117.514 89.068 117.955 88.4813 118.689C87.8945 119.424 87.7478 120.453 88.0412 121.335L90.3882 128.83C90.8283 130.005 91.8551 130.887 93.1753 130.887H104.03C105.35 130.887 106.524 130.005 106.817 128.83L109.018 121.482C109.164 121.188 109.164 120.894 109.164 120.453C109.311 118.836 107.991 117.514 106.377 117.514Z"/>
</mask>
<path d="M106.377 120.453L104.177 127.948H93.322L90.975 120.453H106.377ZM106.377 117.514H90.8283C89.9482 117.514 89.068 117.955 88.4813 118.689C87.8945 119.424 87.7478 120.453 88.0412 121.335L90.3882 128.83C90.8283 130.005 91.8551 130.887 93.1753 130.887H104.03C105.35 130.887 106.524 130.005 106.817 128.83L109.018 121.482C109.164 121.188 109.164 120.894 109.164 120.453C109.311 118.836 107.991 117.514 106.377 117.514Z" fill="#000050"/>
<path d="M106.377 120.453L110.215 121.58L111.72 116.453H106.377V120.453ZM104.177 127.948V131.948H107.171L108.015 129.075L104.177 127.948ZM93.322 127.948L89.5048 129.143L90.383 131.948H93.322V127.948ZM90.975 120.453V116.453H85.5309L87.1578 121.648L90.975 120.453ZM88.0412 121.335L91.8584 120.139L91.8478 120.106L91.8367 120.072L88.0412 121.335ZM90.3882 128.83L86.571 130.025L86.6037 130.129L86.642 130.232L90.3882 128.83ZM106.817 128.83L102.985 127.682L102.959 127.771L102.936 127.861L106.817 128.83ZM109.018 121.482L105.439 119.695L105.285 120.004L105.186 120.334L109.018 121.482ZM109.164 120.453L105.181 120.091L105.164 120.272V120.453H109.164ZM102.539 119.326L100.339 126.821L108.015 129.075L110.215 121.58L102.539 119.326ZM104.177 123.948H93.322V131.948H104.177V123.948ZM97.1392 126.753L94.7922 119.258L87.1578 121.648L89.5048 129.143L97.1392 126.753ZM90.975 124.453H106.377V116.453H90.975V124.453ZM106.377 113.514H90.8283V121.514H106.377V113.514ZM90.8283 113.514C88.6392 113.514 86.6416 114.583 85.3555 116.193L91.607 121.185C91.5379 121.272 91.4489 121.346 91.3363 121.402C91.2244 121.458 91.0544 121.514 90.8283 121.514V113.514ZM85.3555 116.193C83.8566 118.071 83.5597 120.535 84.2458 122.597L91.8367 120.072C91.8971 120.254 91.9069 120.426 91.8811 120.588C91.8549 120.752 91.7806 120.968 91.607 121.185L85.3555 116.193ZM84.224 122.53L86.571 130.025L94.2054 127.634L91.8584 120.139L84.224 122.53ZM86.642 130.232C87.5484 132.653 89.8725 134.887 93.1753 134.887V126.887C93.4445 126.887 93.7077 126.988 93.8934 127.131C94.0576 127.258 94.1158 127.378 94.1344 127.427L86.642 130.232ZM93.1753 134.887H104.03V126.887H93.1753V134.887ZM104.03 134.887C107.017 134.887 109.921 132.915 110.698 129.798L102.936 127.861C103.037 127.456 103.259 127.211 103.425 127.087C103.595 126.961 103.802 126.887 104.03 126.887V134.887ZM110.649 129.977L112.849 122.629L105.186 120.334L102.985 127.682L110.649 129.977ZM112.597 123.268C113.24 121.979 113.164 120.682 113.164 120.453H105.164C105.164 120.575 105.164 120.625 105.163 120.661C105.162 120.692 105.162 120.655 105.17 120.581C105.179 120.503 105.198 120.371 105.243 120.208C105.289 120.04 105.353 119.867 105.439 119.695L112.597 123.268ZM113.148 120.814C113.526 116.647 110.128 113.514 106.377 113.514V121.514C106.081 121.514 105.78 121.39 105.551 121.153C105.308 120.901 105.143 120.509 105.181 120.091L113.148 120.814Z" fill="#000050" mask="url(#path-28-inside-2_2732_15974)"/>
<path d="M14.816 47.0274C12.6157 47.0274 10.8555 45.2639 10.8555 43.0595V26.8937C10.8555 24.6893 12.6157 22.9258 14.816 22.9258C17.0164 22.9258 18.7766 24.6893 18.7766 26.8937V43.0595C18.9233 45.2639 17.0164 47.0274 14.816 47.0274Z" fill="white" stroke="#000050" stroke-width="6" stroke-miterlimit="10"/>
<path d="M14.816 99.6388C12.6157 99.6388 10.8555 97.8752 10.8555 95.6708V79.5051C10.8555 77.3006 12.6157 75.5371 14.816 75.5371C17.0164 75.5371 18.7766 77.3006 18.7766 79.5051V95.6708C18.9233 97.8752 17.0164 99.6388 14.816 99.6388Z" fill="white" stroke="#000050" stroke-width="6" stroke-miterlimit="10"/>
</g>
<path d="M159.118 81.7349L153.8 81.7349C153.197 83.1132 151.821 84.0786 150.223 84.0786L135.721 84.0786C133.57 84.0786 131.821 82.3289 131.821 80.1781L131.821 75.0189C131.821 72.8681 133.57 71.1184 135.721 71.1184H150.223C151.82 71.1184 153.197 72.0838 153.8 73.4621L159.118 73.4621C159.001 72.7916 158.809 72.137 158.542 71.5041C158.087 70.4287 157.436 69.4633 156.608 68.635C155.779 67.8066 154.814 67.1557 153.738 66.7009C152.624 66.2291 151.441 65.99 150.224 65.9905L135.722 65.9905C134.504 65.9905 133.321 66.2296 132.207 66.7009C131.131 67.1558 130.166 67.8066 129.338 68.635C128.509 69.4633 127.858 70.4287 127.404 71.5041C126.932 72.6189 126.693 73.8016 126.693 75.0189L126.693 80.1781C126.693 81.3959 126.932 82.5786 127.404 83.6928C127.858 84.7682 128.509 85.7337 129.338 86.562C130.166 87.3904 131.131 88.0412 132.207 88.4961C133.322 88.9679 134.504 89.207 135.722 89.2064L150.224 89.2064C151.442 89.2064 152.624 88.9673 153.738 88.4961C154.814 88.0412 155.779 87.3904 156.608 86.562C157.436 85.7337 158.087 84.7683 158.542 83.6928C158.809 83.06 159.002 82.4054 159.118 81.7349Z" fill="#000050"/>
<path d="M200.541 83.6923C201.013 82.5776 201.252 81.3948 201.252 80.1776L201.252 75.0184C201.252 73.8006 201.012 72.6178 200.541 71.5036C200.086 70.4282 199.436 69.4633 198.608 68.635C197.779 67.8066 196.814 67.1558 195.738 66.7009C194.624 66.2291 193.441 65.99 192.224 65.9905L177.722 65.9905C176.504 65.9905 175.321 66.2296 174.207 66.7009C173.131 67.1557 172.166 67.8066 171.338 68.635C170.509 69.4633 169.858 70.4287 169.404 71.5041C169.136 72.137 168.943 72.7916 168.827 73.4621L174.146 73.4621C174.748 72.0838 176.124 71.1184 177.722 71.1184H192.224C194.375 71.1184 196.125 72.8681 196.125 75.0189L196.125 80.1781C196.125 82.3289 194.375 84.0786 192.224 84.0786L177.722 84.0786C176.125 84.0786 174.748 83.1132 174.146 81.7349L168.827 81.7349C168.944 82.4054 169.136 83.06 169.404 83.6928C169.858 84.7683 170.509 85.7337 171.338 86.562C172.166 87.3904 173.131 88.0412 174.207 88.4961C175.322 88.9679 176.504 89.207 177.722 89.2064L192.224 89.2064C193.442 89.2064 194.624 88.9673 195.738 88.4961C196.814 88.0412 197.779 87.3904 198.608 86.562C199.436 85.7337 200.086 84.7677 200.541 83.6923Z" fill="#000050"/>
<path d="M176.973 80.1616C178.388 80.1616 179.536 79.0134 179.536 77.5979C179.536 76.1825 178.388 75.0343 176.973 75.0343L173.819 75.0343L168.691 75.0343H159.254L154.127 75.0343L150.973 75.0343C149.557 75.0343 148.409 76.1825 148.409 77.5979C148.409 79.0134 149.557 80.1616 150.973 80.1616L154.127 80.1616L159.254 80.1616H168.691L173.819 80.1616L176.973 80.1616Z" fill="#000050"/>
<defs>
<clipPath id="clip0_2732_15974">
<rect width="122.338" height="133" fill="white"/>
</clipPath>
</defs>
</svg>
