<svg width="477" height="361" viewBox="0 0 477 361" fill="none" xmlns="http://www.w3.org/2000/svg">
<g filter="url(#filter0_d_0_1)">
<path d="M20 70C20 42.3858 42.3858 20 70 20H407C434.614 20 457 42.3858 457 70V291C457 318.614 434.614 341 407 341H70C42.3858 341 20 318.614 20 291V70Z" fill="white"/>
</g>
<path d="M334.874 275.17H157.128C149.025 275.17 142.229 268.623 142.229 260.243V82.1654C142.229 74.0471 148.763 67.2383 157.128 67.2383H334.874C342.977 67.2383 349.773 73.7852 349.773 82.1654V260.243C349.511 268.361 342.977 275.17 334.874 275.17Z" fill="white" stroke="#17154D" stroke-width="6" stroke-linecap="round" stroke-linejoin="round"/>
<path d="M313.439 253.696H178.3C170.197 253.696 163.4 247.149 163.4 238.769V103.64C163.4 95.5217 169.935 88.7129 178.3 88.7129H313.439C321.542 88.7129 328.338 95.2599 328.338 103.64V239.031C328.338 247.149 321.542 253.696 313.439 253.696Z" stroke="#17154D" stroke-width="6" stroke-linecap="round" stroke-linejoin="round"/>
<path d="M246.576 204.593C264.91 204.593 279.772 189.703 279.772 171.335C279.772 152.967 264.91 138.076 246.576 138.076C228.242 138.076 213.379 152.967 213.379 171.335C213.379 189.703 228.242 204.593 246.576 204.593Z" fill="#17154D"/>
<path d="M246.523 133.493L241.557 125.375H251.751L246.523 133.493Z" fill="#17154D"/>
<path d="M247.831 144.754H245.479V150.253H247.831V144.754Z" fill="white"/>
<path d="M232.079 148.947L230.176 150.332L233.402 154.781L235.305 153.396L232.079 148.947Z" fill="white"/>
<path d="M221.848 162.057L221.121 164.299L226.342 165.998L227.069 163.757L221.848 162.057Z" fill="white"/>
<path d="M226.453 176.643L221.232 178.342L221.959 180.583L227.18 178.885L226.453 176.643Z" fill="white"/>
<path d="M233.385 187.465L230.158 191.914L232.061 193.3L235.288 188.851L233.385 187.465Z" fill="white"/>
<path d="M247.831 192.416H245.479V197.915H247.831V192.416Z" fill="white"/>
<path d="M259.981 187.82L258.078 189.205L261.305 193.654L263.208 192.269L259.981 187.82Z" fill="white"/>
<path d="M267.038 176.784L266.311 179.025L271.531 180.725L272.258 178.483L267.038 176.784Z" fill="white"/>
<path d="M271.66 161.981L266.439 163.68L267.166 165.921L272.387 164.223L271.66 161.981Z" fill="white"/>
<path d="M261.329 148.924L258.102 153.373L260.005 154.759L263.232 150.31L261.329 148.924Z" fill="white"/>
<path d="M168.367 293.121C167.322 293.121 166.276 292.335 165.753 291.288L161.571 277.932C161.31 277.146 161.571 276.36 161.833 275.575C162.355 274.789 163.14 274.527 163.924 274.527H191.631C192.415 274.527 193.199 274.789 193.722 275.575C194.245 276.36 194.245 277.146 194.245 277.932L190.324 291.288C190.063 292.335 189.017 293.121 187.71 293.121H168.367Z" fill="white"/>
<path d="M191.892 277.407L187.971 290.763H168.628L164.446 277.407H191.892ZM191.892 272.17H164.185C162.617 272.17 161.048 272.956 160.003 274.265C158.957 275.574 158.696 277.407 159.218 278.979L163.401 292.335C164.185 294.43 166.015 296.001 168.367 296.001H187.71C190.063 296.001 192.154 294.43 192.676 292.335L196.597 279.241C196.859 278.717 196.859 278.193 196.859 277.407C197.12 274.527 194.768 272.17 191.892 272.17Z" fill="#17154D"/>
<path d="M301.155 293.121C300.109 293.121 299.064 292.335 298.541 291.288L294.62 277.932C294.359 277.146 294.62 276.36 295.143 275.575C295.666 274.789 296.45 274.527 297.234 274.527H324.941C325.726 274.527 326.51 275.051 327.033 275.575C327.555 276.36 327.555 277.146 327.294 277.932L323.112 291.288C322.85 292.335 321.805 293.121 320.498 293.121H301.155Z" fill="white"/>
<path d="M324.941 277.407L320.759 290.763H301.416L297.495 277.407H324.941ZM324.941 272.17H297.234C295.665 272.17 294.097 272.956 293.051 274.265C292.006 275.574 291.744 277.407 292.267 278.979L296.188 292.335C296.972 294.43 298.802 296.001 301.155 296.001H320.497C322.85 296.001 324.68 294.43 325.464 292.335L329.646 278.979C330.169 277.407 329.908 275.574 328.862 274.265C328.078 272.956 326.509 272.17 324.941 272.17Z" fill="#17154D"/>
<path d="M163.401 145.802C159.48 145.802 156.344 142.659 156.344 138.731V109.924C156.344 105.996 159.48 102.854 163.401 102.854C167.322 102.854 170.459 105.996 170.459 109.924V138.731C170.72 142.659 167.322 145.802 163.401 145.802Z" fill="white" stroke="#17154D" stroke-width="6" stroke-miterlimit="10"/>
<path d="M163.401 239.554C159.48 239.554 156.344 236.411 156.344 232.483V203.676C156.344 199.748 159.48 196.605 163.401 196.605C167.322 196.605 170.459 199.748 170.459 203.676V232.483C170.72 236.411 167.322 239.554 163.401 239.554Z" fill="white" stroke="#17154D" stroke-width="6" stroke-miterlimit="10"/>
<defs>
<filter id="filter0_d_0_1" x="0" y="0" width="477" height="361" filterUnits="userSpaceOnUse" color-interpolation-filters="sRGB">
<feFlood flood-opacity="0" result="BackgroundImageFix"/>
<feColorMatrix in="SourceAlpha" type="matrix" values="0 0 0 0 0 0 0 0 0 0 0 0 0 0 0 0 0 0 127 0" result="hardAlpha"/>
<feOffset/>
<feGaussianBlur stdDeviation="10"/>
<feComposite in2="hardAlpha" operator="out"/>
<feColorMatrix type="matrix" values="0 0 0 0 0 0 0 0 0 0 0 0 0 0 0 0 0 0 0.3 0"/>
<feBlend mode="normal" in2="BackgroundImageFix" result="effect1_dropShadow_0_1"/>
<feBlend mode="normal" in="SourceGraphic" in2="effect1_dropShadow_0_1" result="shape"/>
</filter>
</defs>
</svg>
