<svg width="218" height="237" viewBox="0 0 218 237" fill="none" xmlns="http://www.w3.org/2000/svg">
<path d="M197.873 213.17H20.1271C12.0239 213.17 5.22778 206.623 5.22778 198.243V20.1654C5.22778 12.0471 11.7626 5.23828 20.1271 5.23828H197.873C205.976 5.23828 212.772 11.7852 212.772 20.1654V198.243C212.511 206.361 205.976 213.17 197.873 213.17Z" fill="white" stroke="#17154D" stroke-width="6" stroke-linecap="round" stroke-linejoin="round"/>
<path d="M176.439 191.696H41.2997C33.1966 191.696 26.4004 185.149 26.4004 176.769V41.64C26.4004 33.5217 32.9352 26.7129 41.2997 26.7129H176.439C184.542 26.7129 191.338 33.2599 191.338 41.64V177.031C191.338 185.149 184.542 191.696 176.439 191.696Z" stroke="#17154D" stroke-width="6" stroke-linecap="round" stroke-linejoin="round"/>
<path d="M109.575 142.593C127.909 142.593 142.772 127.703 142.772 109.335C142.772 90.9665 127.909 76.0762 109.575 76.0762C91.2411 76.0762 76.3784 90.9665 76.3784 109.335C76.3784 127.703 91.2411 142.593 109.575 142.593Z" fill="#17154D"/>
<path d="M109.523 71.4932L104.556 63.375H114.751L109.523 71.4932Z" fill="#17154D"/>
<path d="M110.83 82.7539H108.477V88.2534H110.83V82.7539Z" fill="white"/>
<path d="M95.0783 86.9467L93.175 88.332L96.4015 92.7812L98.3048 91.3958L95.0783 86.9467Z" fill="white"/>
<path d="M84.8476 100.057L84.1206 102.299L89.3411 103.998L90.0681 101.757L84.8476 100.057Z" fill="white"/>
<path d="M89.4528 114.643L84.2319 116.342L84.9585 118.583L90.1793 116.885L89.4528 114.643Z" fill="white"/>
<path d="M96.3859 125.465L93.1587 129.914L95.0617 131.3L98.2889 126.851L96.3859 125.465Z" fill="white"/>
<path d="M110.83 130.416H108.477V135.915H110.83V130.416Z" fill="white"/>
<path d="M122.982 125.82L121.078 127.205L124.305 131.654L126.208 130.269L122.982 125.82Z" fill="white"/>
<path d="M130.036 114.784L129.309 117.025L134.53 118.725L135.257 116.483L130.036 114.784Z" fill="white"/>
<path d="M134.659 99.9812L129.438 101.68L130.165 103.921L135.386 102.223L134.659 99.9812Z" fill="white"/>
<path d="M124.328 86.9245L121.1 91.373L123.003 92.7587L126.231 88.3101L124.328 86.9245Z" fill="white"/>
<path d="M31.3663 231.121C30.3208 231.121 29.2752 230.335 28.7524 229.288L24.5702 215.932C24.3088 215.146 24.5702 214.36 24.8316 213.575C25.3544 212.789 26.1385 212.527 26.9227 212.527H54.6301C55.4143 212.527 56.1985 212.789 56.7213 213.575C57.244 214.36 57.244 215.146 57.244 215.932L53.3232 229.288C53.0618 230.335 52.0162 231.121 50.7093 231.121H31.3663Z" fill="white"/>
<path d="M54.8916 215.407L50.9707 228.763H31.6278L27.4455 215.407H54.8916ZM54.8916 210.17H27.1841C25.6158 210.17 24.0474 210.956 23.0019 212.265C21.9563 213.574 21.6949 215.407 22.2177 216.979L26.3999 230.335C27.1841 232.43 29.0139 234.001 31.3664 234.001H50.7093C53.0618 234.001 55.1529 232.43 55.6757 230.335L59.5966 217.241C59.858 216.717 59.858 216.193 59.858 215.407C60.1194 212.527 57.7668 210.17 54.8916 210.17Z" fill="#17154D"/>
<path d="M164.153 231.121C163.107 231.121 162.062 230.335 161.539 229.288L157.618 215.932C157.357 215.146 157.618 214.36 158.141 213.575C158.664 212.789 159.448 212.527 160.232 212.527H187.94C188.724 212.527 189.508 213.051 190.031 213.575C190.553 214.36 190.553 215.146 190.292 215.932L186.11 229.288C185.848 230.335 184.803 231.121 183.496 231.121H164.153Z" fill="white"/>
<path d="M187.939 215.407L183.757 228.763H164.414L160.493 215.407H187.939ZM187.939 210.17H160.232C158.664 210.17 157.095 210.956 156.05 212.265C155.004 213.574 154.743 215.407 155.266 216.979L159.186 230.335C159.971 232.43 161.8 234.001 164.153 234.001H183.496C185.848 234.001 187.678 232.43 188.462 230.335L192.644 216.979C193.167 215.407 192.906 213.574 191.86 212.265C191.076 210.956 189.508 210.17 187.939 210.17Z" fill="#17154D"/>
<path d="M26.4003 83.8016C22.4795 83.8016 19.3428 80.659 19.3428 76.7309V47.9242C19.3428 43.9961 22.4795 40.8535 26.4003 40.8535C30.3212 40.8535 33.4579 43.9961 33.4579 47.9242V76.7309C33.7193 80.659 30.3212 83.8016 26.4003 83.8016Z" fill="white" stroke="#17154D" stroke-width="6" stroke-miterlimit="10"/>
<path d="M26.4003 177.554C22.4795 177.554 19.3428 174.411 19.3428 170.483V141.676C19.3428 137.748 22.4795 134.605 26.4003 134.605C30.3212 134.605 33.4579 137.748 33.4579 141.676V170.483C33.7193 174.411 30.3212 177.554 26.4003 177.554Z" fill="white" stroke="#17154D" stroke-width="6" stroke-miterlimit="10"/>
</svg>
