<svg width="415" height="337" viewBox="0 0 415 337" fill="none" xmlns="http://www.w3.org/2000/svg">
<rect x="4" y="80.998" width="407" height="155" rx="6" fill="white" stroke="#000050" stroke-width="8"/>
<mask id="path-2-inside-1_2164_17459" fill="white">
<rect x="28" y="175.998" width="31" height="39" rx="5"/>
</mask>
<rect x="28" y="175.998" width="31" height="39" rx="5" fill="white" stroke="#000050" stroke-width="16" mask="url(#path-2-inside-1_2164_17459)"/>
<mask id="path-3-inside-2_2164_17459" fill="white">
<rect x="63" y="131.998" width="31" height="83" rx="5"/>
</mask>
<rect x="63" y="131.998" width="31" height="83" rx="5" fill="white" stroke="#000050" stroke-width="16" mask="url(#path-3-inside-2_2164_17459)"/>
<mask id="path-4-inside-3_2164_17459" fill="white">
<rect x="132" y="111.998" width="31" height="103" rx="5"/>
</mask>
<rect x="132" y="111.998" width="31" height="103" rx="5" fill="white" stroke="#000050" stroke-width="16" mask="url(#path-4-inside-3_2164_17459)"/>
<mask id="path-5-inside-4_2164_17459" fill="white">
<rect x="98" y="157.998" width="30" height="57" rx="5"/>
</mask>
<rect x="98" y="157.998" width="30" height="57" rx="5" fill="white" stroke="#000050" stroke-width="16" mask="url(#path-5-inside-4_2164_17459)"/>
<line x1="256" y1="115.998" x2="256" y2="210.952" stroke="#000050" stroke-width="8" stroke-linecap="round"/>
<path d="M256 210.998H383" stroke="#000050" stroke-width="8" stroke-linecap="round"/>
<path d="M255.887 191.419L292.918 152.759L298.843 175.311L334.393 139.872L340.318 162.424L380.312 123.764" stroke="#000050" stroke-width="8" stroke-linecap="round"/>
<path d="M262.234 66.4844H151.766V102.716H262.234V66.4844Z" fill="white"/>
<path d="M253.585 106.725H160.546C152.552 106.725 146 99.3822 146 90.4236V78.087C146 69.1283 152.552 61.7852 160.546 61.7852H253.454C261.448 61.7852 268 69.1283 268 78.087V90.4236C268 99.3822 261.579 106.725 253.585 106.725ZM160.546 68.2472C155.697 68.2472 151.766 72.6531 151.766 78.087V90.4236C151.766 95.8575 155.697 100.263 160.546 100.263H253.454C258.303 100.263 262.234 95.8575 262.234 90.4236V78.087C262.234 72.6531 258.303 68.2472 253.454 68.2472H160.546Z" fill="#17154D"/>
<path d="M166.051 66.4851C164.871 66.4851 163.692 65.6039 163.299 64.1353L147.574 5.09611C147.05 3.33375 147.967 1.57138 149.539 1.13079C151.112 0.543339 152.684 1.57138 153.078 3.33375L168.803 62.3729C169.327 64.1353 168.41 65.8976 166.837 66.3382C166.706 66.4851 166.444 66.4851 166.051 66.4851Z" fill="#17154D"/>
<path d="M248.083 66.4861C247.82 66.4861 247.558 66.4861 247.296 66.3392C245.724 65.7518 244.938 63.9894 245.331 62.3739L261.056 3.33476C261.58 1.5724 263.152 0.691218 264.594 1.13181C266.166 1.71926 266.953 3.48163 266.559 5.09713L250.834 64.1363C250.441 65.6049 249.262 66.4861 248.083 66.4861Z" fill="#17154D"/>
<path d="M167.491 87.7799C169.228 87.7799 170.636 86.2018 170.636 84.2552C170.636 82.3085 169.228 80.7305 167.491 80.7305C165.754 80.7305 164.346 82.3085 164.346 84.2552C164.346 86.2018 165.754 87.7799 167.491 87.7799Z" fill="#000050"/>
<path d="M178.367 83.9629H235.764" stroke="black" stroke-width="1.5" stroke-linecap="round" stroke-linejoin="round"/>
<path d="M235.764 87.1925H178.367C176.795 87.1925 175.484 85.7238 175.484 83.9615C175.484 82.1991 176.795 80.7305 178.367 80.7305H235.764C237.336 80.7305 238.647 82.1991 238.647 83.9615C238.647 85.7238 237.336 87.1925 235.764 87.1925Z" fill="#17154D"/>
<path d="M237.598 36.5246C236.812 36.5246 236.157 36.2309 235.502 35.6434C220.039 18.3135 194.879 18.3135 179.416 35.6434C178.236 36.9652 176.402 36.9652 175.353 35.6434C174.174 34.3216 174.174 32.2656 175.353 31.0906C193.044 11.2641 221.873 11.2641 239.695 31.0906C240.874 32.4124 240.874 34.4685 239.695 35.6434C239.04 36.2309 238.253 36.5246 237.598 36.5246Z" fill="#17154D"/>
<path d="M229.343 45.7772C228.556 45.7772 227.901 45.4835 227.246 44.896C222.004 39.0215 214.928 35.6436 207.459 35.6436C199.989 35.6436 192.913 38.8746 187.671 44.896C186.492 46.2178 184.657 46.2178 183.609 44.896C182.43 43.5743 182.43 41.5182 183.609 40.3433C190.03 33.147 198.548 29.1816 207.59 29.1816C216.632 29.1816 225.149 33.147 231.57 40.3433C232.75 41.665 232.75 43.7211 231.57 44.896C230.784 45.3366 230.129 45.7772 229.343 45.7772Z" fill="#17154D"/>
<path d="M169.194 27.2743C168.408 27.2743 167.753 26.9806 167.097 26.3931C165.918 25.0713 165.918 23.0152 167.097 21.8403C189.375 -3.12647 225.542 -3.12647 247.819 21.8403C248.999 23.1621 248.999 25.2182 247.819 26.3931C246.64 27.568 244.805 27.7149 243.757 26.3931C223.708 3.92298 191.209 3.92298 171.291 26.3931C170.636 26.9806 169.849 27.2743 169.194 27.2743Z" fill="#17154D"/>
<path d="M206.854 204.052C223.341 204.052 236.707 190.415 236.707 173.594C236.707 156.773 223.341 143.137 206.854 143.137C190.366 143.137 177 156.773 177 173.594C177 190.415 190.366 204.052 206.854 204.052Z" fill="#17154D"/>
<path d="M206.808 138.94L202.342 131.506H211.509L206.808 138.94Z" fill="#17154D"/>
<path d="M207.983 149.256H205.867V154.292H207.983V149.256Z" fill="white"/>
<path d="M193.819 153.12L192.107 154.389L195.009 158.463L196.721 157.194L193.819 153.12Z" fill="white"/>
<path d="M184.619 165.094L183.965 167.146L188.66 168.703L189.313 166.65L184.619 165.094Z" fill="white"/>
<path d="M188.76 178.46L184.064 180.016L184.718 182.068L189.413 180.513L188.76 178.46Z" fill="white"/>
<path d="M194.984 188.377L192.082 192.451L193.793 193.72L196.696 189.646L194.984 188.377Z" fill="white"/>
<path d="M207.983 192.902H205.867V197.939H207.983V192.902Z" fill="white"/>
<path d="M218.911 188.694L217.199 189.963L220.101 194.037L221.812 192.769L218.911 188.694Z" fill="white"/>
<path d="M225.255 178.588L224.602 180.641L229.296 182.197L229.95 180.144L225.255 178.588Z" fill="white"/>
<path d="M229.412 165.032L224.717 166.588L225.37 168.641L230.065 167.085L229.412 165.032Z" fill="white"/>
<path d="M220.131 153.069L217.229 157.143L218.94 158.412L221.842 154.338L220.131 153.069Z" fill="white"/>
<path d="M267 273C267 306.108 239.943 333 206.5 333C173.057 333 146 306.108 146 273C146 239.892 173.057 213 206.5 213C239.943 213 267 239.892 267 273Z" fill="#FFFFA0"/>
<path d="M267 273C267 306.108 239.943 333 206.5 333C173.057 333 146 306.108 146 273C146 239.892 173.057 213 206.5 213C239.943 213 267 239.892 267 273Z" stroke="#000050" stroke-width="8"/>
<path d="M267 273C267 306.108 239.943 333 206.5 333C173.057 333 146 306.108 146 273C146 239.892 173.057 213 206.5 213C239.943 213 267 239.892 267 273Z" stroke="#000050" stroke-width="8"/>
<path d="M267 273C267 306.108 239.943 333 206.5 333C173.057 333 146 306.108 146 273C146 239.892 173.057 213 206.5 213C239.943 213 267 239.892 267 273Z" stroke="#000050" stroke-width="8"/>
<path d="M267 255C267 288.108 239.943 315 206.5 315C173.057 315 146 288.108 146 255C146 221.892 173.057 195 206.5 195C239.943 195 267 221.892 267 255Z" fill="#FFFFA0"/>
<path d="M267 255C267 288.108 239.943 315 206.5 315C173.057 315 146 288.108 146 255C146 221.892 173.057 195 206.5 195C239.943 195 267 221.892 267 255Z" stroke="#000050" stroke-width="8"/>
<path d="M267 255C267 288.108 239.943 315 206.5 315C173.057 315 146 288.108 146 255C146 221.892 173.057 195 206.5 195C239.943 195 267 221.892 267 255Z" stroke="#000050" stroke-width="8"/>
<path d="M267 255C267 288.108 239.943 315 206.5 315C173.057 315 146 288.108 146 255C146 221.892 173.057 195 206.5 195C239.943 195 267 221.892 267 255Z" stroke="#000050" stroke-width="8"/>
<path fill-rule="evenodd" clip-rule="evenodd" d="M283.631 291.46C273.875 288.338 268.353 277.849 271.296 268.032C274.239 258.214 284.533 252.785 294.289 255.906L298.518 241.799L181.957 204.51L177.803 218.367C186.848 221.911 191.836 231.957 189.008 241.389C186.181 250.82 176.571 256.196 167.17 253.838L162.842 268.277L279.402 305.567L283.631 291.46Z" fill="white"/>
<path fill-rule="evenodd" clip-rule="evenodd" d="M283.631 291.46C273.875 288.338 268.353 277.849 271.296 268.032C274.239 258.214 284.533 252.785 294.289 255.906L298.518 241.799L181.957 204.51L177.803 218.367C186.848 221.911 191.836 231.957 189.008 241.389C186.181 250.82 176.571 256.196 167.17 253.838L162.842 268.277L279.402 305.567L283.631 291.46Z" stroke="#000050" stroke-width="5"/>
<path d="M252.859 284.273L249.28 296.062" stroke="#000050" stroke-width="2.5"/>
<path d="M258.023 267.271L254.444 279.06" stroke="#000050" stroke-width="2.5"/>
<path d="M263.324 249.816L259.745 261.605" stroke="#000050" stroke-width="2.5"/>
<path d="M268.795 231.797L265.215 243.585" stroke="#000050" stroke-width="2.5"/>
<path fill-rule="evenodd" clip-rule="evenodd" d="M247.208 260.33C244.454 269.525 234.822 274.61 225.693 271.687C216.565 268.764 211.397 258.939 214.151 249.745C216.904 240.55 226.537 235.465 235.666 238.388C244.794 241.311 249.962 251.135 247.208 260.33Z" fill="#FFFFA0"/>
<path fill-rule="evenodd" clip-rule="evenodd" d="M302.735 297.493C292.979 294.372 287.456 283.883 290.399 274.065C293.342 264.247 303.636 258.818 313.392 261.939L317.621 247.832L201.061 210.543L196.907 224.4C205.951 227.944 210.939 237.991 208.112 247.422C205.285 256.853 195.674 262.229 186.274 259.872L181.945 274.31L298.506 311.6L302.735 297.493Z" fill="white"/>
<path fill-rule="evenodd" clip-rule="evenodd" d="M302.735 297.493C292.979 294.372 287.456 283.883 290.399 274.065C293.342 264.247 303.636 258.818 313.392 261.939L317.621 247.832L201.061 210.543L196.907 224.4C205.951 227.944 210.939 237.991 208.112 247.422C205.285 256.853 195.674 262.229 186.274 259.872L181.945 274.31L298.506 311.6L302.735 297.493Z" stroke="#000050" stroke-width="5"/>
<path d="M271.963 290.307L268.383 302.095" stroke="#000050" stroke-width="2.5"/>
<path d="M277.127 273.305L273.547 285.093" stroke="#000050" stroke-width="2.5"/>
<path d="M282.428 255.85L278.848 267.638" stroke="#000050" stroke-width="2.5"/>
<path d="M287.898 237.83L284.319 249.618" stroke="#000050" stroke-width="2.5"/>
<path fill-rule="evenodd" clip-rule="evenodd" d="M266.311 266.363C263.558 275.558 253.925 280.643 244.797 277.72C235.668 274.797 230.5 264.973 233.254 255.778C236.008 246.583 245.641 241.499 254.769 244.422C263.897 247.345 269.065 257.168 266.311 266.363Z" fill="#FFFFA0"/>
<path fill-rule="evenodd" clip-rule="evenodd" d="M321.84 303.526C312.084 300.405 306.562 289.916 309.505 280.098C312.448 270.28 322.742 264.851 332.498 267.973L336.727 253.866L220.166 216.576L216.012 230.434C225.057 233.978 230.045 244.024 227.217 253.455C224.39 262.886 214.78 268.262 205.379 265.905L201.051 280.344L317.611 317.633L321.84 303.526Z" fill="white"/>
<path fill-rule="evenodd" clip-rule="evenodd" d="M321.84 303.526C312.084 300.405 306.562 289.916 309.505 280.098C312.448 270.28 322.742 264.851 332.498 267.973L336.727 253.866L220.166 216.576L216.012 230.434C225.057 233.978 230.045 244.024 227.217 253.455C224.39 262.886 214.78 268.262 205.379 265.905L201.051 280.344L317.611 317.633L321.84 303.526Z" stroke="#000050" stroke-width="5"/>
<path d="M291.068 296.34L287.489 308.128" stroke="#000050" stroke-width="5"/>
<path d="M296.232 279.338L292.653 291.126" stroke="#000050" stroke-width="5"/>
<path d="M301.533 261.883L297.954 273.671" stroke="#000050" stroke-width="5"/>
<path d="M307.004 243.863L303.424 255.652" stroke="#000050" stroke-width="5"/>
<path fill-rule="evenodd" clip-rule="evenodd" d="M285.417 272.396C282.663 281.591 273.031 286.676 263.902 283.753C254.774 280.83 249.606 271.006 252.36 261.811C255.113 252.616 264.746 247.532 273.875 250.455C283.003 253.378 288.17 263.201 285.417 272.396Z" fill="#FFFFA0"/>
<path d="M267 237C267 270.108 239.943 297 206.5 297C173.057 297 146 270.108 146 237C146 203.892 173.057 177 206.5 177C239.943 177 267 203.892 267 237Z" fill="#FFFFA0"/>
<path d="M267 237C267 270.108 239.943 297 206.5 297C173.057 297 146 270.108 146 237C146 203.892 173.057 177 206.5 177C239.943 177 267 203.892 267 237Z" stroke="#000050" stroke-width="8"/>
<path d="M267 237C267 270.108 239.943 297 206.5 297C173.057 297 146 270.108 146 237C146 203.892 173.057 177 206.5 177C239.943 177 267 203.892 267 237Z" stroke="#000050" stroke-width="8"/>
<path d="M267 237C267 270.108 239.943 297 206.5 297C173.057 297 146 270.108 146 237C146 203.892 173.057 177 206.5 177C239.943 177 267 203.892 267 237Z" stroke="#000050" stroke-width="8"/>
<path d="M213.471 220.608C212.873 220.536 212.285 220.494 211.688 220.494C207.253 220.494 202.909 222.552 199.027 226.522C197.217 228.373 195.516 230.617 193.959 233.171C193.688 223.576 193.199 213.329 192.376 202.896H181C183.434 232.282 183.136 257.934 182.719 280.423C182.719 280.423 182.719 280.506 182.719 280.537H194.041C194.376 258.007 199.326 243.552 206.593 236.118C208.557 234.112 210.457 233.212 212.249 233.429C221.226 234.536 219.787 266.433 219.118 280.537H230.457C230.955 270.104 231.498 257.397 230.176 246.364C228.267 230.41 222.647 221.735 213.471 220.608Z" fill="#000050"/>
</svg>
