<svg width="415" height="338" viewBox="0 0 415 338" fill="none" xmlns="http://www.w3.org/2000/svg">
<rect x="4" y="82" width="407" height="155" rx="6" fill="white" stroke="#000050" stroke-width="8"/>
<mask id="path-2-inside-1_2572_15500" fill="white">
<rect x="28" y="177" width="31" height="39" rx="5"/>
</mask>
<rect x="28" y="177" width="31" height="39" rx="5" fill="white" stroke="#000050" stroke-width="16" mask="url(#path-2-inside-1_2572_15500)"/>
<mask id="path-3-inside-2_2572_15500" fill="white">
<rect x="63" y="133" width="31" height="83" rx="5"/>
</mask>
<rect x="63" y="133" width="31" height="83" rx="5" fill="white" stroke="#000050" stroke-width="16" mask="url(#path-3-inside-2_2572_15500)"/>
<mask id="path-4-inside-3_2572_15500" fill="white">
<rect x="132" y="113" width="31" height="103" rx="5"/>
</mask>
<rect x="132" y="113" width="31" height="103" rx="5" fill="white" stroke="#000050" stroke-width="16" mask="url(#path-4-inside-3_2572_15500)"/>
<mask id="path-5-inside-4_2572_15500" fill="white">
<rect x="98" y="159" width="30" height="57" rx="5"/>
</mask>
<rect x="98" y="159" width="30" height="57" rx="5" fill="white" stroke="#000050" stroke-width="16" mask="url(#path-5-inside-4_2572_15500)"/>
<line x1="256" y1="117" x2="256" y2="211.954" stroke="#000050" stroke-width="8" stroke-linecap="round"/>
<path d="M256 212H383" stroke="#000050" stroke-width="8" stroke-linecap="round"/>
<path d="M255.887 192.421L292.918 153.761L298.843 176.313L334.393 140.874L340.318 163.426L380.312 124.766" stroke="#000050" stroke-width="8" stroke-linecap="round"/>
<path d="M262.234 64.2441H151.766V99.7701H262.234V64.2441Z" fill="white"/>
<path d="M253.585 103.702H160.546C152.552 103.702 146 96.502 146 87.7177V75.6213C146 66.837 152.552 59.6367 160.546 59.6367H253.454C261.448 59.6367 268 66.837 268 75.6213V87.7177C268 96.502 261.579 103.702 253.585 103.702ZM160.546 65.9729C155.697 65.9729 151.766 70.2931 151.766 75.6213V87.7177C151.766 93.0459 155.697 97.366 160.546 97.366H253.454C258.303 97.366 262.234 93.0459 262.234 87.7177V75.6213C262.234 70.2931 258.303 65.9729 253.454 65.9729H160.546Z" fill="#17154D"/>
<path d="M166.051 64.2449C164.871 64.2449 163.692 63.3809 163.299 61.9408L147.574 4.05085C147.05 2.32279 147.967 0.594734 149.539 0.162719C151.112 -0.4133 152.684 0.594734 153.078 2.32279L168.803 60.2128C169.327 61.9408 168.41 63.6689 166.837 64.1009C166.706 64.2449 166.444 64.2449 166.051 64.2449Z" fill="#17154D"/>
<path d="M248.083 64.245C247.82 64.245 247.558 64.245 247.296 64.101C245.724 63.525 244.938 61.7969 245.331 60.2129L261.056 2.3229C261.58 0.594841 263.152 -0.269188 264.594 0.162826C266.166 0.738846 266.953 2.4669 266.559 4.05096L250.834 61.9409C250.441 63.381 249.262 64.245 248.083 64.245Z" fill="#17154D"/>
<path d="M167.489 85.1251C169.226 85.1251 170.634 83.5778 170.634 81.669C170.634 79.7602 169.226 78.2129 167.489 78.2129C165.752 78.2129 164.344 79.7602 164.344 81.669C164.344 83.5778 165.752 85.1251 167.489 85.1251Z" fill="#000050"/>
<path d="M178.367 81.3828H235.764" stroke="black" stroke-width="1.5" stroke-linecap="round" stroke-linejoin="round"/>
<path d="M235.764 84.5491H178.367C176.795 84.5491 175.484 83.1091 175.484 81.381C175.484 79.6529 176.795 78.2129 178.367 78.2129H235.764C237.336 78.2129 238.647 79.6529 238.647 81.381C238.647 83.1091 237.336 84.5491 235.764 84.5491Z" fill="#17154D"/>
<path d="M237.598 34.8677C236.812 34.8677 236.157 34.5797 235.502 34.0036C220.039 17.0111 194.879 17.0111 179.416 34.0036C178.236 35.2997 176.402 35.2997 175.353 34.0036C174.174 32.7076 174.174 30.6915 175.353 29.5395C193.044 10.0988 221.873 10.0988 239.695 29.5395C240.874 30.8355 240.874 32.8516 239.695 34.0036C239.04 34.5797 238.253 34.8677 237.598 34.8677Z" fill="#17154D"/>
<path d="M229.345 43.9405C228.558 43.9405 227.903 43.6525 227.248 43.0765C222.006 37.3163 214.93 34.0042 207.461 34.0042C199.991 34.0042 192.915 37.1723 187.673 43.0765C186.494 44.3725 184.659 44.3725 183.611 43.0765C182.432 41.7804 182.432 39.7644 183.611 38.6123C190.032 31.5561 198.55 27.668 207.592 27.668C216.634 27.668 225.151 31.5561 231.572 38.6123C232.752 39.9084 232.752 41.9245 231.572 43.0765C230.786 43.5085 230.131 43.9405 229.345 43.9405Z" fill="#17154D"/>
<path d="M169.196 25.7962C168.41 25.7962 167.755 25.5082 167.099 24.9322C165.92 23.6362 165.92 21.6201 167.099 20.468C189.376 -4.01279 225.544 -4.01279 247.821 20.468C249.001 21.7641 249.001 23.7802 247.821 24.9322C246.642 26.0842 244.807 26.2282 243.759 24.9322C223.709 2.89945 191.211 2.89945 171.293 24.9322C170.638 25.5082 169.851 25.7962 169.196 25.7962Z" fill="#17154D"/>
<path d="M206.854 199.133C223.341 199.133 236.707 185.763 236.707 169.269C236.707 152.775 223.341 139.404 206.854 139.404C190.366 139.404 177 152.775 177 169.269C177 185.763 190.366 199.133 206.854 199.133Z" fill="#17154D"/>
<path d="M206.806 135.29L202.34 128H211.508L206.806 135.29Z" fill="#17154D"/>
<path d="M207.983 145.404H205.867V150.343H207.983V145.404Z" fill="white"/>
<path d="M193.817 149.194L192.105 150.438L195.007 154.433L196.719 153.189L193.817 149.194Z" fill="white"/>
<path d="M184.619 160.934L183.965 162.947L188.66 164.473L189.313 162.46L184.619 160.934Z" fill="white"/>
<path d="M188.758 174.041L184.062 175.566L184.716 177.579L189.411 176.054L188.758 174.041Z" fill="white"/>
<path d="M194.984 183.763L192.082 187.758L193.793 189.002L196.696 185.007L194.984 183.763Z" fill="white"/>
<path d="M207.983 188.201H205.867V193.139H207.983V188.201Z" fill="white"/>
<path d="M218.911 184.076L217.199 185.32L220.101 189.315L221.812 188.071L218.911 184.076Z" fill="white"/>
<path d="M225.255 174.165L224.602 176.178L229.296 177.704L229.95 175.691L225.255 174.165Z" fill="white"/>
<path d="M229.414 160.873L224.719 162.398L225.372 164.411L230.067 162.886L229.414 160.873Z" fill="white"/>
<path d="M220.129 149.144L217.227 153.139L218.938 154.383L221.84 150.388L220.129 149.144Z" fill="white"/>
<path d="M267 274C267 307.108 239.943 334 206.5 334C173.057 334 146 307.108 146 274C146 240.892 173.057 214 206.5 214C239.943 214 267 240.892 267 274Z" fill="#FFFFA0"/>
<path d="M267 274C267 307.108 239.943 334 206.5 334C173.057 334 146 307.108 146 274C146 240.892 173.057 214 206.5 214C239.943 214 267 240.892 267 274Z" stroke="#000050" stroke-width="8"/>
<path d="M267 274C267 307.108 239.943 334 206.5 334C173.057 334 146 307.108 146 274C146 240.892 173.057 214 206.5 214C239.943 214 267 240.892 267 274Z" stroke="#000050" stroke-width="8"/>
<path d="M267 274C267 307.108 239.943 334 206.5 334C173.057 334 146 307.108 146 274C146 240.892 173.057 214 206.5 214C239.943 214 267 240.892 267 274Z" stroke="#000050" stroke-width="8"/>
<path d="M267 256C267 289.108 239.943 316 206.5 316C173.057 316 146 289.108 146 256C146 222.892 173.057 196 206.5 196C239.943 196 267 222.892 267 256Z" fill="#FFFFA0"/>
<path d="M267 256C267 289.108 239.943 316 206.5 316C173.057 316 146 289.108 146 256C146 222.892 173.057 196 206.5 196C239.943 196 267 222.892 267 256Z" stroke="#000050" stroke-width="8"/>
<path d="M267 256C267 289.108 239.943 316 206.5 316C173.057 316 146 289.108 146 256C146 222.892 173.057 196 206.5 196C239.943 196 267 222.892 267 256Z" stroke="#000050" stroke-width="8"/>
<path d="M267 256C267 289.108 239.943 316 206.5 316C173.057 316 146 289.108 146 256C146 222.892 173.057 196 206.5 196C239.943 196 267 222.892 267 256Z" stroke="#000050" stroke-width="8"/>
<path fill-rule="evenodd" clip-rule="evenodd" d="M283.293 284.706C273.573 281.696 268.134 271.377 271.144 261.658C274.154 251.938 284.472 246.499 294.192 249.509L298.517 235.543L182.391 199.582L178.142 213.301C187.149 216.734 192.057 226.619 189.165 235.956C186.274 245.293 176.638 250.674 167.268 248.416L162.841 262.71L278.968 298.672L283.293 284.706Z" fill="white"/>
<path fill-rule="evenodd" clip-rule="evenodd" d="M283.293 284.706C273.573 281.696 268.134 271.377 271.144 261.658C274.154 251.938 284.472 246.499 294.192 249.509L298.517 235.543L182.391 199.582L178.142 213.301C187.149 216.734 192.057 226.619 189.165 235.956C186.274 245.293 176.638 250.674 167.268 248.416L162.841 262.71L278.968 298.672L283.293 284.706Z" stroke="#000050" stroke-width="5"/>
<path d="M252.859 277.795L249.28 289.354" stroke="#000050" stroke-width="2.5"/>
<path d="M258.023 261.123L254.444 272.682" stroke="#000050" stroke-width="2.5"/>
<path d="M263.324 244.006L259.745 255.565" stroke="#000050" stroke-width="2.5"/>
<path d="M268.793 226.34L265.213 237.899" stroke="#000050" stroke-width="2.5"/>
<path fill-rule="evenodd" clip-rule="evenodd" d="M247.108 254.215C244.298 263.287 234.666 268.365 225.593 265.556C216.521 262.746 211.443 253.113 214.253 244.041C217.062 234.968 226.695 229.891 235.768 232.701C244.84 235.51 249.917 245.142 247.108 254.215Z" fill="#FFFFA0"/>
<path fill-rule="evenodd" clip-rule="evenodd" d="M302.398 290.622C292.678 287.612 287.239 277.293 290.249 267.574C293.259 257.854 303.578 252.415 313.298 255.425L317.622 241.459L201.496 205.498L197.248 219.217C206.254 222.65 211.162 232.535 208.271 241.872C205.38 251.209 195.744 256.59 186.373 254.332L181.947 268.626L298.073 304.588L302.398 290.622Z" fill="white"/>
<path fill-rule="evenodd" clip-rule="evenodd" d="M302.398 290.622C292.678 287.612 287.239 277.293 290.249 267.574C293.259 257.854 303.578 252.415 313.298 255.425L317.622 241.459L201.496 205.498L197.248 219.217C206.254 222.65 211.162 232.535 208.271 241.872C205.38 251.209 195.744 256.59 186.373 254.332L181.947 268.626L298.073 304.588L302.398 290.622Z" stroke="#000050" stroke-width="5"/>
<path d="M271.965 283.711L268.385 295.27" stroke="#000050" stroke-width="2.5"/>
<path d="M277.129 267.039L273.549 278.598" stroke="#000050" stroke-width="2.5"/>
<path d="M282.43 249.922L278.85 261.481" stroke="#000050" stroke-width="2.5"/>
<path d="M287.898 232.256L284.319 243.815" stroke="#000050" stroke-width="2.5"/>
<path fill-rule="evenodd" clip-rule="evenodd" d="M266.213 260.131C263.404 269.203 253.771 274.281 244.699 271.472C235.626 268.662 230.549 259.029 233.358 249.957C236.168 240.884 245.801 235.807 254.873 238.617C263.946 241.426 269.023 251.058 266.213 260.131Z" fill="#FFFFA0"/>
<path fill-rule="evenodd" clip-rule="evenodd" d="M321.503 296.538C311.784 293.528 306.345 283.209 309.355 273.49C312.365 263.77 322.683 258.331 332.403 261.341L336.728 247.375L220.602 211.414L216.353 225.133C225.36 228.566 230.268 238.451 227.376 247.788C224.485 257.125 214.849 262.506 205.479 260.248L201.052 274.542L317.179 310.504L321.503 296.538Z" fill="white"/>
<path fill-rule="evenodd" clip-rule="evenodd" d="M321.503 296.538C311.784 293.528 306.345 283.209 309.355 273.49C312.365 263.77 322.683 258.331 332.403 261.341L336.728 247.375L220.602 211.414L216.353 225.133C225.36 228.566 230.268 238.451 227.376 247.788C224.485 257.125 214.849 262.506 205.479 260.248L201.052 274.542L317.179 310.504L321.503 296.538Z" stroke="#000050" stroke-width="5"/>
<path d="M291.07 289.627L287.491 301.186" stroke="#000050" stroke-width="5"/>
<path d="M296.234 272.955L292.655 284.514" stroke="#000050" stroke-width="5"/>
<path d="M301.535 255.838L297.956 267.397" stroke="#000050" stroke-width="5"/>
<path d="M307.004 238.172L303.424 249.731" stroke="#000050" stroke-width="5"/>
<path fill-rule="evenodd" clip-rule="evenodd" d="M285.319 266.047C282.509 275.119 272.877 280.197 263.804 277.388C254.732 274.578 249.654 264.945 252.464 255.873C255.273 246.8 264.906 241.723 273.979 244.533C283.051 247.342 288.128 256.974 285.319 266.047Z" fill="#FFFFA0"/>
<path d="M267 238C267 271.108 239.943 298 206.5 298C173.057 298 146 271.108 146 238C146 204.892 173.057 178 206.5 178C239.943 178 267 204.892 267 238Z" fill="#FFFFA0"/>
<path d="M267 238C267 271.108 239.943 298 206.5 298C173.057 298 146 271.108 146 238C146 204.892 173.057 178 206.5 178C239.943 178 267 204.892 267 238Z" stroke="#000050" stroke-width="8"/>
<path d="M267 238C267 271.108 239.943 298 206.5 298C173.057 298 146 271.108 146 238C146 204.892 173.057 178 206.5 178C239.943 178 267 204.892 267 238Z" stroke="#000050" stroke-width="8"/>
<path d="M267 238C267 271.108 239.943 298 206.5 298C173.057 298 146 271.108 146 238C146 204.892 173.057 178 206.5 178C239.943 178 267 204.892 267 238Z" stroke="#000050" stroke-width="8"/>
<path d="M213.471 215.367C212.873 215.296 212.285 215.255 211.688 215.255C207.253 215.255 202.909 217.273 199.027 221.166C197.217 222.981 195.516 225.181 193.959 227.685C193.688 218.277 193.199 208.23 192.376 198H181C183.434 226.813 183.136 251.966 182.719 274.017C182.719 274.017 182.719 274.098 182.719 274.129H194.041C194.376 252.037 199.326 237.864 206.593 230.574C208.557 228.608 210.457 227.726 212.249 227.939C221.226 229.023 219.787 260.3 219.118 274.129H230.457C230.955 263.899 231.498 251.439 230.176 240.622C228.267 224.978 222.647 216.472 213.471 215.367Z" fill="#000050"/>
</svg>
