<svg width="21" height="21" viewBox="0 0 21 21" fill="none" xmlns="http://www.w3.org/2000/svg">
<g clip-path="url(#clip0_1976_41026)">
<path d="M10.4991 0C4.70144 0 0 4.70144 0 10.4991C0 16.2967 4.70144 20.9981 10.4991 20.9981C16.2967 20.9981 20.9981 16.2967 20.9981 10.4991C20.9981 4.70144 16.2986 0 10.4991 0ZM16.593 5.94948C16.5226 7.09752 14.3932 15.6653 14.3932 15.6653C14.3932 15.6653 14.2654 16.1671 13.8099 16.1838C13.6432 16.1893 13.4414 16.156 13.2007 15.9486C12.7192 15.5357 11.6064 14.745 10.5713 14.0302C10.2584 14.2932 9.63434 14.8339 8.9881 15.4783C8.07336 16.393 8.19002 15.4783 8.19002 15.4783L8.47147 12.4915L8.47888 12.4952C8.49184 12.4656 8.51221 12.4396 8.51221 12.4396C8.51221 12.4396 13.9025 7.64747 14.0451 7.14567C14.0562 7.10678 14.0136 7.08826 13.958 7.10493C13.6007 7.2364 7.39379 11.1564 6.70867 11.5879C6.66793 11.6138 6.55683 11.5971 6.55683 11.5971L3.54598 10.6157C3.54598 10.6157 3.18676 10.4694 3.30156 10.138C3.32563 10.0695 3.37378 10.0121 3.51636 9.91209C4.18296 9.44731 15.8653 5.24768 15.8653 5.24768C15.8653 5.24768 16.1949 5.13658 16.3893 5.21065C16.4782 5.24398 16.5356 5.28287 16.5837 5.42174C16.6004 5.47174 16.6115 5.58099 16.6096 5.68839C16.6096 5.76616 16.5985 5.83652 16.593 5.94948Z" fill="white"/>
</g>
<defs>
<clipPath id="clip0_1976_41026">
<rect width="21" height="21" fill="white"/>
</clipPath>
</defs>
</svg>
