<svg width="77" height="45" viewBox="0 0 77 45" fill="none" xmlns="http://www.w3.org/2000/svg">
<path d="M45.2191 17.2524C45.2191 17.1658 45.1916 17.1177 45.1093 17.1177C44.5512 17.1177 43.9932 17.1177 43.4351 17.1177C43.3528 17.1177 43.3162 17.1562 43.3162 17.2428C43.3162 17.4353 43.3162 17.6181 43.3162 17.8683C42.813 17.3775 42.5202 17.1754 42.0811 17.0599C40.9832 16.7712 40.0135 17.0407 39.1901 17.8298C38.1563 18.8403 37.8453 20.1106 38.138 21.5349C38.4857 23.1998 39.9129 24.4701 41.642 24.2777C42.2092 24.2103 42.7215 23.989 43.1332 23.5655C43.1789 23.5174 43.2064 23.4404 43.307 23.4597C43.2979 23.8639 43.3345 24.2584 43.2613 24.6626C43.124 25.3459 42.6483 25.8174 41.9713 25.8944C41.2669 25.9811 40.599 25.7693 40.288 25.0764C40.1965 24.8743 40.0958 24.8166 39.9037 24.8262C39.5469 24.8455 39.1901 24.8262 38.8333 24.8358C38.6686 24.8358 38.5131 24.807 38.3484 24.8551C38.3301 24.9898 38.3484 25.1053 38.3759 25.2208C38.6229 26.2698 39.2725 26.9434 40.2148 27.3091C41.1296 27.6652 42.0628 27.6748 42.9868 27.3765C44.0938 27.03 44.7891 26.2601 45.0727 25.0861C45.1642 24.7107 45.2008 24.3354 45.2008 23.9408C45.2008 21.7659 45.2008 19.591 45.2008 17.416C45.2191 17.3679 45.2191 17.3102 45.2191 17.2524ZM41.7243 22.4973C40.6265 22.4877 39.9586 21.6119 39.9586 20.6303C39.9678 19.5717 40.7088 18.7826 41.6968 18.7729C42.7032 18.7633 43.4534 19.5621 43.4534 20.6399C43.4625 21.6889 42.7123 22.5069 41.7243 22.4973Z" fill="#414141"/>
<path d="M67.6486 17.8592C66.4684 16.6563 64.6387 16.6467 63.6049 17.8111C63.5866 17.8304 63.5683 17.8304 63.5317 17.8015C63.5317 17.6571 63.5226 17.4839 63.5317 17.3203C63.5408 17.1567 63.4768 17.1182 63.3304 17.1182C62.873 17.1278 62.4064 17.1182 61.949 17.1182C61.583 17.1182 61.6288 17.0797 61.6288 17.455C61.6288 20.6693 61.6288 23.8933 61.6288 27.1076C61.6288 27.146 61.6288 27.1845 61.6288 27.2327C61.6379 27.4348 61.6379 27.4444 61.8392 27.4444C62.3332 27.4444 62.8181 27.4444 63.3121 27.4444C63.5226 27.4444 63.5317 27.4444 63.5317 27.2038C63.5317 26.1356 63.5317 25.0577 63.5317 23.9895V23.6142C63.8428 23.9702 64.1538 24.2012 64.5198 24.3552C65.6359 24.8171 66.9533 24.4803 67.8133 23.4891C68.353 22.8732 68.6641 22.1418 68.7647 21.3237C68.902 19.9861 68.5817 18.8024 67.6486 17.8592ZM66.7612 21.4681C66.5325 22.238 65.9103 22.7192 65.1419 22.7192C64.2636 22.7192 63.5774 22.1225 63.4219 21.1986C63.3579 20.8233 63.367 20.4576 63.4768 20.0919C63.7147 19.2547 64.3917 18.735 65.1968 18.7735C66.0201 18.812 66.6605 19.4086 66.8252 20.2651C66.8893 20.679 66.8801 21.0735 66.7612 21.4681Z" fill="#414141"/>
<path d="M46.5697 7.89896C47.2925 7.02321 48.1708 6.82111 49.1314 7.00396C50.2292 7.21568 50.8422 7.97595 51.1075 9.08267C51.1898 9.42912 51.2264 9.77557 51.2264 10.1316C51.2264 11.4597 51.2264 12.7781 51.2264 14.1062C51.2264 14.1351 51.2264 14.1639 51.2264 14.1928C51.2447 14.3372 51.1898 14.4045 51.0526 14.3853C51.0251 14.3853 50.9977 14.3853 50.9702 14.3853C50.5128 14.3853 50.0462 14.3853 49.5888 14.3853C49.3326 14.3853 49.3326 14.4045 49.3326 14.1255C49.3326 13.8175 49.3326 13.5192 49.3326 13.2112C49.3326 12.3066 49.3326 11.4116 49.3326 10.507C49.3326 10.2856 49.3143 10.0643 49.2686 9.84294C49.0948 8.91907 48.308 8.50525 47.4846 8.8902C47.1553 9.04417 46.9265 9.31364 46.7802 9.66009C46.6155 10.045 46.5697 10.4588 46.5697 10.8727C46.5697 11.9024 46.5697 12.9321 46.5697 13.9715C46.5697 14.0196 46.5697 14.0773 46.5697 14.1255C46.5697 14.3757 46.5697 14.3757 46.341 14.3757C45.8561 14.3757 45.3804 14.3757 44.8955 14.3757C44.8864 14.3757 44.8772 14.3757 44.8681 14.3757C44.676 14.366 44.676 14.366 44.6668 14.1447C44.6668 14.1062 44.6668 14.0677 44.6668 14.0196C44.6668 10.6128 44.6668 7.20606 44.6668 3.78967C44.6668 3.74155 44.676 3.68381 44.6668 3.63569C44.6485 3.47209 44.7217 3.43359 44.8681 3.43359C45.3621 3.44322 45.847 3.43359 46.341 3.43359C46.5697 3.43359 46.5789 3.43359 46.5789 3.68381C46.5789 4.95413 46.5789 6.23407 46.5789 7.50439C46.5697 7.6295 46.5697 7.72574 46.5697 7.89896Z" fill="#414141"/>
<path d="M72.3787 17.8387C73.2295 16.9053 74.245 16.7416 75.3337 17.1362C76.2669 17.473 76.7243 18.2622 76.9256 19.2438C76.9896 19.5518 76.9988 19.8693 76.9988 20.1773C76.9988 21.4861 76.9988 22.7853 76.9988 24.0941C76.9988 24.1422 76.9988 24.2 76.9988 24.2481C76.9988 24.3443 76.9713 24.4021 76.8707 24.4021C76.3218 24.4021 75.7728 24.4021 75.2239 24.4021C75.1416 24.4021 75.0958 24.3636 75.0958 24.277C75.0958 24.2096 75.0958 24.1326 75.0958 24.0652C75.0958 22.8912 75.0958 21.7171 75.0958 20.543C75.0958 20.3024 75.0867 20.0618 75.0318 19.8212C74.922 19.3497 74.7024 18.9647 74.2359 18.83C73.7418 18.6856 73.2753 18.8011 72.9002 19.1764C72.5342 19.5325 72.4061 20.0137 72.3695 20.5141C72.3512 20.7355 72.3604 20.9568 72.3604 21.1781C72.3604 22.1598 72.3604 23.1414 72.3604 24.123C72.3604 24.3924 72.3604 24.3924 72.1134 24.3924C71.6285 24.3924 71.1528 24.3924 70.6679 24.3924C70.4575 24.3924 70.4575 24.3924 70.4483 24.1518C70.4483 24.1134 70.4483 24.0749 70.4483 24.0267C70.4483 20.62 70.4483 17.2132 70.4483 13.7968C70.4483 13.4022 70.4117 13.46 70.7685 13.46C71.1985 13.46 71.6377 13.46 72.0676 13.46C72.3787 13.46 72.3512 13.4407 72.3512 13.7487C72.3512 14.9998 72.3512 16.2605 72.3512 17.5115C72.3604 17.6174 72.3421 17.7233 72.3787 17.8387Z" fill="#414141"/>
<path d="M59.3552 17.1074C58.8246 17.1074 58.294 17.117 57.7633 17.1074C57.6261 17.1074 57.5987 17.1651 57.6078 17.2902C57.617 17.4635 57.6078 17.6271 57.6078 17.858C57.5346 17.8003 57.5163 17.781 57.4889 17.7618C56.9583 17.1747 56.2904 16.9245 55.5402 16.9534C54.5705 16.9823 53.7745 17.425 53.1799 18.2237C52.4022 19.2631 52.1918 20.4468 52.4663 21.7171C52.695 22.795 53.2531 23.6418 54.1862 24.1808C55.2475 24.7967 56.7021 24.6619 57.5072 23.7188C57.5255 23.6996 57.5529 23.6803 57.5987 23.7284C57.5987 23.8728 57.6078 24.046 57.5987 24.2192C57.5895 24.3636 57.6536 24.4117 57.7908 24.4021C58.2482 24.3925 58.7148 24.4021 59.1722 24.4021C59.5199 24.4021 59.5016 24.4598 59.5016 24.0653C59.5016 21.8615 59.5016 19.6576 59.5016 17.4538C59.5016 17.3961 59.5016 17.3287 59.5016 17.271C59.5199 17.1459 59.465 17.1074 59.3552 17.1074ZM57.6718 21.4284C57.434 22.256 56.7936 22.7372 55.9611 22.718C55.1743 22.6987 54.543 22.1598 54.3509 21.3322C54.2503 20.8991 54.2594 20.4757 54.3875 20.0426C54.6345 19.2342 55.2932 18.7338 56.0891 18.7723C56.8851 18.8011 57.5072 19.3401 57.6993 20.1677C57.745 20.3505 57.7725 20.543 57.7633 20.7355C57.7725 20.9761 57.7359 21.2071 57.6718 21.4284Z" fill="#414141"/>
<path d="M59.9464 9.86408C59.6445 8.51677 58.8943 7.57366 57.6227 7.13097C57.0738 6.9385 56.5157 6.89038 55.9393 6.97699C54.5945 7.16947 53.6156 7.89124 53.0758 9.20968C52.783 9.93145 52.719 10.6917 52.8562 11.4712C53.0667 12.6838 53.6522 13.6269 54.7317 14.1466C56.0857 14.801 57.4214 14.6952 58.6839 13.8483C59.2237 13.4826 59.6171 12.9725 59.8641 12.3566C59.9007 12.2604 59.9647 12.1641 59.9464 12.0198C59.3335 12.0198 58.7205 12.0198 58.1076 12.0198C58.0161 12.0198 57.9703 12.0775 57.9337 12.1449C57.8239 12.3277 57.6684 12.4625 57.4946 12.5683C57.1103 12.7897 56.6987 12.857 56.2687 12.8089C55.3813 12.7127 54.7957 12.1449 54.6951 11.2595C54.814 11.2114 54.9238 11.2306 55.0245 11.2306C56.3144 11.2306 57.6044 11.2306 58.8943 11.2306C59.2237 11.2306 59.553 11.2306 59.8732 11.2306C60.0745 11.2306 60.0745 11.221 60.0837 11.0189C60.0745 10.6244 60.0288 10.2394 59.9464 9.86408ZM54.7683 9.88333C54.8598 9.10382 55.5825 8.54565 56.4334 8.56489C57.2018 8.58414 57.8788 9.18081 57.9337 9.88333H54.7683Z" fill="#414141"/>
<path d="M43.0384 12.5961C43.0384 13.1158 43.0384 13.6547 43.0384 14.184C43.0384 14.3284 42.9469 14.3476 42.8555 14.3669C42.5353 14.4535 42.2059 14.4727 41.8857 14.4727C41.4191 14.4727 40.9617 14.415 40.5408 14.2033C39.7998 13.8472 39.379 13.2409 39.2326 12.4037C39.196 12.1823 39.1869 11.961 39.1869 11.7396C39.1869 10.8639 39.1869 9.97851 39.1869 9.10276C39.1869 8.86217 39.1869 8.85254 38.949 8.85254C38.6196 8.85254 38.2994 8.84292 37.9701 8.85254C37.8329 8.85254 37.7871 8.81405 37.7871 8.66007C37.7963 8.19814 37.7963 7.72658 37.7871 7.26464C37.7871 7.12991 37.8329 7.09142 37.9518 7.09142C38.2994 7.10104 38.6471 7.08179 38.9856 7.10104C39.1411 7.10104 39.1869 7.05292 39.1869 6.89894C39.1777 6.36964 39.1869 5.84997 39.1869 5.32067C39.1869 5.0897 39.1869 5.08008 39.4064 5.08008C39.9096 5.08008 40.4036 5.08008 40.9068 5.08008C41.044 5.08008 41.0898 5.11857 41.0898 5.27255C41.0806 5.7826 41.0898 6.28303 41.0898 6.79308C41.0898 7.13954 41.0623 7.11066 41.41 7.11066C41.8948 7.11066 42.3706 7.11066 42.8555 7.11066C42.9927 7.11066 43.0659 7.13954 43.0567 7.31276C43.0476 7.76507 43.0476 8.22701 43.0567 8.67932C43.0567 8.85254 42.9927 8.88141 42.8555 8.87179C42.3431 8.86217 41.84 8.87179 41.3276 8.87179C41.1081 8.87179 41.0989 8.87179 41.0989 9.10276C41.0989 9.87265 41.0989 10.6425 41.0989 11.4028C41.0989 11.5664 41.1172 11.73 41.1447 11.884C41.2179 12.2978 41.4466 12.548 41.8308 12.6443C42.1876 12.7309 42.5353 12.702 42.8829 12.6154C42.9195 12.5865 42.9652 12.5673 43.0384 12.5961Z" fill="#414141"/>
<path d="M49.2154 18.1198C49.3252 18.0525 49.3435 17.9562 49.3892 17.8889C49.8467 17.2056 50.5877 16.8976 51.4202 17.0708C51.5117 17.0901 51.5758 17.1286 51.5758 17.2537C51.5758 17.8696 51.5758 18.4855 51.5758 19.1111C51.4202 19.1207 51.3013 19.0629 51.1732 19.0341C50.1852 18.8127 49.4441 19.342 49.2612 20.391C49.2246 20.5835 49.2154 20.7663 49.2154 20.9588C49.2154 21.9789 49.2154 22.999 49.2154 24.0191C49.2154 24.0769 49.2063 24.1442 49.2154 24.202C49.2337 24.3656 49.1514 24.4041 49.0142 24.4041C48.511 24.3944 48.0169 24.4041 47.5138 24.4041C47.3125 24.4041 47.3125 24.3944 47.3125 24.1827C47.3125 21.9019 47.3125 19.6115 47.3125 17.3307C47.3125 17.1767 47.3491 17.119 47.5046 17.119C48.0169 17.1286 48.5201 17.1286 49.0324 17.119C49.188 17.119 49.2246 17.1863 49.2246 17.3307C49.2154 17.5713 49.2154 17.8311 49.2154 18.1198Z" fill="#414141"/>
<path d="M14.2719 30.0257C12.3415 30.0257 10.4752 29.6312 8.71865 28.842C7.01701 28.0818 5.48918 27.0039 4.18093 25.6277C2.87267 24.2516 1.83888 22.6444 1.12528 20.8544C0.384243 18.9971 0 17.0338 0 15.0129C0 12.9919 0.375095 11.0191 1.12528 9.17132C1.84803 7.38133 2.87267 5.77418 4.18093 4.398C5.48918 3.02182 7.01701 1.93435 8.71865 1.18371C10.4843 0.404193 12.3507 0 14.2719 0C16.1931 0 18.0686 0.394569 19.8251 1.18371C21.5268 1.94397 23.0546 3.02182 24.3628 4.398C25.6711 5.77418 26.7049 7.38133 27.4185 9.17132C28.1595 11.0287 28.5438 12.9919 28.5438 15.0129C28.5438 17.0338 28.1687 19.0067 27.4185 20.8544C26.6957 22.6444 25.6711 24.2516 24.3628 25.6277C23.0546 27.0039 21.5268 28.0914 19.8251 28.842C18.0686 29.6216 16.2022 30.0257 14.2719 30.0257ZM14.2719 4.85031C8.94737 4.85031 4.62006 9.40229 4.62006 15.0032C4.62006 20.6042 8.95652 25.1658 14.281 25.1658C19.6055 25.1658 23.942 20.6042 23.942 15.0032C23.9328 9.40229 19.5964 4.85031 14.2719 4.85031Z" fill="#414141"/>
<path d="M30.942 4.78366C32.1849 4.78366 33.1925 3.72373 33.1925 2.41624C33.1925 1.10875 32.1849 0.0488281 30.942 0.0488281C29.699 0.0488281 28.6914 1.10875 28.6914 2.41624C28.6914 3.72373 29.699 4.78366 30.942 4.78366Z" fill="#414141"/>
<path d="M16.6378 45.0004C16.0432 45.0004 15.4576 44.7598 15.0094 44.2882C14.1036 43.3355 14.1036 41.8053 15.0094 40.8526L24.6154 30.7478C25.5212 29.795 26.9758 29.795 27.8815 30.7478C28.7872 31.7005 28.7872 33.2307 27.8815 34.1834L18.2754 44.2882C17.818 44.7694 17.2233 45.0004 16.6378 45.0004Z" fill="#414141"/>
</svg>
