<svg width="219" height="214" viewBox="0 0 219 214" fill="none" xmlns="http://www.w3.org/2000/svg">
<path d="M95.0836 98.7965C94.9934 99.6855 95.0785 100.584 95.3339 101.439C95.5893 102.294 96.0099 103.088 96.5709 103.774C97.1319 104.461 97.8219 105.027 98.6004 105.437C99.3789 105.848 100.23 106.096 101.104 106.166C101.978 106.236 102.857 106.128 103.689 105.846C104.521 105.565 105.289 105.117 105.949 104.529C106.609 103.94 107.146 103.223 107.53 102.42C107.914 101.616 108.136 100.742 108.183 99.8501L95.0836 98.7965ZM112.183 47.7392C112.274 46.8494 112.19 45.9499 111.935 45.0939C111.68 44.2378 111.259 43.4425 110.698 42.7549C110.137 42.0673 109.446 41.5012 108.666 41.0902C107.887 40.6791 107.035 40.4313 106.16 40.3615C105.285 40.2916 104.405 40.4011 103.573 40.6834C102.74 40.9658 101.971 41.4153 101.312 42.0054C100.652 42.5955 100.115 43.3144 99.7324 44.1195C99.3497 44.9246 99.129 45.7997 99.0834 46.6932L112.183 47.7392ZM86.4 137.181C87.0946 136.627 87.673 135.938 88.1007 135.152C88.5285 134.366 88.7969 133.501 88.89 132.608C88.9831 131.714 88.899 130.811 88.6427 129.951C88.3864 129.091 87.9631 128.293 87.398 127.604C86.8329 126.914 86.1376 126.347 85.3534 125.937C84.5691 125.527 83.7121 125.282 82.8331 125.217C81.9541 125.152 81.0712 125.267 80.2369 125.557C79.4026 125.846 78.6339 126.304 77.9766 126.902L86.4 137.181ZM31.3841 166.59C30.0756 167.738 29.2625 169.365 29.1206 171.118C28.9787 172.872 29.5193 174.613 30.6256 175.964C31.7319 177.315 33.3151 178.168 35.0332 178.338C36.7512 178.509 38.4662 177.984 39.8075 176.876L31.3841 166.59ZM175.615 147.012C175.34 148.743 175.742 150.516 176.734 151.949C177.727 153.381 179.231 154.36 180.924 154.675C182.617 154.99 184.363 154.615 185.788 153.631C187.212 152.648 188.202 151.134 188.544 149.414L175.615 147.012ZM195.986 107.87C196.159 106.996 196.16 106.096 195.989 105.223C195.817 104.349 195.477 103.519 194.987 102.781C194.496 102.043 193.867 101.413 193.135 100.926C192.403 100.439 191.583 100.106 190.723 99.9463C189.863 99.7865 188.981 99.8032 188.128 99.9953C187.274 100.187 186.467 100.551 185.753 101.065C185.039 101.579 184.433 102.233 183.97 102.989C183.507 103.745 183.197 104.587 183.057 105.467L195.986 107.87ZM44.3203 49.9146C43.4841 50.2477 42.7237 50.752 42.086 51.3963C41.4483 52.0406 40.9469 52.8113 40.6126 53.6608C40.2784 54.5103 40.1184 55.4206 40.1425 56.3356C40.1666 57.2505 40.3743 58.1508 40.7529 58.9808C41.1314 59.8107 41.6728 60.5528 42.3435 61.1613C43.0142 61.7697 43.8 62.2316 44.6526 62.5185C45.5051 62.8053 46.4063 62.9111 47.3004 62.8292C48.1946 62.7472 49.0629 62.4794 49.8516 62.0422L44.3203 49.9146ZM89.5225 43.2898C90.3587 42.9567 91.1191 42.4524 91.7568 41.8081C92.3945 41.1638 92.8959 40.3931 93.2302 39.5436C93.5644 38.6941 93.7244 37.7838 93.7003 36.8688C93.6762 35.9538 93.4684 35.0536 93.0899 34.2236C92.7114 33.3937 92.1701 32.6516 91.4993 32.0431C90.8286 31.4347 90.0428 30.9728 89.1902 30.6859C88.3377 30.399 87.4365 30.2933 86.5423 30.3752C85.6482 30.4571 84.7799 30.725 83.9912 31.1622L89.5225 43.2898ZM174.864 102.147C175.694 101.902 176.469 101.494 177.144 100.944C177.818 100.395 178.381 99.715 178.798 98.9439C179.215 98.1729 179.48 97.3256 179.576 96.4504C179.672 95.5752 179.598 94.6892 179.358 93.8432C179.119 92.9971 178.718 92.2074 178.179 91.5193C177.64 90.8311 176.973 90.2579 176.217 89.8324C175.461 89.407 174.629 89.1375 173.771 89.0395C172.913 88.9415 172.044 89.0168 171.214 89.2612L174.864 102.147ZM113.001 106.391C112.171 106.635 111.396 107.043 110.721 107.593C110.046 108.142 109.484 108.821 109.066 109.592C108.648 110.362 108.384 111.209 108.287 112.084C108.19 112.959 108.264 113.845 108.503 114.691C108.742 115.537 109.143 116.327 109.681 117.016C110.22 117.704 110.886 118.277 111.642 118.703C112.398 119.129 113.229 119.399 114.087 119.497C114.945 119.596 115.814 119.521 116.644 119.277L113.001 106.391ZM54.2677 82.2726C52.7295 81.471 50.9435 81.319 49.2962 81.8497C47.649 82.3803 46.2729 83.5509 45.4657 85.1081C44.6585 86.6653 44.4852 88.4839 44.9832 90.1705C45.4812 91.857 46.6105 93.2758 48.1268 94.1198L54.2677 82.2726ZM81.1066 111.887C81.8717 112.326 82.7153 112.604 83.5875 112.705C84.4598 112.805 85.343 112.727 86.1851 112.474C87.0272 112.222 87.8111 111.799 88.4905 111.233C89.1699 110.666 89.731 109.966 90.1408 109.175C90.5506 108.383 90.8007 107.516 90.8763 106.624C90.952 105.733 90.8516 104.834 90.5813 103.983C90.3109 103.132 89.8759 102.344 89.3021 101.667C88.7282 100.989 88.0271 100.436 87.2401 100.04L81.1066 111.887ZM156.545 179.552C157.413 179.471 158.256 179.215 159.026 178.8C159.796 178.384 160.477 177.816 161.029 177.13C161.582 176.443 161.995 175.651 162.245 174.801C162.495 173.95 162.576 173.057 162.485 172.174C162.393 171.29 162.13 170.435 161.711 169.656C161.292 168.877 160.726 168.191 160.044 167.638C159.363 167.084 158.58 166.675 157.742 166.432C156.904 166.19 156.027 166.12 155.162 166.226L156.545 179.552ZM43.5396 178.255C41.8256 178.466 40.2617 179.356 39.1859 180.733C38.1102 182.109 37.609 183.862 37.7906 185.613C37.9723 187.363 38.8222 188.97 40.1567 190.087C41.4912 191.204 43.2031 191.74 44.9225 191.581L43.5396 178.255ZM155.988 161.383C156.787 161.714 157.642 161.881 158.505 161.875C159.367 161.869 160.22 161.69 161.015 161.348C161.809 161.006 162.53 160.507 163.136 159.881C163.741 159.255 164.22 158.514 164.545 157.699C164.87 156.884 165.034 156.012 165.028 155.133C165.022 154.254 164.846 153.384 164.511 152.574C164.175 151.764 163.686 151.029 163.072 150.411C162.458 149.794 161.731 149.306 160.932 148.975L155.988 161.383ZM112.191 128.79C111.389 128.445 110.527 128.266 109.657 128.263C108.786 128.261 107.924 128.435 107.12 128.774C106.316 129.114 105.586 129.614 104.973 130.244C104.36 130.873 103.875 131.621 103.548 132.443C103.221 133.266 103.057 134.146 103.066 135.034C103.075 135.921 103.256 136.798 103.601 137.613C103.945 138.428 104.444 139.165 105.07 139.782C105.696 140.399 106.436 140.883 107.247 141.205L112.191 128.79ZM108.139 99.8501L112.161 47.7392L99.0611 46.6932L95.039 98.7965L108.139 99.8501ZM204.781 91.9975C204.15 93.4091 203.253 94.6802 202.141 95.7383C201.028 96.7964 199.722 97.6206 198.297 98.164C196.872 98.7074 195.356 98.9593 193.836 98.9053C192.315 98.8512 190.82 98.4923 189.436 97.8491L183.994 110.037C186.949 111.41 190.14 112.176 193.385 112.291C196.63 112.406 199.865 111.869 202.907 110.709C205.948 109.549 208.735 107.789 211.109 105.531C213.483 103.272 215.398 100.559 216.743 97.5459L204.781 91.9975ZM189.436 97.8491C186.643 96.5507 184.471 94.1755 183.394 91.245C182.318 88.3145 182.427 85.0684 183.696 82.2196L171.734 76.6484C169.024 82.728 168.793 89.6556 171.09 95.9092C173.387 102.163 178.026 107.231 183.986 109.999L189.436 97.8491ZM183.696 82.2196C184.326 80.8073 185.223 79.5355 186.335 78.4768C187.448 77.4182 188.754 76.5936 190.179 76.0501C191.604 75.5066 193.12 75.2549 194.641 75.3095C196.162 75.364 197.657 75.7237 199.041 76.368L204.491 64.1721C201.537 62.7976 198.346 62.0301 195.101 61.9132C191.855 61.7964 188.619 62.3326 185.577 63.4912C182.535 64.6498 179.747 66.4081 177.372 68.6657C174.997 70.9233 173.081 73.6358 171.734 76.6484L183.696 82.2196ZM199.041 76.368C200.426 77.0108 201.673 77.9255 202.711 79.0597C203.748 80.1939 204.557 81.5254 205.09 82.9782C205.623 84.431 205.87 85.9766 205.817 87.5267C205.764 89.0769 205.412 90.6012 204.781 92.0126L216.743 97.5611C219.449 91.481 219.678 84.5549 217.381 78.3025C215.084 72.0501 210.449 66.9819 204.491 64.21L199.041 76.368ZM115.618 30.4724C114.987 31.884 114.09 33.1552 112.978 34.2132C111.865 35.2713 110.559 36.0956 109.134 36.639C107.709 37.1824 106.193 37.4342 104.673 37.3802C103.152 37.3261 101.657 36.9673 100.273 36.324L94.8234 48.5123C97.778 49.8861 100.969 50.6528 104.215 50.7685C107.46 50.8842 110.696 50.3466 113.737 49.1865C116.779 48.0264 119.566 46.2665 121.94 44.0075C124.314 41.7484 126.228 39.0345 127.573 36.0208L115.618 30.4724ZM100.273 36.324C98.8884 35.6812 97.6416 34.7665 96.6038 33.6323C95.566 32.4981 94.7575 31.1666 94.2245 29.7138C93.6915 28.261 93.4445 26.7154 93.4975 25.1653C93.5505 23.6151 93.9025 22.0908 94.5334 20.6793L82.5712 15.1234C79.8538 21.2076 79.618 28.1431 81.9157 34.4045C84.2133 40.666 88.8563 45.7406 94.8234 48.5123L100.273 36.324ZM94.5334 20.6793C95.1633 19.2671 96.0599 17.9952 97.1721 16.9363C98.2843 15.8775 99.5902 15.0524 101.015 14.5083C102.44 13.9642 103.956 13.7116 105.477 13.7652C106.998 13.8187 108.494 14.1772 109.878 14.8202L115.321 2.6319C109.353 -0.138555 102.55 -0.37895 96.4087 1.96358C90.2672 4.30611 85.2898 9.03973 82.5712 15.1234L94.5334 20.6793ZM109.878 14.8202C112.675 16.12 114.851 18.4992 115.927 21.4345C117.004 24.3698 116.892 27.6208 115.618 30.4724L127.573 36.0208C128.919 33.0084 129.67 29.755 129.783 26.4465C129.896 23.138 129.369 19.8392 128.231 16.7386C127.093 13.638 125.368 10.7962 123.152 8.37578C120.937 5.95532 118.276 4.00353 115.321 2.6319L109.878 14.8202ZM35.2724 193.203C34.6418 194.614 33.7447 195.885 32.6323 196.944C31.5198 198.002 30.2138 198.826 28.7888 199.369C27.3638 199.913 25.8478 200.165 24.3274 200.11C22.8069 200.056 21.3118 199.698 19.9274 199.054L14.4778 211.243C17.4324 212.616 20.6236 213.383 23.869 213.499C27.1144 213.614 30.3503 213.077 33.3918 211.917C36.4333 210.757 39.2207 208.997 41.5947 206.738C43.9686 204.479 45.8826 201.765 47.2272 198.751L35.2724 193.203ZM19.9274 199.054C17.1312 197.756 14.9551 195.378 13.8774 192.445C12.7998 189.511 12.9088 186.261 14.1805 183.41L2.22565 177.854C0.879134 180.866 0.127935 184.119 0.014966 187.428C-0.0980035 190.736 0.429469 194.035 1.56725 197.136C2.70504 200.237 4.43084 203.078 6.64608 205.499C8.86131 207.919 11.5226 209.871 14.4778 211.243L19.9274 199.054ZM14.1805 183.41C15.4554 180.558 17.789 178.34 20.6681 177.242C23.5472 176.145 26.7359 176.259 29.5329 177.558L34.975 165.362C29.0073 162.592 22.2047 162.351 16.0632 164.694C9.92169 167.036 4.94428 171.77 2.22565 177.854L14.1805 183.41ZM29.5329 177.558C30.9174 178.201 32.1642 179.116 33.202 180.25C34.2398 181.384 35.0483 182.715 35.5813 184.168C36.1143 185.621 36.3613 187.167 36.3083 188.717C36.2553 190.267 35.9033 191.791 35.2724 193.203L47.2272 198.751C48.5737 195.739 49.3249 192.485 49.4379 189.177C49.5508 185.868 49.0234 182.569 47.8856 179.469C46.7478 176.368 45.022 173.527 42.8068 171.106C40.5915 168.686 37.9303 166.734 34.975 165.362L29.5329 177.558ZM185.116 169.933C184.486 171.344 183.589 172.616 182.476 173.674C181.364 174.732 180.058 175.556 178.633 176.099C177.208 176.643 175.692 176.895 174.171 176.841C172.651 176.786 171.156 176.428 169.771 175.784L164.3 187.98C170.267 190.751 177.07 190.991 183.211 188.649C189.353 186.306 194.33 181.572 197.049 175.489L185.116 169.933ZM169.771 175.784C166.975 174.486 164.799 172.109 163.721 169.175C162.644 166.241 162.753 162.991 164.024 160.14L152.07 154.584C149.351 160.666 149.111 167.601 151.405 173.863C153.698 180.125 158.336 185.203 164.3 187.98L169.771 175.784ZM164.024 160.14C164.655 158.728 165.552 157.457 166.665 156.399C167.777 155.341 169.083 154.517 170.508 153.973C171.933 153.43 173.449 153.178 174.969 153.232C176.49 153.286 177.985 153.645 179.369 154.288L184.804 142.1C178.836 139.329 172.034 139.089 165.892 141.432C159.751 143.774 154.773 148.508 152.055 154.591L164.024 160.14ZM179.369 154.288C182.166 155.587 184.342 157.964 185.419 160.898C186.497 163.831 186.388 167.081 185.116 169.933L197.071 175.489C198.416 172.475 199.166 169.221 199.277 165.912C199.389 162.603 198.86 159.304 197.721 156.204C196.582 153.103 194.855 150.262 192.638 147.842C190.422 145.422 187.76 143.471 184.804 142.1L179.369 154.288ZM107.722 124.992C106.443 127.853 104.101 130.078 101.213 131.18C98.3242 132.281 95.125 132.169 92.3179 130.867L86.8684 143.055C89.8293 144.433 93.0275 145.202 96.2801 145.318C99.5328 145.435 102.776 144.897 105.825 143.734C108.873 142.572 111.667 140.809 114.046 138.545C116.426 136.281 118.344 133.561 119.692 130.541L107.722 124.992ZM92.3179 130.867C90.9273 130.222 89.675 129.304 88.6326 128.166C87.5902 127.027 86.7782 125.691 86.243 124.232C85.7079 122.773 85.4601 121.221 85.5138 119.665C85.5675 118.108 85.9217 116.578 86.5561 115.161L74.5939 109.605C73.2449 112.623 72.4923 115.883 72.3791 119.197C72.2659 122.512 72.7943 125.816 73.9342 128.923C75.0741 132.029 76.803 134.876 79.0223 137.301C81.2416 139.725 83.9077 141.681 86.8684 143.055L92.3179 130.867ZM86.5561 115.161C87.1883 113.744 88.0885 112.467 89.2051 111.404C90.3217 110.341 91.6329 109.513 93.0637 108.968C94.4945 108.422 96.0167 108.17 97.5433 108.224C99.0699 108.279 100.571 108.64 101.961 109.287L107.403 97.0911C101.424 94.3155 94.6092 94.0747 88.4565 96.4215C82.3038 98.7683 77.3174 103.511 74.5939 109.605L86.5561 115.161ZM101.961 109.287C103.351 109.932 104.602 110.85 105.644 111.989C106.686 113.128 107.498 114.464 108.033 115.923C108.568 117.381 108.816 118.933 108.762 120.489C108.709 122.045 108.356 123.575 107.722 124.992L119.692 130.541C121.041 127.523 121.794 124.263 121.907 120.949C122.02 117.634 121.492 114.33 120.352 111.223C119.212 108.117 117.483 105.27 115.264 102.845C113.044 100.421 110.378 98.4652 107.418 97.0911L101.961 109.287ZM78.0138 126.88L31.399 166.567L39.8223 176.853L86.4372 137.158L78.0138 126.88ZM188.559 149.392L195.993 107.847L183.064 105.444L175.63 146.989L188.559 149.392ZM49.859 62.0422L89.53 43.2671L83.9986 31.1394L44.3277 49.8918L49.859 62.0422ZM171.221 89.2536L113.001 106.391L116.644 119.277L174.842 102.139L171.221 89.2536ZM48.1788 94.1198L81.1586 111.887L87.2922 100.04L54.3198 82.2726L48.1788 94.1198ZM155.237 166.226L43.5842 178.255L44.9671 191.581L156.597 179.552L155.237 166.226ZM46.0897 75.8753C45.4592 77.2869 44.562 78.558 43.4496 79.6161C42.3371 80.6742 41.0311 81.4985 39.6061 82.0418C38.1812 82.5852 36.6651 82.8371 35.1447 82.7831C33.6242 82.729 32.1291 82.3701 30.7447 81.7269L25.2952 93.9228C28.2498 95.3002 31.4417 96.0706 34.6885 96.1898C37.9353 96.3089 41.1733 95.7746 44.2175 94.6174C47.2616 93.4601 50.0523 91.7026 52.4299 89.4453C54.8075 87.1879 56.7255 84.475 58.0742 81.4616L46.0897 75.8753ZM30.7745 81.7269C29.3892 81.0847 28.1417 80.1706 27.1031 79.0367C26.0645 77.9028 25.2553 76.5714 24.7216 75.1185C24.1879 73.6657 23.9402 72.1198 23.9927 70.5694C24.0452 69.0189 24.3968 67.4941 25.0275 66.0822L13.0727 60.5338C10.3553 66.618 10.1195 73.5535 12.4172 79.815C14.7149 86.0764 19.3578 91.151 25.3249 93.9228L30.7745 81.7269ZM25.0275 66.0822C26.3038 63.2322 28.638 61.0155 31.517 59.9196C34.3959 58.8237 37.5839 58.9383 40.3799 60.2382L45.822 48.0348C39.8575 45.2767 33.0634 45.0438 26.9306 47.3871C20.7978 49.7304 15.8273 54.4585 13.1099 60.5338L25.0275 66.0822ZM40.3799 60.2382C43.169 61.5421 45.3367 63.921 46.4072 66.8527C47.4777 69.7844 47.3635 73.0294 46.0897 75.8753L58.0742 81.4616C59.4255 78.447 60.1805 75.1904 60.2959 71.878C60.4114 68.5657 59.885 65.2626 58.747 62.1579C57.609 59.0531 55.8817 56.2076 53.6639 53.7842C51.446 51.3608 48.7813 49.4071 45.822 48.0348L40.3799 60.2382ZM160.976 148.975L112.257 128.79L107.313 141.205L156.055 161.383L160.976 148.975Z" fill="#000050"/>
<path fill-rule="evenodd" clip-rule="evenodd" d="M11 145.179C11.0009 131.665 14.9312 118.454 22.2938 107.218C29.6564 95.9818 40.1207 87.2245 52.3634 82.0535C64.6062 76.8825 78.0775 75.53 91.0739 78.1671C104.07 80.8041 116.008 87.3123 125.378 96.8686C134.747 106.425 141.128 118.6 143.713 131.855C146.298 145.109 144.971 158.848 139.899 171.333C134.828 183.819 126.241 194.49 115.223 201.998C104.205 209.506 91.2511 213.514 78 213.514C69.2009 213.514 60.4878 211.747 52.3584 208.313C44.229 204.879 36.8425 199.846 30.6208 193.5C24.3991 187.154 19.464 179.621 16.0975 171.33C12.7309 163.039 10.9988 154.153 11 145.179Z" fill="#FFFFA0"/>
</svg>
