<svg width="79" height="79" viewBox="0 0 79 79" fill="none" xmlns="http://www.w3.org/2000/svg">
<g id="Group 632406">
<g id="Group 632405">
<path id="Vector" d="M39.5 78.8815C61.3152 78.8815 79 61.2233 79 39.4408C79 17.6582 61.3152 0 39.5 0C17.6848 0 0 17.6582 0 39.4408C0 61.2233 17.6848 78.8815 39.5 78.8815Z" fill="#FFFFA0"/>
<path id="Vector_2" d="M56.551 27.3582C56.1748 27.2956 55.7986 27.2956 55.4225 27.2956C52.601 27.2956 49.8423 28.4225 47.3344 30.6762C46.1431 31.6779 45.0772 32.93 44.074 34.3699C43.8859 28.9859 43.5725 23.2889 43.0709 17.5293H35.7979C37.3653 33.9316 37.1772 48.2054 36.9264 60.7263V60.7889H44.1367C44.3248 48.2054 47.5225 40.1921 52.1621 36.0602C53.4161 34.9333 54.6074 34.4325 55.7986 34.5577C61.5042 35.1837 60.6264 52.9634 60.1875 60.8515H67.3979C67.7113 55.0293 68.0248 47.955 67.2098 41.8198C66.0185 32.8674 62.4447 28.0468 56.551 27.3582Z" fill="url(#paint0_linear_1893_13978)"/>
<g id="Group">
<path id="Vector_3" d="M10.4082 17.6562H15.8003L16.9288 26.2957C17.1796 28.1112 17.305 29.9267 17.5558 31.8048H17.6812C17.8693 29.9267 18.1828 28.0486 18.559 26.2957L19.7503 20.1604H23.763L24.9542 26.2957C25.3304 28.1112 25.6439 29.9267 25.8947 31.8048H26.0201C26.2709 29.9267 26.3336 28.1112 26.5217 26.2957L27.5876 17.6562H32.7288L29.8447 36.3124H23.3868L22.3836 30.2397C22.1328 28.612 21.9447 26.8591 21.6939 24.7305H21.5685C21.3804 26.2957 21.255 27.9234 20.9415 30.2397L19.9384 36.3124H13.5431L10.4082 17.6562Z" fill="#414141"/>
<path id="Vector_4" d="M18.1218 51.0208L12.1028 42.0684H18.0591L20.0028 45.0734C20.567 46.1376 21.3194 47.2019 21.9464 48.2662H22.0718C22.5734 47.2645 23.1377 46.1376 23.6393 45.0734L25.2694 42.0684H31.0377L24.9559 51.6468L31.4139 60.7245H25.4575L23.3258 57.6569C22.6361 56.5926 21.8837 55.4657 21.194 54.4014H21.0686C20.5043 55.4657 19.8774 56.53 19.3131 57.6569L17.4948 60.7245H11.7266L18.1218 51.0208Z" fill="#414141"/>
</g>
</g>
</g>
<defs>
<linearGradient id="paint0_linear_1893_13978" x1="51.7609" y1="62.1787" x2="51.7609" y2="25.9433" gradientUnits="userSpaceOnUse">
<stop stop-color="#0000B4"/>
<stop offset="1" stop-color="#000050"/>
</linearGradient>
</defs>
</svg>
