<svg width="14" height="13" viewBox="0 0 14 13" fill="none" xmlns="http://www.w3.org/2000/svg">
<path d="M6.52358 12.688C10.1264 12.688 13.0472 9.84769 13.0472 6.344C13.0472 2.84031 10.1264 0 6.52358 0C2.92071 0 0 2.84031 0 6.344C0 9.84769 2.92071 12.688 6.52358 12.688Z" fill="#FFFFA0"/>
<path d="M9.33836 4.11222C9.27623 4.10215 9.2141 4.10215 9.15197 4.10215C8.686 4.10215 8.23038 4.2834 7.81619 4.64592C7.61944 4.80703 7.44341 5.00843 7.27773 5.24004C7.24667 4.37403 7.19489 3.45768 7.11206 2.53125H5.91089C6.16976 5.16955 6.1387 7.46547 6.09728 9.47944V9.48951H7.28809C7.31915 7.46547 7.84725 6.17653 8.61351 5.51192C8.82061 5.33067 9.01735 5.25011 9.2141 5.27025C10.1564 5.37095 10.0114 8.23078 9.93894 9.49958H11.1298C11.1815 8.56308 11.2333 7.42519 11.0987 6.43835C10.9019 4.99836 10.3117 4.22298 9.33836 4.11222Z" fill="url(#paint0_linear_1_34)"/>
<path d="M1.7168 2.55273H2.60732L2.7937 3.94237C2.83512 4.2344 2.85583 4.52642 2.89725 4.82852H2.91796C2.94903 4.52642 3.0008 4.22433 3.06293 3.94237L3.25967 2.95553H3.92239L4.11913 3.94237C4.18126 4.2344 4.23303 4.52642 4.27445 4.82852H4.29516C4.33658 4.52642 4.34694 4.2344 4.378 3.94237L4.55404 2.55273H5.40314L4.92681 5.55355H3.86026L3.69458 4.57677C3.65316 4.31496 3.6221 4.033 3.58068 3.69063H3.55997C3.5289 3.94237 3.50819 4.20419 3.45642 4.57677L3.29074 5.55355H2.23454L1.7168 2.55273Z" fill="#414141"/>
<path d="M2.9915 7.91992L1.99743 6.47993H2.98115L3.30215 6.96328C3.39534 7.13447 3.5196 7.30566 3.62315 7.47684H3.64386C3.7267 7.31573 3.81989 7.13447 3.90273 6.96328L4.17196 6.47993H5.12461L4.12018 8.02061L5.18674 9.48074H4.20302L3.85096 8.98732C3.73705 8.81613 3.61279 8.63488 3.49889 8.46369H3.47818C3.38499 8.63488 3.28144 8.80606 3.18824 8.98732L2.88795 9.48074H1.9353L2.9915 7.91992Z" fill="#414141"/>
<defs>
<linearGradient id="paint0_linear_1_34" x1="8.54724" y1="9.71306" x2="8.54724" y2="3.88464" gradientUnits="userSpaceOnUse">
<stop stop-color="#0000B4"/>
<stop offset="1" stop-color="#000050"/>
</linearGradient>
</defs>
</svg>
