<svg width="79" height="79" viewBox="0 0 79 79" fill="none" xmlns="http://www.w3.org/2000/svg">
<circle cx="39.5" cy="39.5" r="39.5" fill="#003371"/>
<path d="M59.3988 19.989C58.8199 19.4123 58.1326 18.9548 57.3763 18.6427C56.6201 18.3306 55.8092 18.1699 54.9905 18.1699C54.1717 18.1699 53.3613 18.3306 52.605 18.6427C51.8483 18.9548 51.161 19.4123 50.5826 19.989L35.4016 35.1095C34.8226 35.686 34.3634 36.3704 34.05 37.1238C33.7366 37.8771 33.5752 38.6846 33.5752 39.5C33.5752 40.3155 33.7366 41.1229 34.05 41.8763C34.3634 42.6297 34.8226 43.3139 35.4016 43.8906L50.5826 59.0109C51.161 59.5876 51.8483 60.0454 52.605 60.3573C53.3613 60.6696 54.1717 60.8299 54.9905 60.8299C55.8092 60.8299 56.6201 60.6696 57.3763 60.3573C58.1326 60.0454 58.8199 59.5876 59.3988 59.0109C59.9777 58.4345 60.4371 57.7499 60.7505 56.9968C61.0635 56.2432 61.2252 55.4359 61.2252 54.6204C61.2252 53.8048 61.0635 52.9976 60.7505 52.2444C60.4371 51.4908 59.9777 50.8062 59.3988 50.2299L50.0909 40.9658C49.897 40.7736 49.7432 40.5451 49.6385 40.2936C49.5335 40.042 49.4798 39.7724 49.4798 39.5C49.4798 39.2277 49.5335 38.958 49.6385 38.7064C49.7432 38.4549 49.897 38.2265 50.0909 38.0342L59.3988 28.7702C59.9777 28.1936 60.4371 27.5092 60.7505 26.7558C61.0635 26.0025 61.2252 25.195 61.2252 24.3795C61.2252 23.5641 61.0635 22.7567 60.7505 22.0033C60.4371 21.25 59.9777 20.5655 59.3988 19.989Z" fill="#04795B"/>
<path d="M50.5837 59.004C53.0182 61.4383 56.9651 61.4383 59.3996 59.004C61.8337 56.5697 61.8337 52.6225 59.3996 50.1883L44.2168 35.0055C41.7823 32.5711 37.8354 32.5711 35.401 35.0055C32.9666 37.4399 32.9666 41.3868 35.401 43.8213L50.5837 59.004Z" fill="#0DB50A"/>
<path d="M44.3628 35.1095L28.9648 19.989C28.3777 19.4123 27.6807 18.9548 26.9135 18.6427C26.1463 18.3306 25.3241 18.1699 24.4937 18.1699C23.6632 18.1699 22.8408 18.3306 22.0736 18.6427C21.3065 18.9548 20.6094 19.4123 20.0223 19.989C19.435 20.5655 18.9692 21.25 18.6513 22.0033C18.3335 22.7567 18.1699 23.5641 18.1699 24.3795C18.1699 25.195 18.3335 26.0025 18.6513 26.7558C18.9692 27.5092 19.435 28.1936 20.0223 28.7702L29.4565 38.0342C29.653 38.2265 29.8087 38.4549 29.9151 38.7064C30.0214 38.958 30.0763 39.2277 30.0763 39.5C30.0763 39.7724 30.0214 40.042 29.9151 40.2936C29.8087 40.5451 29.653 40.7736 29.4565 40.9658L20.0223 50.2299C19.435 50.8062 18.9692 51.4908 18.6513 52.2444C18.3335 52.9976 18.1699 53.8048 18.1699 54.6204C18.1699 55.4359 18.3335 56.2432 18.6513 56.9968C18.9692 57.7499 19.435 58.4345 20.0223 59.0109C20.6094 59.5876 21.3065 60.0454 22.0736 60.3573C22.8408 60.6696 23.6632 60.8299 24.4937 60.8299C25.3241 60.8299 26.1463 60.6696 26.9135 60.3573C27.6807 60.0454 28.3777 59.5876 28.9648 59.0109L39.888 48.2778L44.3628 43.8906C44.95 43.3139 45.4159 42.6297 45.7339 41.8763C46.0514 41.1229 46.2149 40.3155 46.2149 39.5C46.2149 38.6846 46.0514 37.8771 45.7339 37.1238C45.4159 36.3704 44.95 35.686 44.3628 35.1095Z" fill="#0AE33A"/>
<path d="M55.103 30.4149C58.4843 30.4149 61.2255 27.6738 61.2255 24.2924C61.2255 20.9111 58.4843 18.1699 55.103 18.1699C51.7217 18.1699 48.9805 20.9111 48.9805 24.2924C48.9805 27.6738 51.7217 30.4149 55.103 30.4149Z" fill="#0AE33A"/>
</svg>
