<svg width="14" height="13" viewBox="0 0 14 13" fill="none" xmlns="http://www.w3.org/2000/svg">
<path d="M6.52358 12.688C10.1264 12.688 13.0472 9.84769 13.0472 6.344C13.0472 2.84031 10.1264 0 6.52358 0C2.92071 0 0 2.84031 0 6.344C0 9.84769 2.92071 12.688 6.52358 12.688Z" fill="#FFFFA0"/>
<path d="M9.13293 4.43643C9.0708 4.42636 9.00867 4.42636 8.94654 4.42636C8.48057 4.42636 8.02496 4.60762 7.61076 4.97014C7.41402 5.13125 7.23799 5.33265 7.07231 5.56426C7.04125 4.69825 6.98947 3.78189 6.90663 2.85547H5.71582C5.97469 5.49377 5.94363 7.78969 5.90221 9.80366V9.81373H7.09302C7.12408 7.78969 7.65218 6.50075 8.41845 5.83614C8.62554 5.65488 8.82229 5.57433 9.01903 5.59447C9.96132 5.69516 9.81635 8.555 9.74387 9.8238H10.9347C10.9865 8.8873 11.0382 7.74941 10.9036 6.76257C10.6965 5.32258 10.1063 4.5472 9.13293 4.43643Z" fill="url(#paint0_linear_1_37)"/>
<path d="M2.783 8.24077L1.78894 6.80078H2.77265L3.09365 7.28413C3.18685 7.45532 3.3111 7.62651 3.41465 7.79769H3.43536C3.5182 7.63658 3.6114 7.45532 3.69423 7.28413L3.96346 6.80078H4.91611L3.91169 8.34147L4.97824 9.80159H3.99453L3.64246 9.30817C3.52856 9.13698 3.4043 8.95573 3.29039 8.78454H3.26968C3.17649 8.95573 3.07294 9.12691 2.97975 9.30817L2.67946 9.80159H1.72681L2.783 8.24077Z" fill="#414141"/>
<defs>
<linearGradient id="paint0_linear_1_37" x1="8.35217" y1="10.0373" x2="8.35217" y2="4.20886" gradientUnits="userSpaceOnUse">
<stop stop-color="#0000B4"/>
<stop offset="1" stop-color="#000050"/>
</linearGradient>
</defs>
</svg>
